<svg xmlns="http://www.w3.org/2000/svg" width="75.179" height="80.005" viewBox="0 0 75.179 80.005">
  <g id="Group_89" data-name="Group 89" transform="translate(-744 -3638)">
    <g id="Group_44" data-name="Group 44" transform="translate(515.245 3289.666)">
      <path id="Path_19" data-name="Path 19" d="M292.273,449.028h4.9v24.343h-4.9V449.028Z" transform="translate(-28.406 -45.032)" fill="#fff"/>
      <path id="Path_20" data-name="Path 20" d="M258.554,444.972a5.077,5.077,0,0,0-6.235.825l-15.595,13.161,3.951,3.136,4.837-4.3a19.8,19.8,0,0,0,9.267,5.072l-1.01,6.389,4.772,1.636,2.678-20.229A5.077,5.077,0,0,0,258.554,444.972ZM251.9,457.123a12.058,12.058,0,0,1-3.088-2.258l6.384-5.7a.975.975,0,0,1,1.627.89l-1.357,8.447A12.043,12.043,0,0,1,251.9,457.123Z" transform="translate(-3.564 -42.899)" fill="#fff"/>
      <path id="Path_21" data-name="Path 21" d="M312.158,450.668l2.678,20.229,4.772-1.636-1.01-6.389a19.8,19.8,0,0,0,9.267-5.072l4.838,4.3,3.951-3.136L321.058,445.8a5.32,5.32,0,0,0-8.9,4.871Zm5.749,7.838-1.357-8.447a.975.975,0,0,1,1.627-.89l6.384,5.7a14.683,14.683,0,0,1-6.653,3.641Z" transform="translate(-37.261 -42.899)" fill="#fff"/>
      <path id="Path_22" data-name="Path 22" d="M280.261,402.257a27.857,27.857,0,0,0-2.764-.553c-.645-.138.322-.553.645-.6a16.24,16.24,0,0,0,3.685-1.428c.875-.6,3.824-2.257,4.238-2.9s1.842-.276,2.026-.276c0,0,.092.23-.276.6a2.472,2.472,0,0,0-.506,1.244,2,2,0,0,1-.922,1.152c-.507.322-2.258,1.381-2.027,2.856a6.2,6.2,0,0,0,2.534,3.685,48.927,48.927,0,0,1,4.791,3.593,9.242,9.242,0,0,1,1.8,3.639,3.535,3.535,0,0,0,3.225,2.258c1.106,0,2.856-.046,3.547,1.013a.809.809,0,0,1-.645.138,9.8,9.8,0,0,0-2.672.783,10.025,10.025,0,0,1-3.593.184c-1.428-.138-2.441-.139-2.994.46a2.878,2.878,0,0,1-2.028,1.106c-.967.092-6.588-.23-7.739-.875-1.327-.743,1.2-.783,1.612-.922a35.491,35.491,0,0,0,4.146-1.013c.671-.335,2.533-2.626,3.409-2.9s.783-1.7-.046-2.165-1.2.322-1.843-.553-.046-1.244-.645-2.119-2.672-2.349-3.593-3.639A7.845,7.845,0,0,0,280.261,402.257Z" transform="translate(-21.701 -21.493)" fill="#fff"/>
      <path id="Path_23" data-name="Path 23" d="M266.344,348.334a37.579,37.579,0,0,0-29.757,60.543l1.206-.917a34.165,34.165,0,0,1-6.059-12.27c.007-.485,1.049-.272,1.651-.139.622.138,4.906,1.52,6.564,1.244a25.088,25.088,0,0,0,5.6-1.8,10.641,10.641,0,0,1,4.491-.829c.691.069-.345-.76-.967-1.036s-2.28,0-4.008,0,3.179-4.975,3.593-5.252.829-.553.276-.553-3.8,1.8-4.906,2.142a25.934,25.934,0,0,1-4.7.346c-1.244.069-4.284,2.073-5.182,2.487a26.013,26.013,0,0,1-2.936.959s.449-6,2.453-8.836,4.768-5.666,5.8-5.182,0,1.451.484,1.935,1.175.415,1.175,1.52a3.416,3.416,0,0,1-1.175,3.248c-1.451,1.589-1.935,2.695-.553,2.211s4.7-1.52,5.6-1.8,2.764-2.28,3.8-2.833,5.735-5.321,6.7-5.8a10.78,10.78,0,0,0,3.179-2.557,9.658,9.658,0,0,1,2.695-2.9c1.036-.553,4.353-2.557,4.975-3.524s1.452-2.626,1.866-2.557a5.449,5.449,0,0,1,2.211,1.313c.553.622.415,1.313.76,1.866a4.3,4.3,0,0,0,2.142,1.727c1.036.346,3.869,2.557,3.248,2.833-.509.226-2.418-1.175-3.248-1.244s-1.382,0-1.175.484,2.626,2.557,3.179,3.317.553,2.557,1.036,4.008,1.589,1.589,1.727,3.87,2.142,4.422,2.971,5.113,2,1.727,2.695,1.8.553-.415,1.658,0,.9,0,.415-.9a.769.769,0,0,1,.484-1.175c2.418-.138,3.386,2.488,3.317,4.7s-1.589,1.658-2.418,3.386,0,1.244.415.9,3.317-.276,4.768-.415,2.695-2,3.248-2.488a1.189,1.189,0,0,1,1.52-.207c.484.276-.069,1.8.207,2s1.8-.9,2.349-1.313a2.467,2.467,0,0,1,1.313-.415c.005-.011.008-.022.013-.033a34.147,34.147,0,0,1-6.221,12.735l1.207.919a37.579,37.579,0,0,0-29.689-60.631Zm30.2,36.99c-.9-.691-3.248-3.455-4.422-3.8s-4.56-2.626-5.6-3.109a5.983,5.983,0,0,1-2.488-2.971c-.207-.829-2.142-3.455-3.179-3.662s-5.735-2.28-6.426-2.557a28.278,28.278,0,0,1-4.146-2.626,2.978,2.978,0,0,0-2.453-.76A16.352,16.352,0,0,0,266,368.533a26.2,26.2,0,0,1-4.906,3.248,9.75,9.75,0,0,0-2.488,1.589c-.872.784-1.106,1.866-2.211,2.557-1.038.649-5.735,3.87-6.564,4.422s-2.142,2.418-3.109,2.349a13.723,13.723,0,0,1-5.113-2.349,9.618,9.618,0,0,0-2.28-1.589c-1.565,0-6.545,4.679-8.65,6.729.878-18.4,16.508-33.064,35.666-33.064,18.689,0,34.015,13.952,35.571,31.718C300.515,386.519,297.407,385.99,296.542,385.324Z" transform="translate(0)" fill="#fff"/>
    </g>
  </g>
</svg>
