<svg xmlns="http://www.w3.org/2000/svg" width="13.818" height="16" viewBox="0 0 13.818 16">
  <path id="Path_87" data-name="Path 87" d="M4.565,9H3.331a.374.374,0,0,1-.37-.375V7.375A.374.374,0,0,1,3.331,7H4.565a.374.374,0,0,1,.37.375v1.25A.374.374,0,0,1,4.565,9ZM7.9,8.625V7.375A.374.374,0,0,0,7.526,7H6.292a.374.374,0,0,0-.37.375v1.25A.374.374,0,0,0,6.292,9H7.526A.374.374,0,0,0,7.9,8.625Zm2.961,0V7.375A.374.374,0,0,0,10.487,7H9.253a.374.374,0,0,0-.37.375v1.25A.374.374,0,0,0,9.253,9h1.234A.374.374,0,0,0,10.857,8.625Zm-2.961,3v-1.25A.374.374,0,0,0,7.526,10H6.292a.374.374,0,0,0-.37.375v1.25a.374.374,0,0,0,.37.375H7.526A.374.374,0,0,0,7.9,11.625Zm-2.961,0v-1.25A.374.374,0,0,0,4.565,10H3.331a.374.374,0,0,0-.37.375v1.25a.374.374,0,0,0,.37.375H4.565A.374.374,0,0,0,4.935,11.625Zm5.922,0v-1.25a.374.374,0,0,0-.37-.375H9.253a.374.374,0,0,0-.37.375v1.25a.374.374,0,0,0,.37.375h1.234A.374.374,0,0,0,10.857,11.625ZM13.818,3.5v11A1.491,1.491,0,0,1,12.338,16H1.481A1.491,1.491,0,0,1,0,14.5V3.5A1.491,1.491,0,0,1,1.481,2H2.961V.375A.374.374,0,0,1,3.331,0H4.565a.374.374,0,0,1,.37.375V2H8.883V.375A.374.374,0,0,1,9.253,0h1.234a.374.374,0,0,1,.37.375V2h1.481A1.491,1.491,0,0,1,13.818,3.5ZM12.338,14.313V5H1.481v9.312a.187.187,0,0,0,.185.188H12.153A.187.187,0,0,0,12.338,14.313Z" fill="#711984"/>
</svg>
