<svg width="19" height="17" viewBox="0 0 19 17" fill="none" xmlns="http://www.w3.org/2000/svg">
<path d="M16.0009 3.38222H13.6487C13.5276 3.38222 13.493 3.38222 13.4671 3.24386C13.3979 2.99307 13.3114 2.75093 13.225 2.51744C13.0702 2.05853 12.7746 1.66016 12.3802 1.37911C11.9858 1.09805 11.5127 0.948651 11.0284 0.952191H7.30123C6.8331 0.954981 6.37697 1.10053 5.99375 1.3694C5.61054 1.63827 5.31847 2.01766 5.15657 2.45691C5.0528 2.75093 4.95767 3.01902 4.87984 3.32169C4.87984 3.39952 4.8366 3.40817 4.75877 3.40817H2.40657C2.08841 3.39471 1.77092 3.44747 1.4742 3.56309C1.17748 3.67871 0.908002 3.85468 0.682824 4.07986C0.457647 4.30504 0.281676 4.57451 0.166054 4.87123C0.0504324 5.16795 -0.0023223 5.48544 0.0111309 5.80361V14.4774C-0.00364992 14.7958 0.0481933 15.1139 0.163346 15.4112C0.278498 15.7086 0.454427 15.9786 0.679881 16.204C0.905335 16.4295 1.17536 16.6054 1.47268 16.7206C1.77 16.8357 2.08807 16.8876 2.40657 16.8728H15.9836C16.2952 16.8811 16.6052 16.826 16.8948 16.7108C17.1844 16.5956 17.4475 16.4228 17.6683 16.2028C17.8891 15.9829 18.0629 15.7203 18.1791 15.4311C18.2954 15.142 18.3516 14.8322 18.3445 14.5206C18.3445 11.5861 18.3445 8.6545 18.3445 5.72578C18.3503 5.4164 18.2937 5.10902 18.178 4.82204C18.0623 4.53505 17.8899 4.27435 17.6711 4.05555C17.4523 3.83675 17.1916 3.66435 16.9046 3.54865C16.6177 3.43296 16.3103 3.37635 16.0009 3.38222ZM16.9608 5.77766V14.4774C16.9745 14.6144 16.9574 14.7527 16.9108 14.8822C16.8643 15.0118 16.7893 15.1293 16.6916 15.2263C16.5938 15.3232 16.4756 15.3971 16.3457 15.4426C16.2157 15.4881 16.0773 15.504 15.9404 15.4891H2.41522C2.27902 15.5026 2.14153 15.4857 2.01265 15.4396C1.88378 15.3935 1.76674 15.3194 1.66996 15.2226C1.57319 15.1258 1.49908 15.0088 1.45299 14.8799C1.4069 14.751 1.38997 14.6136 1.40343 14.4774V5.77766C1.38857 5.64192 1.40422 5.50457 1.44925 5.37565C1.49428 5.24673 1.56755 5.1295 1.66369 5.03252C1.75984 4.93555 1.87644 4.86128 2.00496 4.81515C2.13349 4.76901 2.2707 4.75218 2.40657 4.76587H5.2517C5.34724 4.78587 5.44583 4.78641 5.54159 4.76746C5.63734 4.74851 5.72829 4.71045 5.80901 4.65556C5.88973 4.60067 5.95856 4.53008 6.01139 4.448C6.06421 4.36591 6.09996 4.27402 6.11648 4.17782L6.25484 3.76272C6.33267 3.51194 6.4105 3.2698 6.49698 3.02766C6.55039 2.82377 6.67242 2.64452 6.84254 2.52008C7.01265 2.39564 7.22045 2.33363 7.43094 2.34449H11.063C11.2732 2.32219 11.4842 2.37762 11.6563 2.5003C11.8284 2.62298 11.9496 2.80443 11.997 3.01037L12.2564 3.77137L12.3861 4.17782C12.42 4.36329 12.5246 4.52832 12.6779 4.63806C12.8312 4.74779 13.0212 4.79362 13.2077 4.76587H16.0182C16.1488 4.76285 16.2785 4.78752 16.3989 4.83825C16.5193 4.88898 16.6276 4.96462 16.7166 5.0602C16.8056 5.15578 16.8734 5.26912 16.9155 5.39278C16.9576 5.51644 16.9731 5.64761 16.9608 5.77766Z" fill="#167FFC"/>
<path d="M9.18635 5.19794C7.95772 5.20251 6.78097 5.6938 5.91381 6.5642C5.04666 7.43459 4.55977 8.61317 4.55978 9.84181C4.56662 11.0651 5.05681 12.2362 5.92347 13.0996C6.79014 13.963 7.96299 14.4488 9.18635 14.4511C10.4134 14.4511 11.5902 13.9636 12.4578 13.096C13.3255 12.2283 13.8129 11.0516 13.8129 9.82451C13.8129 8.59747 13.3255 7.42068 12.4578 6.55303C11.5902 5.68538 10.4134 5.19794 9.18635 5.19794ZM9.18635 13.0674C8.33006 13.0697 7.5078 12.7324 6.89988 12.1293C6.29196 11.5263 5.948 10.7067 5.94343 9.85045C5.93648 9.42188 6.01642 8.99634 6.17843 8.5995C6.34043 8.20267 6.58114 7.84276 6.88603 7.54149C7.26191 7.16719 7.72409 6.89108 8.23183 6.73751C8.73957 6.58393 9.27729 6.5576 9.79761 6.66083C10.3179 6.76406 10.8049 6.99368 11.2155 7.32946C11.6262 7.66525 11.9479 8.09688 12.1524 8.58633C12.357 9.07578 12.4379 9.60802 12.3883 10.1362C12.3386 10.6643 12.1598 11.1721 11.8676 11.6148C11.5754 12.0575 11.1788 12.4216 10.7127 12.6749C10.2467 12.9282 9.72544 13.063 9.195 13.0674H9.18635Z" fill="#167FFC"/>
<path d="M15.2571 5.80328C15.0774 5.80305 14.9043 5.87104 14.7728 5.99353C14.6417 6.12508 14.5646 6.30092 14.5566 6.48646C14.5565 6.66783 14.6267 6.84217 14.7525 6.97281C14.8783 7.10346 15.0499 7.18021 15.2312 7.18693C15.4082 7.18671 15.5784 7.11862 15.7068 6.99668C15.7741 6.93507 15.828 6.8603 15.8652 6.77699C15.9024 6.69369 15.922 6.60363 15.923 6.5124C15.9277 6.33035 15.8604 6.1538 15.7357 6.02105C15.6111 5.8883 15.4391 5.81005 15.2571 5.80328Z" fill="#167FFC"/>
</svg>
