<svg xmlns="http://www.w3.org/2000/svg" xmlns:xlink="http://www.w3.org/1999/xlink" width="82" height="65.998" viewBox="0 0 82 65.998">
  <defs>
    <filter id="Path_9" x="0" y="0" width="82" height="65.998" filterUnits="userSpaceOnUse">
      <feOffset dx="2" dy="2" input="SourceAlpha"/>
      <feGaussianBlur result="blur"/>
      <feFlood flood-color="#f7b801" flood-opacity="0.702"/>
      <feComposite operator="in" in2="blur"/>
      <feComposite in="SourceGraphic"/>
    </filter>
  </defs>
  <g id="Group_84" data-name="Group 84" transform="translate(-737 -1215)">
    <g transform="matrix(1, 0, 0, 1, 737, 1215)" filter="url(#Path_9)">
      <path id="Path_9-2" data-name="Path 9" d="M20.315,10.579a2.989,2.989,0,0,0,2.039,1.3,3.02,3.02,0,0,0,2.332-.645l6.52-5.367a2,2,0,0,0-2.539-3.09L23.021,7.423,18.974,1.337a2.979,2.979,0,0,0-5.446,1.357L12.82,9.972,5.655,8.528a2.976,2.976,0,0,0-2.884,4.811l4.645,5.645-6.09,4.049a2.977,2.977,0,0,0,1.362,5.441l7.277.7L8.522,36.346A2,2,0,0,0,10.088,38.7a1.959,1.959,0,0,0,.4.039,2,2,0,0,0,1.957-1.6l1.667-8.281a2.978,2.978,0,0,0-2.632-3.546L5.937,24.77l4.632-3.08a2.977,2.977,0,0,0,.656-4.375l-3.535-4.3,5.461,1.1a3.023,3.023,0,0,0,2.36-.531,2.978,2.978,0,0,0,1.187-2.1l.535-5.542,3.081,4.635ZM35.131,27.132c-3.134-.84-5.952.579-6.7,3.374s.982,5.434,4.116,6.274l1.221.34c4.734,1.269,6.091-.969,6.479-2.415C41.044,31.724,38.041,27.912,35.131,27.132Zm-.589,7.09c-.424-.114-.844-.239-1.221-.34-1.506-.4-2.3-1.444-1.995-2.6s1.52-1.656,3.027-1.252,3.3,2.742,2.992,3.9C37.115,34.794,35.814,34.561,34.542,34.221ZM75.259,31.13l-.534-10.052a10,10,0,0,0-7.4-9.129L47.486,6.632a10,10,0,0,0-10.971,4.206l-5.489,8.439a9.965,9.965,0,0,0-9.325,7.36L17.043,44.023a6.006,6.006,0,0,0,4.242,7.349l1.931.517a6.007,6.007,0,0,0,7.349-4.242L31.6,43.783l30.91,8.282-1.035,3.864a6.006,6.006,0,0,0,4.242,7.349l1.932.517A6.006,6.006,0,0,0,75,59.552l4.659-17.386a9.969,9.969,0,0,0-4.4-11.036ZM39.867,13.019A5.985,5.985,0,0,1,46.45,10.5l19.842,5.316a5.986,5.986,0,0,1,4.439,5.477l.439,8.251L35.362,19.945l4.5-6.926ZM26.7,46.613a2,2,0,0,1-2.45,1.414l-1.932-.517a2,2,0,0,1-1.414-2.45L21.94,41.2l5.8,1.552L26.7,46.613ZM71.133,58.519a2,2,0,0,1-2.45,1.414l-1.932-.517a2,2,0,0,1-1.414-2.45L66.372,53.1l5.795,1.552Zm4.659-17.387-1.552,5.8L73.2,50.791l-5.8-1.552L63.545,48.2,22.976,37.334l2.589-9.659a6.007,6.007,0,0,1,7.349-4.242L71.551,33.785A6,6,0,0,1,75.792,41.131Zm-8.014-5.252c-2.91-.78-7.416,1.02-8.215,4-.387,1.446-.331,4.062,4.4,5.33l1.227.316c3.134.84,5.952-.579,6.7-3.374s-.982-5.434-4.116-6.274ZM69,41.376c-.31,1.155-1.521,1.656-3.027,1.252-.376-.1-.8-.2-1.227-.316-1.271-.34-2.514-.79-2.281-1.656.31-1.155,3.034-2.284,4.541-1.88s2.3,1.444,1.995,2.6Z" transform="translate(0 0)" fill="#711984"/>
    </g>
  </g>
</svg>
