<svg xmlns="http://www.w3.org/2000/svg" width="35" height="40" viewBox="0 0 35 40">
  <path id="Path_88" data-name="Path 88" d="M21.046,34.857A1.448,1.448,0,0,1,22.5,36.286V49.143h8.559a.712.712,0,0,1,.52,1.214L18.53,63.179a1.479,1.479,0,0,1-2.069,0L3.427,50.357a.71.71,0,0,1,.52-1.214h8.559V36.286a1.448,1.448,0,0,1,1.458-1.429h7.082m0-2.857H13.964a4.332,4.332,0,0,0-4.375,4.286v10H3.947a3.561,3.561,0,0,0-2.579,6.089L14.4,65.2a4.444,4.444,0,0,0,6.2,0L33.642,52.384a3.561,3.561,0,0,0-2.579-6.089H25.421V36.286A4.338,4.338,0,0,0,21.046,32ZM35,70.929v-.714a1.086,1.086,0,0,0-1.094-1.071H1.094A1.086,1.086,0,0,0,0,70.214v.714A1.086,1.086,0,0,0,1.094,72H33.906A1.086,1.086,0,0,0,35,70.929Z" transform="translate(0 -32)" fill="#167ffc"/>
</svg>
