<svg width="84" height="67" viewBox="0 0 84 67" fill="none" xmlns="http://www.w3.org/2000/svg">
<path d="M2.12109 40.875L42.0751 1.5L82.1211 40.965" stroke="#167FFC" stroke-width="3" stroke-linecap="round" stroke-linejoin="round"/>
<path d="M13.5891 40.9651V65.5001H31.2741V62.0721" stroke="#167FFC" stroke-width="3" stroke-linecap="round" stroke-linejoin="round"/>
<path d="M56.803 5.79297H63.062V14.993" stroke="#167FFC" stroke-width="3" stroke-linecap="round" stroke-linejoin="round"/>
<path d="M42.1212 43.7289C45.1676 43.7289 47.6372 41.2952 47.6372 38.2929C47.6372 35.2907 45.1676 32.8569 42.1212 32.8569C39.0748 32.8569 36.6052 35.2907 36.6052 38.2929C36.6052 41.2952 39.0748 43.7289 42.1212 43.7289Z" stroke="#167FFC" stroke-width="3" stroke-linecap="round" stroke-linejoin="round"/>
<path d="M70.562 40.9648V65.4998H52.967V62.0718" stroke="#167FFC" stroke-width="3" stroke-linecap="round" stroke-linejoin="round"/>
<path d="M31.2751 54.4199C31.3139 51.5689 32.4736 48.8478 34.5034 46.8453C36.5332 44.8429 39.2699 43.7202 42.1211 43.7202C44.9724 43.7202 47.7091 44.8429 49.7389 46.8453C51.7687 48.8478 52.9284 51.5689 52.9671 54.4199" stroke="#167FFC" stroke-width="3" stroke-linecap="round" stroke-linejoin="round"/>
<path d="M61.5652 49.074C61.5443 46.2183 60.3899 43.4878 58.3559 41.4832C56.3218 39.4787 53.5749 38.3642 50.7192 38.385C51.6755 38.3723 52.6115 38.1076 53.4328 37.6175C54.2541 37.1274 54.9316 36.4294 55.3968 35.5937C55.8621 34.7581 56.0986 33.8145 56.0826 32.8583C56.0665 31.902 55.7985 30.9669 55.3055 30.1474C54.8125 29.3278 54.112 28.6528 53.2747 28.1906C52.4375 27.7283 51.4931 27.4951 50.5369 27.5146C49.5807 27.534 48.6465 27.8054 47.8287 28.3013C47.0109 28.7972 46.3384 29.5 45.8792 30.339" stroke="#F5B719" stroke-width="3" stroke-linecap="round" stroke-linejoin="round"/>
<path d="M21.8892 49.074C21.9106 46.2181 23.0654 43.4876 25.0997 41.4831C27.1341 39.4786 29.8813 38.3642 32.7372 38.385C31.7808 38.3723 30.8448 38.1076 30.0235 37.6175C29.2022 37.1274 28.5247 36.4294 28.0595 35.5937C27.5943 34.7581 27.3577 33.8145 27.3737 32.8583C27.3898 31.902 27.6578 30.9669 28.1508 30.1474C28.6438 29.3278 29.3443 28.6528 30.1816 28.1906C31.0188 27.7283 31.9632 27.4951 32.9195 27.5146C33.8757 27.534 34.8098 27.8054 35.6276 28.3013C36.4454 28.7972 37.1179 29.5 37.5772 30.339" stroke="#F5B719" stroke-width="3" stroke-linecap="round" stroke-linejoin="round"/>
</svg>
