<svg width="38" height="82" viewBox="0 0 38 82" fill="none" xmlns="http://www.w3.org/2000/svg">
<path d="M22.6121 37.2741C22.502 37.1691 22.3997 37.0561 22.3061 36.9361C22.2741 36.8731 22.1871 36.8211 22.1921 36.7661C22.1959 36.7357 22.1932 36.7049 22.1842 36.6756C22.1753 36.6463 22.1602 36.6192 22.1401 36.5961C22.0639 36.5216 21.9968 36.4384 21.9401 36.3481C21.9134 36.2818 21.8927 36.2132 21.8781 36.1431C21.8781 36.0861 21.8721 36.0751 21.8841 36.0601C21.8961 36.0451 21.8151 35.8331 21.8151 35.7351C21.7936 35.5606 21.7956 35.3841 21.8211 35.2101C21.8647 35.1563 21.9045 35.0995 21.9401 35.0401C21.9638 34.9988 21.9848 34.9561 22.0031 34.9121C22.0161 34.877 22.0161 34.8383 22.0031 34.8031C21.9821 34.7681 21.8781 34.7111 21.8781 34.6701C21.8686 34.6036 21.8436 34.5402 21.8051 34.4851C21.7681 34.4371 21.7211 34.4021 21.7121 34.3671C21.6941 34.3281 21.6784 34.288 21.6651 34.2471C21.6575 34.2225 21.6555 34.1966 21.6591 34.1711C21.6651 34.1401 21.6591 34.1801 21.6801 34.1601C21.7043 34.1308 21.722 34.0967 21.7321 34.0601C21.7321 34.0451 21.6651 33.9881 21.6651 33.9881C21.6651 33.9881 21.6221 33.9331 21.6071 34.0101C21.5921 34.0871 21.6011 34.1021 21.5721 34.1101C21.5318 34.113 21.4914 34.113 21.4511 34.1101C21.4511 34.1101 21.4161 34.0751 21.4011 34.1101C21.3895 34.1344 21.375 34.1572 21.3581 34.1781L21.2821 34.1581C21.2821 34.1581 21.2651 34.1011 21.2761 34.0861C21.2871 34.0711 21.3021 34.0491 21.3021 34.0341C21.3021 34.0191 21.2761 33.9911 21.2591 33.9711C21.2421 33.9511 20.9641 33.6531 20.9641 33.6531C20.9641 33.6531 20.7931 33.5091 20.7091 33.4401C20.6251 33.3711 20.5281 33.3121 20.4761 33.2751C20.4319 33.2362 20.3832 33.2026 20.3311 33.1751C20.2711 33.1698 20.2129 33.1521 20.1601 33.1231C20.0931 33.0821 20.0301 33.0771 19.9681 33.0101C19.9061 32.9431 19.6601 32.7331 19.6191 32.6811C19.5781 32.6291 19.5521 32.5921 19.5191 32.5461C19.4861 32.5001 19.4671 32.4791 19.4461 32.4461C19.4137 32.4012 19.3891 32.3512 19.3731 32.2981C19.3641 32.2461 19.3641 32.1981 19.3431 32.1981C19.3221 32.1981 19.2701 32.2901 19.2701 32.3371C19.2749 32.3746 19.2749 32.4126 19.2701 32.4501C19.2591 32.4761 19.2941 32.4931 19.2591 32.4761C19.2377 32.4691 19.2188 32.4558 19.2049 32.438C19.191 32.4202 19.1827 32.3986 19.1811 32.3761C19.1795 32.3265 19.1745 32.2771 19.1661 32.2281C19.1551 32.1561 18.8661 31.7531 18.8341 31.6511C18.8021 31.5491 18.5901 31.1201 18.5941 31.0691C18.5989 31.002 18.6076 30.9352 18.6201 30.8691C18.6378 30.8179 18.6399 30.7626 18.6261 30.7101C18.6079 30.6829 18.5827 30.6611 18.5531 30.6471C18.5061 30.6231 18.4801 30.6321 18.4651 30.5921C18.4379 30.5432 18.4167 30.4912 18.4021 30.4371C18.3931 30.3761 18.4021 30.3561 18.3811 30.3301C18.3601 30.3041 18.3401 30.2931 18.3141 30.2581C18.2922 30.2322 18.2762 30.2018 18.2671 30.1691C18.2671 30.1541 18.2611 30.1431 18.2731 30.1281C18.2811 30.1066 18.2861 30.084 18.2881 30.0611C18.2793 30.0099 18.2656 29.9597 18.2471 29.9111C18.2301 29.8961 18.1471 29.9221 18.1071 29.8851C18.0584 29.8435 18.0235 29.788 18.0071 29.7261C18.0071 29.6851 17.9231 29.4781 17.9341 29.4471C17.9383 29.4107 17.9525 29.3761 17.9751 29.3471C17.994 29.3295 18.0079 29.3071 18.0151 29.2823C18.0223 29.2575 18.0227 29.2311 18.0161 29.2061C17.9972 29.144 17.9835 29.0805 17.9751 29.0161C17.9751 28.9751 17.9661 28.9441 18.0011 28.9031C18.0361 28.8621 17.9751 28.8311 18.0681 28.8461C18.0917 28.8468 18.1149 28.8522 18.1364 28.862C18.1578 28.8718 18.1771 28.8858 18.1931 28.9031C18.2251 28.9291 18.2601 28.9701 18.2711 28.9341C18.2811 28.9017 18.2862 28.868 18.2861 28.8341V28.7211C18.2861 28.7211 18.2971 28.6911 18.3291 28.7121C18.3611 28.7331 18.3701 28.8121 18.4111 28.8121C18.4521 28.8121 18.4691 28.8421 18.4841 28.8121C18.499 28.7653 18.499 28.715 18.4841 28.6681C18.4667 28.6095 18.4616 28.5478 18.4691 28.4871C18.4751 28.4061 18.4691 28.3221 18.4751 28.2871C18.4811 28.2521 18.4751 28.2061 18.5101 28.2001C18.5406 28.2002 18.5707 28.1934 18.5981 28.1801C18.6411 28.1601 18.6501 28.1341 18.6981 28.0931C18.7631 28.0474 18.8377 28.017 18.9161 28.0041C18.9531 28.0041 19.0071 27.9691 19.0051 27.9321C19.0031 27.8951 18.9551 27.8711 19.0051 27.8041C19.0551 27.7371 19.0521 27.7211 19.0461 27.7041C19.0401 27.6871 19.0591 27.6521 19.0051 27.6121C18.9511 27.5721 18.9271 27.5861 18.9161 27.5291L18.8901 27.3901C18.8834 27.3841 18.8753 27.38 18.8665 27.378C18.8578 27.3761 18.8487 27.3765 18.8401 27.3791C18.8081 27.3901 18.7771 27.4101 18.7621 27.4011C18.7471 27.3921 18.6951 27.3791 18.7251 27.3181C18.7551 27.2571 18.7101 27.2401 18.7721 27.2351C18.8341 27.2301 18.8451 27.2461 18.8721 27.2261C18.8991 27.2061 18.9091 27.1741 18.9351 27.1851C18.9611 27.1961 18.9831 27.1681 19.0081 27.2091C19.0331 27.2501 19.0231 27.2811 19.0641 27.2771C19.084 27.2723 19.1017 27.2609 19.1142 27.2447C19.1268 27.2286 19.1334 27.2086 19.1331 27.1881C19.1274 27.1567 19.1148 27.127 19.0961 27.1011C19.0641 27.0441 18.9901 27.0401 19.0081 26.9721C19.0261 26.9041 19.0381 26.4271 19.0381 26.4271L18.9381 26.3601C18.9211 26.3491 18.8911 26.3031 18.9171 26.2771C18.9288 26.2645 18.9433 26.2547 18.9595 26.2486C18.9756 26.2426 18.9929 26.2403 19.0101 26.2421C19.0401 26.2481 19.0101 26.2361 19.0401 26.2481C19.0701 26.2601 19.1031 26.1961 19.1291 26.1481C19.1551 26.1001 19.2071 25.9261 19.2171 25.9111C19.2271 25.8961 19.2281 25.8441 19.2901 25.8111C19.3411 25.7914 19.3936 25.7761 19.4471 25.7651C19.5056 25.7418 19.5561 25.7018 19.5921 25.6501C19.6471 25.5542 19.6939 25.4539 19.7321 25.3501C19.757 25.2917 19.769 25.2286 19.7671 25.1651C19.7581 25.1221 19.7371 25.0821 19.7371 25.0651C19.7371 25.0481 19.6681 25.0711 19.7261 25.0021C19.7841 24.9331 19.8261 24.9151 19.8621 24.8741C19.8981 24.8331 19.8921 24.8221 19.9121 24.7561C19.9273 24.703 19.9467 24.6512 19.9701 24.6011C19.9901 24.5581 20.0164 24.5184 20.0481 24.4831C20.0891 24.4421 20.0891 24.4111 20.1411 24.4371C20.1931 24.4631 20.2141 24.4981 20.2711 24.4831C20.3085 24.472 20.3466 24.4633 20.3851 24.4571C20.4201 24.4511 20.4261 24.4111 20.4411 24.4511C20.4561 24.4911 20.4201 24.5231 20.4991 24.5341C20.5781 24.5451 20.5991 24.5541 20.6291 24.5341C20.6591 24.5141 20.6381 24.5031 20.6961 24.4971C20.7294 24.4952 20.7628 24.4952 20.7961 24.4971C20.9435 24.4691 21.0813 24.4037 21.1961 24.3071C21.2555 24.2362 21.3197 24.1694 21.3881 24.1071C21.4401 24.0611 21.5181 24.0291 21.5451 23.9631C21.5721 23.8971 21.5341 23.8481 21.5971 23.8241C21.6601 23.8001 21.6791 23.8071 21.7111 23.7761C21.7431 23.7451 21.7521 23.7521 21.7731 23.7091C21.7941 23.6661 21.7731 23.6311 21.8311 23.6171C21.8891 23.6031 21.8891 23.5561 21.9561 23.6021C22.0231 23.6481 22.0181 23.6741 22.0811 23.6741C22.1441 23.6741 22.1631 23.6481 22.1951 23.6541C22.2271 23.6601 22.2361 23.6891 22.2831 23.7041C22.3301 23.7191 22.3671 23.7561 22.4251 23.7041C22.4764 23.6505 22.5319 23.601 22.5911 23.5561C22.6254 23.543 22.6533 23.5172 22.6691 23.4841C22.6901 23.4411 22.6931 23.4011 22.7191 23.3921C22.7451 23.3831 22.7191 23.4011 22.7451 23.3811C22.7596 23.3713 22.7718 23.3584 22.7807 23.3434C22.7897 23.3284 22.7953 23.3115 22.7971 23.2941C22.8004 23.2542 22.8074 23.2147 22.8181 23.1761C22.8884 23.0926 22.9478 23.0005 22.9951 22.9021C23.0101 22.8301 23.0421 22.7211 23.0571 22.6711C23.0708 22.6238 23.0815 22.5758 23.0891 22.5271C23.1024 22.4613 23.1044 22.3936 23.0951 22.3271C23.0896 22.2781 23.0757 22.2304 23.0541 22.1861C23.0281 22.1401 22.9651 22.0531 22.9651 22.0531C22.9651 22.0531 22.9351 22.0591 22.9561 22.0181C22.9821 21.9699 23.0159 21.9264 23.0561 21.8891C23.1033 21.8479 23.1435 21.7992 23.1751 21.7451C23.1947 21.697 23.2085 21.6466 23.2161 21.5951C23.2337 21.5863 23.2528 21.5812 23.2725 21.5802C23.2921 21.5791 23.3117 21.5822 23.3301 21.5891C23.3821 21.6151 23.3731 21.6411 23.4231 21.6811C23.4731 21.7211 23.4751 21.7441 23.5121 21.7291C23.5491 21.7141 23.5471 21.7641 23.5471 21.7121C23.5471 21.6601 23.5001 21.6661 23.5531 21.5881C23.6134 21.4953 23.6892 21.4134 23.7771 21.3461C23.8501 21.3051 23.9631 21.2071 24.0011 21.2071H24.2491C24.2491 21.2071 24.2861 21.1611 24.2601 21.1261C24.2341 21.0911 24.1261 21.0831 24.0681 21.0691C24.0101 21.0551 23.8971 21.0341 23.8821 20.9771C23.8631 20.9263 23.8592 20.8711 23.8711 20.8181C23.8861 20.7701 23.8971 20.5241 23.9081 20.5041C23.9191 20.4841 23.9231 20.3751 23.9581 20.4931C24.0027 20.5906 24.0667 20.678 24.1461 20.7501C24.1863 20.751 24.2264 20.7459 24.2651 20.7351C24.2911 20.7201 24.3381 20.7241 24.3471 20.6941C24.3496 20.6863 24.3505 20.6781 24.3497 20.6699C24.349 20.6618 24.3467 20.6538 24.3429 20.6466C24.3391 20.6393 24.3338 20.6329 24.3275 20.6277C24.3212 20.6224 24.3139 20.6185 24.3061 20.6161C24.2741 20.6051 24.2451 20.6221 24.2061 20.5641C24.1671 20.5061 24.1651 20.4971 24.1391 20.4641C24.1177 20.4406 24.0931 20.42 24.0661 20.4031C24.0511 20.3881 24.0141 20.3621 24.0041 20.3311C23.9941 20.3001 23.9571 20.2531 23.9571 20.2311C23.9571 20.2091 23.9211 20.1401 23.9311 20.1211C23.9475 20.0923 23.9599 20.0613 23.9681 20.0291C23.9681 20.0141 23.9681 19.9621 23.9361 19.9481C23.9011 19.9343 23.8676 19.9169 23.8361 19.8961C23.8033 19.8619 23.7647 19.8338 23.7221 19.8131C23.7011 19.8131 23.6851 19.7321 23.6851 19.7321C23.6851 19.7321 23.7221 19.6601 23.7431 19.6691L23.8431 19.7261C23.8641 19.7371 24.0091 19.7871 24.0091 19.7871C24.0091 19.7871 24.1021 19.8091 24.1391 19.8241C24.1761 19.8391 24.2061 19.8131 24.1951 19.8651C24.1841 19.9171 24.1801 19.8961 24.1481 19.9371C24.1161 19.9781 24.1071 19.9781 24.1181 20.0201C24.1291 20.0621 24.1531 20.0661 24.1591 20.1011C24.1651 20.1361 24.1591 20.1271 24.1481 20.1731C24.1371 20.2191 24.1221 20.2161 24.1331 20.2651C24.1363 20.3066 24.1549 20.3455 24.1851 20.3741C24.2091 20.4103 24.2442 20.4377 24.2851 20.4521C24.314 20.4542 24.3424 20.4609 24.3691 20.4721C24.4061 20.4871 24.4061 20.4721 24.4211 20.5131C24.4361 20.5541 24.4471 20.5541 24.4831 20.6371C24.5191 20.7201 24.5461 20.7241 24.5461 20.7241C24.5585 20.7078 24.5674 20.6891 24.5721 20.6691C24.5783 20.6362 24.5813 20.6027 24.5811 20.5691C24.5811 20.5121 24.5661 20.4861 24.5661 20.4251C24.5661 20.3641 24.5721 20.3421 24.5981 20.3251C24.6228 20.3023 24.6532 20.2864 24.6861 20.2791C24.7481 20.2621 24.7441 20.2421 24.8261 20.2421C24.9081 20.2421 24.9621 20.2271 24.9451 20.1961C24.9271 20.1672 24.9063 20.1401 24.8831 20.1151C24.8461 20.0691 24.7991 20.0521 24.7831 20.0231C24.7671 19.9941 24.7421 19.9751 24.7621 19.9341C24.7821 19.8931 24.7471 19.8341 24.8241 19.8421C24.9011 19.8501 24.9241 19.8421 24.9811 19.8831C25.0381 19.9241 24.9961 19.9091 25.0331 19.9261C25.0701 19.9431 25.1521 19.9561 25.1581 19.9001C25.1641 19.8441 25.1581 19.7761 25.1581 19.7561C25.1581 19.7361 25.2941 19.6641 25.3411 19.6561C25.3701 19.6496 25.4001 19.6496 25.4291 19.6561L25.4661 19.6821C25.4864 19.6867 25.5073 19.6888 25.5281 19.6881C25.5451 19.6821 25.5911 19.6621 25.6121 19.6711C25.6258 19.6804 25.6372 19.6927 25.6454 19.7071C25.6535 19.7215 25.6582 19.7376 25.6591 19.7541C25.6481 19.7814 25.6344 19.8076 25.6181 19.8321C25.6071 19.8521 25.5701 19.8781 25.5921 19.9081C25.6421 19.9503 25.7008 19.9807 25.7641 19.9971C25.8201 20.005 25.8742 20.0226 25.9241 20.0491C25.9591 20.0751 25.9591 20.1011 26.0061 20.1041C26.0342 20.1081 26.0628 20.1039 26.0885 20.092C26.1142 20.0802 26.136 20.0611 26.1511 20.0371C26.2498 19.95 26.3671 19.8867 26.4941 19.8521C26.5449 19.8436 26.597 19.8488 26.6451 19.8671C26.7031 19.8871 26.7701 19.9561 26.8371 19.8841C26.8976 19.8284 26.9409 19.7566 26.9621 19.6771C26.9679 19.6565 26.9696 19.6349 26.967 19.6136C26.9645 19.5923 26.9577 19.5718 26.9471 19.5531C26.9211 19.5121 26.8891 19.4981 26.9001 19.4401C26.9067 19.3906 26.9304 19.345 26.9671 19.3111C26.9887 19.2973 27.0066 19.2784 27.0193 19.2561C27.032 19.2338 27.0392 19.2088 27.0401 19.1831C27.0455 19.1281 27.0435 19.0726 27.0341 19.0181C27.0341 19.0181 27.0081 19.0121 27.0231 18.9661C27.0713 18.8981 27.1256 18.8345 27.1851 18.7761C27.2171 18.7331 27.2521 18.6521 27.2411 18.6351C27.2301 18.6181 27.1941 18.6351 27.1531 18.6411C27.1121 18.6471 27.0861 18.6581 27.0531 18.6321C27.0272 18.6047 27.0107 18.5696 27.0061 18.5321C27.0132 18.5105 27.0254 18.4909 27.0416 18.475C27.0577 18.459 27.0774 18.447 27.0991 18.4401C27.1621 18.4201 27.1421 18.3971 27.2391 18.4201C27.3361 18.4431 27.3811 18.4501 27.3961 18.4291C27.4111 18.4081 27.3701 18.3421 27.4221 18.3421C27.4578 18.3453 27.491 18.3617 27.5151 18.3881C27.5416 18.4037 27.5729 18.409 27.6031 18.4031C27.6443 18.3866 27.6888 18.3797 27.7331 18.3831C27.7674 18.3901 27.8009 18.4004 27.8331 18.4141C27.8826 18.426 27.9339 18.428 27.9841 18.4201C28.0511 18.4091 28.0841 18.4031 28.1501 18.3891C28.1762 18.3838 28.1997 18.3697 28.2167 18.3491C28.2336 18.3286 28.2429 18.3028 28.2431 18.2761C28.2491 18.2191 28.2281 18.2131 28.2581 18.1871C28.2881 18.1611 28.3271 18.1201 28.3471 18.1001C28.3671 18.0801 28.3471 17.9761 28.3881 17.9651C28.4246 17.9609 28.4616 17.9609 28.4981 17.9651C28.4981 17.9651 28.7311 17.9651 28.7721 17.9591C28.8273 17.9328 28.8804 17.9024 28.9311 17.8681C28.9631 17.8531 28.9571 17.8221 28.9831 17.7901C29.0091 17.7581 28.9921 17.7381 29.0561 17.7031C29.1201 17.6681 29.1031 17.6831 29.1381 17.6311C29.1707 17.5944 29.1971 17.5525 29.2161 17.5071C29.226 17.4701 29.233 17.4323 29.2371 17.3941C29.2521 17.3161 29.2311 17.2291 29.2691 17.1781C29.3071 17.1271 29.3691 17.0391 29.3691 17.0391C29.3691 17.0391 29.3931 16.9761 29.4101 16.9391C29.4271 16.9021 29.4191 16.8101 29.4451 16.7691C29.4711 16.7281 29.5181 16.6971 29.5341 16.6691C29.5501 16.6411 29.5431 16.6021 29.5601 16.5771C29.5771 16.5521 29.5861 16.5161 29.6161 16.5621C29.6461 16.6081 29.6481 16.6341 29.6741 16.6621C29.7001 16.6901 29.7361 16.7291 29.7621 16.6861C29.7881 16.6431 29.8091 16.5991 29.8511 16.6051C29.8931 16.6111 29.8921 16.6361 29.9651 16.6571C30.0087 16.6694 30.0539 16.6744 30.0991 16.6721C30.1721 16.6781 30.1991 16.6871 30.2181 16.6631C30.2371 16.6391 30.2291 16.6061 30.2701 16.5801C30.3055 16.5475 30.3329 16.5071 30.3501 16.4621C30.3281 16.4471 30.1241 16.3701 30.1101 16.3141C30.0933 16.2698 30.0693 16.2286 30.0391 16.1921C30.019 16.1569 29.9934 16.1251 29.9631 16.0981C29.9071 16.0514 29.8464 16.0105 29.7821 15.9761C29.7301 15.9504 29.6758 15.9293 29.6201 15.9131C29.5374 15.8983 29.4528 15.8983 29.3701 15.9131C29.3461 15.9371 29.0511 15.9981 29.0201 16.0131C28.9891 16.0281 28.8881 16.0501 28.8561 16.0591C28.7815 16.0749 28.7085 16.0977 28.6381 16.1271C28.5521 16.1661 28.4201 16.1971 28.3881 16.2121C28.3254 16.2502 28.2541 16.2718 28.1808 16.2747C28.1075 16.2777 28.0347 16.262 27.9691 16.2291C27.9251 16.194 27.8782 16.1626 27.8291 16.1351C27.7816 16.1333 27.734 16.1363 27.6871 16.1441C27.6699 16.139 27.6515 16.1396 27.6347 16.1459C27.6179 16.1523 27.6036 16.1639 27.5941 16.1791L27.4941 16.3051C27.4941 16.3051 27.4321 16.3291 27.4161 16.3051C27.4001 16.2811 27.2991 16.2771 27.2991 16.1791C27.2733 16.0567 27.232 15.9381 27.1761 15.8261C27.1671 15.8041 27.0511 15.6631 26.9881 15.6631C26.9188 15.6795 26.8531 15.7083 26.7941 15.7481C26.7621 15.7651 26.5941 15.8261 26.5831 15.8031C26.5721 15.7801 26.1241 15.4241 26.1241 15.4241C26.1241 15.4241 25.9361 15.3001 25.9241 15.2611C25.9121 15.2221 25.8851 15.2071 25.8851 15.1301C25.8887 15.0571 25.864 14.9854 25.8161 14.9301C25.7771 14.9061 25.6841 14.8141 25.6591 14.8061C25.6082 14.7888 25.553 14.7888 25.5021 14.8061C25.4377 14.8332 25.3707 14.8536 25.3021 14.8671C25.242 14.8741 25.1813 14.8603 25.1301 14.8281C25.052 14.7882 24.9788 14.7392 24.9121 14.6821C24.8492 14.6137 24.7824 14.5489 24.7121 14.4881C24.6482 14.4358 24.5814 14.387 24.5121 14.3421C24.4801 14.3181 24.3801 14.3491 24.3331 14.3421C24.2861 14.3351 24.2331 14.3881 24.2011 14.3961C24.1691 14.4041 24.1011 14.4351 24.1011 14.3661C24.1011 14.2971 23.9851 13.8241 24.0011 13.7781C24.0171 13.7321 23.9821 13.3921 24.0011 13.3141C24.0201 13.2361 24.0011 12.9281 24.0011 12.8041C24.0086 12.6989 24.0086 12.5933 24.0011 12.4881C23.9993 12.3918 23.9855 12.2961 23.9601 12.2031" stroke="#167FFC" stroke-width="2" stroke-linecap="round" stroke-linejoin="round"/>
<path d="M17.348 66.3532C17.383 66.3902 17.383 66.4972 17.404 66.5802C17.4259 66.6342 17.4297 66.6938 17.415 66.7502C17.406 66.8011 17.4152 66.8535 17.441 66.8982C17.4629 66.9375 17.4683 66.9839 17.456 67.0272C17.441 67.0942 17.473 67.2122 17.462 67.2952C17.4578 67.3697 17.4491 67.4438 17.436 67.5172C17.4276 67.5749 17.4408 67.6336 17.473 67.6822C17.494 67.7172 17.456 67.7172 17.52 67.7892C17.584 67.8612 17.608 67.8152 17.62 67.8982C17.632 67.9812 17.557 67.9592 17.672 68.0112C17.7448 68.0472 17.8208 68.0763 17.899 68.0982C17.972 68.1182 18.024 68.0892 18.044 68.1412C18.087 68.2422 18.1375 68.3398 18.195 68.4332C18.2518 68.5109 18.3244 68.5756 18.408 68.6232C18.46 68.6492 18.414 68.6602 18.508 68.6752C18.5727 68.68 18.6377 68.6732 18.7 68.6552C18.747 68.6552 18.793 68.5812 18.831 68.6792C18.869 68.7772 18.878 68.7122 18.919 68.8622C18.96 69.0122 18.981 68.9952 18.954 69.0822C18.927 69.1692 18.892 69.1652 18.866 69.2112C18.84 69.2572 18.819 69.2372 18.736 69.3112C18.653 69.3852 18.689 69.3922 18.715 69.5012C18.741 69.6102 18.799 69.5932 18.831 69.7062C18.863 69.8192 18.907 69.8352 18.919 69.9592C18.931 70.0832 18.986 70.1292 18.908 70.1032C18.83 70.0772 18.846 70.0402 18.768 70.0252C18.7105 70.0082 18.6496 70.0061 18.591 70.0192C18.5146 70.0284 18.4372 70.0141 18.369 69.9782C18.296 69.9522 18.186 69.9372 18.155 69.8952C18.1411 69.8669 18.1215 69.8419 18.0974 69.8216C18.0733 69.8012 18.0452 69.7861 18.015 69.7772C17.933 69.7572 17.875 69.8032 17.838 69.7252C17.801 69.6472 17.724 69.4592 17.668 69.4792C17.612 69.4992 17.62 69.5512 17.538 69.6492C17.456 69.7472 17.402 69.7822 17.366 69.7412C17.3282 69.6904 17.2969 69.6349 17.273 69.5762C17.256 69.5392 17.184 69.5452 17.173 69.4582C17.1645 69.4062 17.1487 69.3557 17.126 69.3082C17.1019 69.2819 17.0823 69.2519 17.068 69.2192C17.033 69.1523 16.9897 69.0902 16.939 69.0342C16.913 69.0082 16.896 68.9342 16.823 68.9102C16.7669 68.8997 16.709 68.9067 16.657 68.9302C16.622 68.9412 16.45 68.9672 16.435 68.9762C16.3923 69.0198 16.3408 69.0539 16.284 69.0762C16.2155 69.0958 16.1457 69.1102 16.075 69.1192C15.956 69.1342 15.862 69.1452 15.758 69.1542C15.654 69.1632 15.572 69.1602 15.493 69.1742C15.453 69.1854 15.4116 69.1911 15.37 69.1912C15.338 69.1912 15.333 69.1712 15.27 69.1712H15.207C15.207 69.1712 15.228 69.1952 15.129 69.1492C15.03 69.1032 14.974 69.0882 14.969 69.1342C14.964 69.1802 14.99 69.1802 14.937 69.2632C14.884 69.3462 14.937 69.3442 14.844 69.3702C14.751 69.3962 14.699 69.3962 14.678 69.4272C14.657 69.4582 14.663 69.5272 14.605 69.5552C14.547 69.5832 14.505 69.6072 14.434 69.5552C14.3732 69.5042 14.3028 69.4658 14.227 69.4422C14.1799 69.4365 14.1322 69.4365 14.085 69.4422C14.0416 69.4522 13.996 69.4469 13.956 69.4272C13.8892 69.3929 13.8192 69.3651 13.747 69.3442C13.6818 69.3233 13.6149 69.3079 13.547 69.2982C13.495 69.2982 13.39 69.3092 13.318 69.3152C13.246 69.3212 13.204 69.2632 13.152 69.3352C13.1 69.4072 12.975 69.4532 13.022 69.5662C13.0924 69.7184 13.1412 69.8796 13.167 70.0452C13.178 70.1952 13.167 70.2982 13.085 70.3452C12.9786 70.3825 12.8741 70.4252 12.772 70.4732C12.7 70.5135 12.6309 70.5586 12.565 70.6082C12.492 70.6752 12.414 70.7082 12.373 70.7732L12.273 70.9322C12.206 71.0412 12.185 71.1222 12.087 71.1392C11.9971 71.1438 11.907 71.1438 11.817 71.1392C11.732 71.1361 11.6468 71.1381 11.562 71.1452C11.422 71.1602 11.417 71.1362 11.314 71.1452C11.2407 71.1583 11.1652 71.1507 11.096 71.1232C11.0308 71.0817 10.9587 71.0522 10.883 71.0362C10.8364 71.0357 10.7902 71.0446 10.747 71.0622C10.6905 71.0674 10.6348 71.0791 10.581 71.0972C10.5412 71.1328 10.5074 71.1747 10.481 71.2212C10.4498 71.2517 10.4132 71.2761 10.373 71.2932C10.336 71.3102 10.31 71.3652 10.295 71.3852C10.28 71.4052 10.289 71.4222 10.202 71.4572C10.142 71.4834 10.0856 71.517 10.034 71.5572L9.96101 71.6032L9.92601 71.6922C9.9166 71.6989 9.9099 71.7087 9.90715 71.7199C9.9044 71.7311 9.90577 71.7429 9.91101 71.7532C9.92601 71.7942 9.87401 71.8452 9.97301 71.8532C10.0317 71.8552 10.0897 71.8391 10.139 71.8072C10.16 71.8012 10.165 71.7922 10.197 71.8532C10.229 71.9142 10.352 72.0382 10.348 72.0692C10.344 72.1002 10.301 72.1472 10.357 72.1692C10.4374 72.1937 10.5058 72.2472 10.549 72.3192C10.5776 72.4046 10.5971 72.4927 10.607 72.5822C10.622 72.6892 10.592 72.7562 10.607 72.8482C10.622 72.9402 10.767 72.9722 10.807 72.9722C10.847 72.9722 10.889 72.9172 11.072 72.8132C11.255 72.7092 11.326 72.6632 11.424 72.7212C11.5473 72.7803 11.6626 72.8549 11.767 72.9432C11.8084 72.9989 11.8531 73.052 11.901 73.1022C11.97 73.1742 12.001 73.1632 12.069 73.2312C12.137 73.2992 12.104 73.3232 12.177 73.3442C12.25 73.3652 12.477 73.3242 12.587 73.3442C12.677 73.3579 12.7605 73.3991 12.826 73.4622C12.9075 73.5417 12.9778 73.6319 13.035 73.7302C13.065 73.7972 13.206 73.8582 13.21 73.9412C13.218 74.0167 13.218 74.0928 13.21 74.1682C13.199 74.2032 13.199 74.2862 13.163 74.2552C13.127 74.2242 13.126 74.2092 13.079 74.1882C13.032 74.1672 13.012 74.1422 12.979 74.1882C12.946 74.2342 12.627 74.4142 12.612 74.4302C12.5828 74.451 12.5548 74.4734 12.528 74.4972C12.496 74.5282 12.47 74.5842 12.418 74.6102C12.371 74.6372 12.3172 74.65 12.263 74.6472C12.19 74.6472 12.163 74.6042 12.103 74.6732C12.0467 74.7423 11.9962 74.8158 11.952 74.8932C11.926 74.9392 11.894 74.9652 11.894 75.0112V75.1202C11.894 75.1722 11.879 75.1312 11.859 75.2272C11.8391 75.331 11.8247 75.4359 11.816 75.5412C11.816 75.5582 11.801 75.6412 11.795 75.6852C11.789 75.7292 11.774 75.7072 11.774 75.7632C11.774 75.8192 11.707 75.9392 11.716 76.0002C11.731 76.0525 11.7347 76.1074 11.727 76.1612C11.716 76.2282 11.716 76.4612 11.706 76.5222C11.696 76.5832 11.587 76.8362 11.576 76.8862C11.565 76.9362 11.529 77.3092 11.529 77.3092V78.1482C11.529 78.2092 11.494 78.3642 11.494 78.3962C11.494 78.4282 11.509 78.6162 11.515 78.6622C11.521 78.7082 11.494 78.8692 11.494 78.8952C11.494 78.9212 11.55 78.9362 11.55 78.9952C11.55 79.0542 11.509 79.0872 11.498 79.1232C11.4852 79.1791 11.4772 79.236 11.474 79.2932C11.474 79.3362 11.448 79.3452 11.437 79.3932C11.4292 79.4515 11.4272 79.5105 11.431 79.5692C11.4268 79.6476 11.4377 79.726 11.463 79.8002C11.4758 79.8196 11.4936 79.8352 11.5146 79.8452C11.5356 79.8553 11.5589 79.8594 11.582 79.8572C11.644 79.8512 11.66 79.8162 11.701 79.8002C11.7323 79.785 11.7663 79.7762 11.801 79.7742C11.8476 79.777 11.8944 79.777 11.941 79.7742C11.993 79.7742 12.049 79.7542 12.071 79.7802C12.0874 79.8248 12.0962 79.8718 12.097 79.9192C12.097 79.9192 12.034 79.8992 12.028 79.9502C12.0282 79.9852 12.0371 80.0196 12.054 80.0502C12.06 80.0652 12.045 80.1172 12.013 80.1172C11.981 80.1172 11.951 80.0652 11.913 80.1172C11.9001 80.1438 11.8791 80.1656 11.8531 80.1796C11.8271 80.1936 11.7973 80.199 11.768 80.1952C11.706 80.1782 11.613 80.1542 11.608 80.1752C11.603 80.1962 11.576 80.2562 11.614 80.2752C11.652 80.2942 11.67 80.2812 11.681 80.3212C11.692 80.3612 11.687 80.3932 11.644 80.3992C11.601 80.4052 11.544 80.3582 11.525 80.3732C11.5026 80.4007 11.485 80.4318 11.473 80.4652C11.473 80.4822 11.51 80.5222 11.525 80.5372C11.5299 80.5428 11.5335 80.5493 11.5357 80.5564C11.5379 80.5634 11.5386 80.5709 11.5378 80.5782C11.5369 80.5856 11.5346 80.5926 11.5308 80.599C11.5271 80.6054 11.522 80.6109 11.516 80.6152C11.484 80.6352 11.438 80.6262 11.416 80.6412C11.394 80.6562 11.416 80.6612 11.347 80.7302C11.3131 80.7678 11.2678 80.7931 11.218 80.8022C11.1827 80.8002 11.1483 80.7895 11.118 80.7712C11.06 80.7452 11.018 80.7342 10.999 80.7082C10.98 80.6822 10.926 80.6362 10.915 80.6732C10.904 80.7102 10.885 80.7302 10.9 80.7512C10.915 80.7722 10.891 80.7642 10.952 80.8032C11.013 80.8422 10.999 80.8232 11.045 80.8532C11.1511 80.8884 11.2614 80.9096 11.373 80.9162C11.4477 80.923 11.5219 80.9347 11.595 80.9512C11.6508 80.977 11.7107 80.9925 11.772 80.9972C11.8971 80.9895 12.02 80.9601 12.135 80.9102C12.208 80.8792 12.26 80.8492 12.295 80.8322C12.3222 80.8143 12.354 80.8047 12.3865 80.8047C12.4191 80.8047 12.4509 80.8143 12.478 80.8322C12.566 80.8892 12.592 80.9212 12.659 80.9042C12.726 80.8872 12.801 80.8042 12.877 80.7712C12.9579 80.7365 13.0308 80.6854 13.091 80.6212C13.1345 80.5566 13.1844 80.4967 13.24 80.4422C13.3228 80.3789 13.3962 80.3042 13.458 80.2202C13.458 80.1942 13.458 80.0702 13.458 80.0552C13.458 80.0402 13.382 80.0242 13.464 80.0382C13.546 80.0522 13.564 80.1162 13.594 80.1212C13.6316 80.1279 13.6698 80.1309 13.708 80.1302C13.755 80.1302 13.76 80.1562 13.808 80.1212C13.856 80.0862 13.918 80.0902 13.948 80.0642C13.978 80.0382 14.105 79.8992 14.131 79.8642C14.17 79.815 14.2035 79.7617 14.231 79.7052C14.257 79.6532 14.3 79.5962 14.341 79.5052C14.382 79.4142 14.367 79.3982 14.408 79.3522C14.445 79.3084 14.4847 79.267 14.527 79.2282C14.5683 79.1894 14.607 79.148 14.643 79.1042C14.689 79.0639 14.7235 79.0122 14.743 78.9542C14.765 78.8712 14.696 78.8212 14.743 78.7542C14.79 78.6872 14.843 78.5752 14.931 78.5342C15.019 78.4932 15.211 78.2232 15.283 78.2032C15.355 78.1832 16.275 77.9312 16.316 77.9312C16.4223 77.9043 16.5268 77.8709 16.629 77.8312C16.752 77.7902 17.298 77.6152 17.339 77.6092C17.4597 77.5925 17.5793 77.5685 17.697 77.5372C17.74 77.5172 18.087 77.3982 18.17 77.3782C18.2749 77.345 18.3756 77.2997 18.47 77.2432C18.526 77.2082 18.543 77.2172 18.563 77.1712C18.5745 77.1488 18.5816 77.1243 18.584 77.0992L18.491 77.1212L18.381 77.1412L18.387 77.0892C18.4176 77.0701 18.447 77.049 18.475 77.0262C18.544 76.9762 18.512 76.9652 18.591 76.9392C18.67 76.9132 18.736 76.9192 18.751 76.8672C18.766 76.8152 18.736 76.8672 18.766 76.8152C18.7905 76.7512 18.8051 76.6837 18.809 76.6152C18.809 76.5892 18.792 76.5152 18.809 76.5152C18.826 76.5152 18.824 76.5242 18.859 76.4982C18.894 76.4722 18.859 76.3912 18.859 76.3742C18.859 76.3572 18.598 76.0742 18.589 76.0502C18.58 76.0262 18.542 75.9502 18.516 75.9412C18.49 75.9322 18.458 75.9632 18.443 75.9322C18.428 75.9012 18.365 75.8692 18.365 75.8322C18.365 75.7952 18.281 75.3852 18.281 75.3852C18.3304 75.367 18.3808 75.3517 18.432 75.3392C18.5007 75.3608 18.5609 75.4035 18.604 75.4612C18.6862 75.568 18.7786 75.6665 18.88 75.7552C18.958 75.8182 19.08 76.0292 19.154 76.0492C19.228 76.0692 19.394 76.1322 19.441 76.1412C19.471 76.1449 19.4999 76.155 19.5256 76.1709C19.5513 76.1867 19.5733 76.208 19.59 76.2332C19.622 76.2962 19.59 76.3002 19.659 76.3682C19.728 76.4362 19.741 76.4752 19.784 76.4862C19.8376 76.4888 19.8913 76.4851 19.944 76.4752C19.9629 76.4678 19.9805 76.4573 19.996 76.4442C20.022 76.4242 19.996 76.3942 20.096 76.4292C20.196 76.4642 20.221 76.4752 20.262 76.4662C20.3101 76.4492 20.3553 76.4249 20.396 76.3942C20.4322 76.3674 20.4703 76.3433 20.51 76.3222C20.5476 76.3022 20.5815 76.2758 20.61 76.2442C20.627 76.2242 20.601 76.1612 20.642 76.1352C20.683 76.1092 20.761 76.0802 20.767 76.0542C20.7752 76.0306 20.7822 76.0066 20.788 75.9822C20.7947 75.9238 20.7977 75.865 20.797 75.8062C20.797 75.7392 20.84 75.7542 20.788 75.6822C20.7535 75.6297 20.7154 75.5796 20.674 75.5322C20.605 75.4562 20.574 75.4602 20.544 75.4102C20.5079 75.3667 20.4782 75.3182 20.456 75.2662C20.439 75.2182 20.393 75.1052 20.356 75.0332C20.2626 74.899 20.1597 74.7716 20.048 74.6522C20.001 74.6062 19.867 74.4622 19.783 74.3892C19.699 74.3162 19.556 74.2302 19.492 74.1672C19.428 74.1042 19.279 74.0022 19.244 73.9672C19.1889 73.9418 19.1395 73.9054 19.099 73.8602C19.051 73.8012 18.9985 73.7461 18.942 73.6952C18.8846 73.6564 18.8337 73.6088 18.791 73.5542C18.772 73.5226 18.7562 73.4891 18.744 73.4542C18.738 73.4322 18.729 73.3132 18.729 73.3132C18.729 73.3132 18.729 73.2522 18.744 73.2612C18.759 73.2702 18.936 73.3292 18.968 73.3762C19 73.4232 19.087 73.5352 19.119 73.5872C19.257 73.7262 19.4062 73.8536 19.565 73.9682C19.665 74.0402 19.997 74.2102 20.085 74.2932C20.173 74.3762 20.266 74.4522 20.411 74.5702C20.493 74.636 20.5695 74.7083 20.64 74.7862C20.6993 74.8514 20.7635 74.9119 20.832 74.9672C20.925 75.0392 20.925 75.0392 20.977 75.0542C20.9962 75.0634 21.0176 75.0668 21.0387 75.0642C21.0598 75.0615 21.0797 75.0529 21.096 75.0392C21.128 75.0082 21.122 74.9822 21.206 74.9822C21.2321 74.9863 21.2588 74.9825 21.2827 74.9713C21.3066 74.96 21.3265 74.9419 21.34 74.9192C21.372 74.8782 21.433 74.8782 21.44 74.8432C21.447 74.8082 21.554 74.8432 21.414 74.7602C21.274 74.6772 21.179 74.6472 21.149 74.6162C21.119 74.5852 21.138 74.5852 21.071 74.5032C21.0084 74.4185 20.921 74.3553 20.821 74.3222C20.7414 74.2849 20.6574 74.2577 20.571 74.2412C20.401 74.2042 20.291 74.1982 20.265 74.1412C20.239 74.0842 19.765 73.4512 19.756 73.3882C19.6995 73.2612 19.624 73.1435 19.532 73.0392C19.491 73.0022 19.432 72.9152 19.351 72.8892C19.2874 72.8645 19.2191 72.8539 19.151 72.8582C19.097 72.8731 19.0409 72.8789 18.985 72.8752C18.9057 72.8774 18.8267 72.8649 18.752 72.8382C18.715 72.8232 18.679 72.8082 18.679 72.7862C18.679 72.7642 18.636 72.7142 18.612 72.7142C18.588 72.7142 18.549 72.7252 18.528 72.7252C18.507 72.7252 18.328 72.6682 18.299 72.6642C18.2628 72.6638 18.2266 72.6601 18.191 72.6532C18.17 72.6422 18.091 72.6162 18.06 72.5812C18.0385 72.5527 18.0141 72.5265 17.987 72.5032C17.9597 72.4825 17.9336 72.4601 17.909 72.4362C17.885 72.4052 17.853 72.3952 17.879 72.3692C17.8941 72.354 17.9117 72.3415 17.931 72.3322C17.931 72.3322 18.205 72.4932 18.295 72.5322C18.3542 72.5665 18.4194 72.5892 18.487 72.5992C18.554 72.6052 18.632 72.6512 18.72 72.6102C18.7768 72.5781 18.836 72.5504 18.897 72.5272C18.964 72.5072 18.918 72.4922 19.063 72.4922C19.208 72.4922 19.302 72.4982 19.354 72.4982C19.4091 72.5093 19.4659 72.5072 19.52 72.4922C19.639 72.4662 19.582 72.4252 19.706 72.4512C19.83 72.4772 20.034 72.5272 20.034 72.5272C20.034 72.5272 20.017 72.5952 20.163 72.6272C20.309 72.6592 20.485 72.7162 20.512 72.7192C20.5614 72.7378 20.6098 72.7588 20.657 72.7822C20.7041 72.8272 20.7644 72.8556 20.829 72.8632C20.9108 72.8684 20.9914 72.8859 21.068 72.9152C21.12 72.9355 21.1705 72.9596 21.219 72.9872C21.2726 73.0182 21.3281 73.0459 21.385 73.0702C21.4355 73.1019 21.492 73.1226 21.551 73.1312C21.598 73.1312 21.635 73.1252 21.651 73.0962C21.6607 73.0672 21.6677 73.0375 21.672 73.0072C21.683 72.9772 21.709 72.9922 21.683 72.9772C21.657 72.9622 21.599 72.9312 21.599 72.9312C21.5743 72.931 21.5497 72.9273 21.526 72.9202C21.496 72.9092 21.47 72.8132 21.505 72.8072C21.5391 72.7995 21.5747 72.8048 21.605 72.8222C21.65 72.863 21.7009 72.8967 21.756 72.9222C21.803 72.9372 21.838 72.9772 21.864 72.9112C21.882 72.862 21.8928 72.8105 21.896 72.7582C21.8971 72.7145 21.9042 72.6711 21.917 72.6292C21.937 72.5682 21.923 72.5462 21.949 72.5162C21.9674 72.4758 21.9763 72.4316 21.975 72.3872C21.975 72.3872 21.943 72.3982 21.923 72.3522C21.8999 72.2881 21.8687 72.2273 21.83 72.1712C21.772 72.0932 21.73 72.0712 21.69 72.0182C21.65 71.9652 21.664 71.9722 21.612 71.9552C21.56 71.9382 21.512 71.9292 21.539 71.8742C21.566 71.8192 21.565 71.8282 21.612 71.7332C21.6361 71.6837 21.6568 71.6326 21.674 71.5802C21.6876 71.5484 21.6964 71.5147 21.7 71.4802C21.706 71.4492 21.691 71.4542 21.711 71.4132C21.731 71.3722 21.773 71.3262 21.778 71.3042C21.7872 71.2761 21.7922 71.2468 21.793 71.2172C21.7935 71.1757 21.7905 71.1342 21.784 71.0932C21.777 71.0848 21.7719 71.0751 21.769 71.0645C21.766 71.054 21.7654 71.043 21.767 71.0322C21.7654 70.9988 21.7674 70.9652 21.773 70.9322C21.779 70.9122 21.784 70.9432 21.794 70.8712C21.7998 70.8382 21.8035 70.8048 21.805 70.7712C21.805 70.7712 21.805 70.6932 21.837 70.7402C21.869 70.7872 21.951 70.8582 21.96 70.8902C21.969 70.9222 21.997 70.9472 21.971 70.9682C21.945 70.9892 21.904 70.9682 21.893 71.0352C21.8812 71.0938 21.885 71.1545 21.904 71.2112C21.925 71.2632 21.945 71.2722 21.913 71.3182C21.881 71.3642 21.857 71.3752 21.851 71.4182C21.8509 71.4714 21.8472 71.5245 21.84 71.5772C21.831 71.6032 21.773 71.5972 21.825 71.7162C21.8706 71.8266 21.9241 71.9335 21.985 72.0362C22.0329 72.1399 22.1009 72.233 22.185 72.3102C22.2 72.3102 22.237 72.3362 22.263 72.2902C22.2824 72.2445 22.2981 72.1974 22.31 72.1492C22.325 72.1142 22.31 72.0422 22.336 72.0492C22.362 72.0562 22.377 72.1362 22.383 72.1712C22.389 72.2062 22.456 72.3872 22.456 72.3872C22.456 72.3872 22.456 72.4442 22.503 72.4552C22.55 72.4662 22.637 72.4902 22.663 72.4552C22.689 72.4202 22.68 72.4052 22.756 72.3832C22.832 72.3612 22.856 72.4002 22.866 72.3482C22.876 72.2962 22.918 72.2392 22.866 72.2042C22.814 72.1692 22.782 72.1672 22.756 72.1262C22.73 72.0852 22.709 72.0852 22.709 72.0452C22.709 72.0052 22.715 71.9822 22.715 71.9302C22.7197 71.8859 22.7106 71.8412 22.689 71.8022C22.663 71.7562 22.607 71.7392 22.659 71.7192C22.711 71.6992 22.726 71.7252 22.747 71.7802C22.768 71.8352 22.779 71.9562 22.794 71.9802C22.809 72.0042 22.815 72.0172 22.835 72.0172C22.855 72.0172 22.893 71.9762 22.893 71.9762C22.8952 71.9253 22.9039 71.8749 22.919 71.8262C22.94 71.7802 22.954 71.7262 22.986 71.7262C23.018 71.7262 23.048 71.6852 23.053 71.7812C23.0553 71.8664 23.066 71.9511 23.085 72.0342C23.1203 72.0725 23.1602 72.1061 23.204 72.1342C23.236 72.1492 23.262 72.1802 23.297 72.1602C23.332 72.1402 23.355 72.1402 23.37 72.1142C23.3874 72.0843 23.4101 72.0579 23.437 72.0362C23.459 72.0252 23.495 71.9842 23.537 72.0422C23.579 72.1002 23.637 72.1552 23.572 72.2162C23.5293 72.2572 23.4776 72.2877 23.421 72.3052C23.354 72.3362 23.235 72.3402 23.235 72.4182C23.235 72.4962 23.198 72.5312 23.241 72.5832C23.2728 72.6173 23.3144 72.6408 23.36 72.6502C23.36 72.6502 23.427 72.6302 23.438 72.5782C23.449 72.5262 23.427 72.4862 23.459 72.4502C23.5119 72.4101 23.571 72.379 23.634 72.3582C23.7016 72.3577 23.7688 72.3665 23.834 72.3842C23.8653 72.3838 23.8965 72.3801 23.927 72.3732C23.97 72.3672 24.052 72.3532 24.072 72.3992C24.092 72.4452 24.063 72.4512 24.172 72.4992C24.281 72.5472 24.308 72.5602 24.401 72.5302C24.5278 72.4726 24.6478 72.4011 24.759 72.3172C24.8174 72.2539 24.8906 72.2062 24.972 72.1782C25.0749 72.1239 25.1897 72.096 25.306 72.0972C25.3861 72.1036 25.4667 72.0979 25.545 72.0802C25.638 72.0652 25.586 71.9622 25.653 71.9152C25.72 71.8682 26.115 71.6522 26.136 71.6412L26.345 71.5492C26.392 71.5292 26.445 71.4942 26.545 71.4492C26.645 71.4042 26.645 71.3712 26.752 71.3662C26.8794 71.355 27.0008 71.3066 27.101 71.2272C27.1563 71.1773 27.2218 71.1401 27.293 71.1182C27.3943 71.0895 27.4988 71.074 27.604 71.0722C27.704 71.0662 27.854 71.0632 27.869 71.0632C27.9131 71.0673 27.9567 71.076 27.999 71.0892C28.0552 71.1084 28.1149 71.1152 28.174 71.1092C28.267 71.1032 28.299 71.1642 28.346 71.0662C28.393 70.9682 28.372 70.8202 28.413 70.7112C28.454 70.6022 28.502 70.3452 28.538 70.2992C28.574 70.2532 28.538 70.2232 28.669 70.1402C28.818 70.044 28.9722 69.9562 29.131 69.8772C29.2346 69.8794 29.3374 69.8949 29.437 69.9232C29.4901 69.9416 29.5442 69.9569 29.599 69.9692C29.629 69.9752 29.64 69.9752 29.646 70.0212C29.652 70.0672 29.687 70.0822 29.722 70.0882C29.757 70.0942 29.8 70.0732 29.8 70.0422C29.8 70.0112 29.759 69.9642 29.8 69.9552C29.841 69.9462 29.847 69.9492 29.878 69.9292C29.909 69.9092 29.893 69.8982 29.919 69.8292C29.945 69.7602 29.971 69.6642 29.971 69.6642C29.971 69.6642 30.085 69.6332 30.154 69.6072C30.22 69.5776 30.2908 69.56 30.363 69.5552C30.4597 69.5561 30.5546 69.5298 30.637 69.4792C30.691 69.4243 30.7408 69.3655 30.786 69.3032C30.829 69.2512 30.818 69.2032 30.886 69.1482C30.9536 69.0876 31.0311 69.0389 31.115 69.0042C31.1725 68.9727 31.2332 68.9472 31.296 68.9282C31.4189 68.9199 31.5422 68.9199 31.665 68.9282C31.7216 68.9233 31.7786 68.9322 31.831 68.9542C31.857 68.9742 31.883 69.0042 31.924 68.9892C31.965 68.9742 31.987 68.9692 32.008 68.9282C32.029 68.8872 32.07 68.6952 32.096 68.6232C32.122 68.5512 32.113 68.4492 32.159 68.4182C32.2108 68.3889 32.2668 68.3677 32.325 68.3552C32.3869 68.3448 32.4476 68.328 32.506 68.3052C32.5584 68.2815 32.6089 68.2538 32.657 68.2222C32.689 68.2072 32.672 68.2162 32.724 68.1962C32.776 68.1762 32.776 68.1392 32.817 68.1502C32.858 68.1612 32.886 68.2072 32.947 68.2502C33.008 68.2932 33.01 68.3222 33.072 68.2962C33.143 68.2617 33.2158 68.231 33.29 68.2042C33.39 68.1672 33.441 68.1262 33.456 68.0752C33.471 68.0242 33.404 68.0202 33.477 67.9682C33.55 67.9162 33.514 67.8682 33.524 67.8242C33.534 67.7802 33.55 67.5872 33.55 67.5712C33.5453 67.5424 33.5453 67.513 33.55 67.4842C33.561 67.4642 33.529 67.4212 33.55 67.4062L33.571 67.3912C33.571 67.3912 33.592 67.2992 33.597 67.2822C33.602 67.2652 33.614 67.2012 33.623 67.1822C33.632 67.1632 33.614 67.1562 33.623 67.1252C33.632 67.0942 33.623 67.0252 33.623 67.0012C33.623 66.9772 33.599 66.9292 33.599 66.9142C33.599 66.8992 33.567 66.8142 33.599 66.7992C33.6188 66.7928 33.6399 66.791 33.6605 66.794C33.6811 66.7969 33.7008 66.8045 33.718 66.8162C33.733 66.8362 33.712 66.8422 33.718 66.9032C33.724 66.9642 33.705 67.0032 33.724 67.0212C33.743 67.0392 33.739 67.0672 33.765 67.0672C33.8045 67.0617 33.8442 67.0587 33.884 67.0582C33.9489 67.0961 34.0117 67.1375 34.072 67.1822C34.072 67.1822 34.148 67.1602 34.16 67.1142C34.172 67.0682 34.201 67.0422 34.212 67.0142C34.2244 66.9612 34.233 66.9074 34.238 66.8532C34.238 66.8332 34.195 66.7862 34.238 66.7532C34.281 66.7202 34.357 66.6812 34.357 66.6812C34.357 66.6812 34.325 66.6262 34.357 66.6002C34.389 66.5742 34.383 66.5372 34.424 66.5222C34.4507 66.5113 34.4738 66.4933 34.491 66.4702L34.517 66.3892C34.517 66.3892 34.554 66.3522 34.584 66.3672C34.614 66.3822 34.627 66.4132 34.642 66.3782C34.6592 66.3369 34.6709 66.2935 34.677 66.2492C34.677 66.2232 34.558 66.1052 34.543 66.0962C34.528 66.0872 34.429 65.9962 34.424 65.9572C34.4094 65.9048 34.4024 65.8506 34.403 65.7962C34.412 65.7652 34.392 65.6962 34.418 65.6832C34.444 65.6702 34.47 65.6572 34.459 65.6262C34.4552 65.6124 34.4471 65.6002 34.4359 65.5913C34.4247 65.5824 34.411 65.5773 34.3967 65.5766C34.3824 65.5759 34.3683 65.5798 34.3563 65.5876C34.3443 65.5955 34.3351 65.6069 34.33 65.6202C34.2938 65.6654 34.2687 65.7185 34.257 65.7752C34.2513 65.7924 34.241 65.8077 34.2273 65.8195C34.2135 65.8313 34.1969 65.8392 34.179 65.8422C34.147 65.8422 34.095 65.8122 34.091 65.7872C34.087 65.7622 34.059 65.7352 34.08 65.6872C34.101 65.6392 34.106 65.5632 34.121 65.5282C34.136 65.4932 34.127 65.4562 34.158 65.4342C34.189 65.4122 34.22 65.3792 34.24 65.3792C34.26 65.3792 34.292 65.4142 34.318 65.3732C34.3379 65.3306 34.3603 65.2892 34.385 65.2492C34.411 65.2232 34.485 65.1712 34.495 65.1312C34.505 65.0912 34.489 64.9922 34.516 64.9922C34.5655 65.0132 34.606 65.0511 34.63 65.0992C34.6349 65.1384 34.6369 65.1778 34.636 65.2172C34.6435 65.2493 34.6381 65.2831 34.621 65.3112C34.6 65.3572 34.569 65.3412 34.595 65.3872C34.621 65.4332 34.61 65.4762 34.677 65.5052C34.744 65.5342 34.787 65.5512 34.802 65.5572C34.817 65.5632 34.839 65.5832 34.871 65.5682C34.903 65.5532 34.918 65.4792 34.918 65.4502C34.918 65.4212 34.886 65.3832 34.892 65.3582C34.8974 65.327 34.9051 65.2963 34.915 65.2662C34.9218 65.2407 34.9218 65.2138 34.915 65.1882C34.9097 65.1694 34.9005 65.1519 34.8879 65.1369C34.8753 65.1219 34.8597 65.1097 34.842 65.1012C34.799 65.0862 34.723 65.0752 34.706 65.0342C34.676 64.9773 34.6426 64.9222 34.606 64.8692C34.597 64.8492 34.571 64.7602 34.571 64.7602C34.571 64.7602 34.603 64.5492 34.612 64.5142C34.621 64.4792 34.659 64.3702 34.67 64.3142C34.681 64.2582 34.629 64.2832 34.577 64.2052C34.525 64.1272 34.504 64.1442 34.504 64.0982C34.5027 64.0359 34.5097 63.9737 34.525 63.9132C34.54 63.8822 34.587 63.7372 34.598 63.7232C34.609 63.7092 34.604 63.6662 34.66 63.6512C34.716 63.6362 34.753 63.6342 34.76 63.6202C34.7691 63.5905 34.7728 63.5593 34.771 63.5282C34.765 63.5112 34.687 63.5022 34.671 63.4712C34.655 63.4402 34.645 63.4622 34.645 63.3932V63.2142C34.6501 63.1731 34.6409 63.1314 34.619 63.0962C34.5827 63.0663 34.5446 63.0386 34.505 63.0132C34.4458 62.9731 34.4034 62.9126 34.386 62.8432C34.386 62.8232 34.339 62.7622 34.407 62.7562C34.475 62.7502 34.588 62.7652 34.62 62.8172C34.652 62.8692 34.72 62.9672 34.76 63.0242C34.8 63.0812 34.833 63.1022 34.838 63.1312C34.843 63.1602 34.823 63.1942 34.859 63.2202C34.8876 63.241 34.9189 63.2578 34.952 63.2702C34.978 63.2812 34.973 63.3132 35.041 63.3132C35.0802 63.3136 35.1183 63.3006 35.149 63.2762C35.149 63.2762 35.207 63.2242 35.238 63.2302C35.269 63.2362 35.311 63.2932 35.331 63.2502C35.3398 63.2291 35.3443 63.2065 35.3443 63.1837C35.3443 63.1609 35.3398 63.1383 35.331 63.1172C35.314 63.0862 35.279 63.0972 35.238 63.0762C35.197 63.0552 35.128 63.0502 35.107 63.0042C35.086 62.9582 35.04 62.8542 35.034 62.8342C35.0232 62.8013 35.0074 62.7702 34.987 62.7422L34.862 62.6182L34.83 62.5552C34.8061 62.5077 34.7886 62.4573 34.778 62.4052C34.784 62.3752 34.8 62.2922 34.836 62.2662C34.872 62.2402 34.862 62.1132 34.825 62.1132C34.788 62.1132 34.749 62.1802 34.737 62.1942C34.7089 62.2185 34.674 62.2336 34.637 62.2372C34.611 62.2372 34.581 62.2152 34.616 62.1282C34.651 62.0412 34.726 61.8342 34.75 61.7732C34.8051 61.682 34.8702 61.5971 34.944 61.5202C34.974 61.4902 35.089 61.4072 35.11 61.3812C35.131 61.3552 35.119 61.2942 35.172 61.2742C35.225 61.2542 35.265 61.2172 35.286 61.2522C35.3288 61.3137 35.3625 61.3811 35.386 61.4522C35.3944 61.4968 35.3944 61.5426 35.386 61.5872C35.3788 61.6117 35.3701 61.6358 35.36 61.6592C35.351 61.6892 35.351 61.7312 35.319 61.7512C35.287 61.7712 35.246 61.7662 35.278 61.7922C35.31 61.8182 35.293 61.8182 35.345 61.8232C35.397 61.8282 35.445 61.7712 35.479 61.7402C35.4968 61.7209 35.5182 61.7053 35.542 61.6942C35.5643 61.6914 35.5868 61.6914 35.609 61.6942C35.609 61.6942 35.615 61.5502 35.646 61.6792C35.677 61.8082 35.624 61.8492 35.646 61.9052C35.668 61.9612 35.646 61.9482 35.655 62.0052C35.664 62.0622 35.625 62.0772 35.655 62.0972L35.72 62.1432C35.72 62.1432 35.72 62.1602 35.752 62.2002L35.789 62.2412C35.789 62.2412 35.81 62.2982 35.824 62.2782C35.8397 62.2315 35.8504 62.1832 35.856 62.1342C35.8443 62.1146 35.8355 62.0934 35.83 62.0712C35.8154 62.0399 35.8132 62.0041 35.824 61.9712C35.839 61.9282 35.772 61.9082 35.856 61.8822C35.94 61.8562 35.996 61.8732 36.001 61.8302C36.006 61.7872 35.891 61.7022 35.865 61.7022C35.839 61.7022 35.83 61.7372 35.792 61.7082C35.7651 61.6893 35.7454 61.6618 35.736 61.6302C35.7213 61.5981 35.6953 61.5725 35.663 61.5582C35.6132 61.5384 35.5661 61.5122 35.523 61.4802C35.4861 61.4481 35.4525 61.4123 35.423 61.3732C35.3967 61.3383 35.3805 61.2968 35.376 61.2532C35.3704 61.19 35.3704 61.1264 35.376 61.0632C35.4199 60.9593 35.4811 60.8636 35.557 60.7802C35.594 60.7712 35.708 60.6672 35.74 60.6672C35.772 60.6672 35.813 60.6732 35.822 60.6932C35.8286 60.7055 35.8326 60.7191 35.8336 60.7331C35.8346 60.747 35.8327 60.761 35.828 60.7742C35.819 60.8172 35.787 60.8202 35.781 60.8372C35.775 60.8542 35.697 60.8982 35.807 60.8832C35.917 60.8682 35.952 60.8422 35.958 60.7742C35.9641 60.7279 35.9621 60.6808 35.952 60.6352C35.941 60.5542 35.984 60.5432 35.905 60.5172C35.826 60.4912 35.769 60.4822 35.728 60.4652C35.687 60.4482 35.609 60.4132 35.583 60.4102C35.557 60.4072 35.542 60.4102 35.542 60.3672C35.542 60.3242 35.501 60.3122 35.551 60.3002C35.601 60.2882 35.651 60.3002 35.672 60.2802C35.6848 60.269 35.6934 60.2537 35.6961 60.2369C35.6988 60.2201 35.6956 60.2029 35.687 60.1882C35.661 60.1422 35.37 59.6172 35.344 59.5802C35.318 59.5432 35.244 59.4622 35.244 59.4012C35.2393 59.306 35.2443 59.2105 35.259 59.1162C35.285 59.0702 35.328 59.0552 35.343 58.9772C35.358 58.8992 35.384 58.8492 35.349 58.7922C35.314 58.7352 35.276 58.7002 35.276 58.6372C35.276 58.5742 35.332 58.4582 35.311 58.4002C35.29 58.3422 35.238 58.2932 35.203 58.3132C35.168 58.3332 35.14 58.4262 35.052 58.3282C34.964 58.2302 34.933 58.2212 34.927 58.1632C34.9289 58.0886 34.9376 58.0143 34.953 57.9412C34.964 57.8742 34.938 57.8172 34.968 57.7882C34.998 57.7592 35.068 57.6962 35.13 57.7452C35.192 57.7942 35.208 57.8452 35.244 57.8692C35.28 57.8932 35.311 57.8692 35.296 57.9122C35.281 57.9552 35.255 57.9272 35.244 57.9792C35.233 58.0312 35.125 58.0252 35.223 58.0712C35.321 58.1172 35.368 58.1172 35.38 58.0862C35.392 58.0552 35.389 58.0252 35.401 57.9682C35.4077 57.9353 35.4107 57.9018 35.41 57.8682C35.41 57.8312 35.38 57.8202 35.375 57.7742C35.37 57.7282 35.354 57.7242 35.369 57.6822C35.384 57.6402 35.395 57.5122 35.38 57.5122C35.365 57.5122 35.354 57.4972 35.322 57.5292C35.29 57.5612 35.203 57.5842 35.186 57.5592C35.1658 57.5187 35.1434 57.4793 35.119 57.4412C35.098 57.4152 35.067 57.4412 35.084 57.3892C35.101 57.3372 35.166 57.2762 35.105 57.2562C35.044 57.2362 34.965 57.2362 34.945 57.2212C34.9191 57.202 34.8977 57.1774 34.882 57.1492C34.861 57.1122 34.824 57.0662 34.824 57.0342C34.824 57.0022 34.783 56.9342 34.83 56.9342C34.877 56.9342 34.893 56.9342 34.93 56.9802C34.9602 57.0215 34.9992 57.0556 35.044 57.0802C35.076 57.0952 35.144 57.1522 35.169 57.1582C35.194 57.1642 35.253 57.1782 35.253 57.1992C35.253 57.2202 35.242 57.2712 35.262 57.2992C35.282 57.3272 35.32 57.3452 35.331 57.3102C35.3391 57.2617 35.3336 57.2118 35.315 57.1662C35.3 57.1512 35.289 57.1052 35.252 57.0852C35.215 57.0652 35.159 57.0542 35.118 57.0332C35.0843 57.0173 35.0543 56.9945 35.03 56.9662C35.0139 56.951 35.001 56.9327 34.9921 56.9125C34.9832 56.8922 34.9784 56.8704 34.978 56.8482C34.978 56.7762 34.972 56.8422 34.972 56.7092V56.6572C34.972 56.5742 34.993 56.3522 34.993 56.3372C34.993 56.3222 35.004 56.2802 35.004 56.2372C35.004 56.1942 34.998 56.1762 34.998 56.1372C34.998 56.0982 34.983 56.0912 34.977 56.0372C34.971 55.9832 34.94 55.9372 34.94 55.8932C34.94 55.8492 34.919 55.8042 34.94 55.7782C34.961 55.7522 35.013 55.6562 35.013 55.6562C35.013 55.6562 35.024 55.5932 35.076 55.6502C35.1115 55.6906 35.1381 55.7379 35.154 55.7892C35.1646 55.8314 35.1696 55.8748 35.169 55.9182C35.1699 55.9713 35.1679 56.0244 35.163 56.0772C35.163 56.1232 35.154 56.1082 35.148 56.1552C35.142 56.2022 35.085 56.2422 35.148 56.2792C35.211 56.3162 35.256 56.3462 35.267 56.2732C35.2736 56.2272 35.2766 56.1807 35.276 56.1342C35.2716 56.101 35.2716 56.0674 35.276 56.0342C35.2796 55.9972 35.2869 55.9607 35.298 55.9252C35.3141 55.8738 35.3212 55.82 35.319 55.7662C35.3014 55.71 35.2709 55.6586 35.23 55.6162C35.202 55.5912 35.1807 55.5596 35.168 55.5242C35.1515 55.4846 35.1407 55.4429 35.136 55.4002C35.1323 55.3764 35.1303 55.3523 35.13 55.3282C35.1354 55.3015 35.1391 55.2744 35.141 55.2472C35.141 55.2302 35.13 55.2012 35.13 55.1842C35.1216 55.1543 35.1185 55.1232 35.121 55.0922C35.1242 55.0509 35.1242 55.0095 35.121 54.9682C35.121 54.9682 35.063 54.9682 35.058 54.9272C35.0575 54.904 35.0503 54.8814 35.0374 54.8621C35.0245 54.8428 35.0063 54.8275 34.985 54.8182C34.9461 54.8021 34.904 54.7952 34.862 54.7982C34.8091 54.7982 34.7579 54.7799 34.717 54.7462C34.685 54.7162 34.601 54.6542 34.575 54.6242C34.549 54.5942 34.487 54.5242 34.502 54.4952C34.517 54.4662 34.571 54.3662 34.612 54.3662C34.653 54.3662 34.674 54.4092 34.705 54.4442C34.7353 54.4832 34.7687 54.5197 34.805 54.5532C34.857 54.5992 34.867 54.6142 34.905 54.6142C34.9132 54.6137 34.9212 54.6116 34.9285 54.6079C34.9358 54.6042 34.9422 54.5991 34.9475 54.5928C34.9527 54.5865 34.9566 54.5793 34.959 54.5714C34.9613 54.5636 34.962 54.5553 34.961 54.5472C34.9527 54.4992 34.9351 54.4534 34.909 54.4122C34.879 54.3452 34.859 54.3122 34.827 54.2532C34.795 54.1942 34.775 54.1962 34.775 54.1532C34.7685 54.1107 34.7759 54.0672 34.796 54.0292L34.854 53.9372C34.8656 53.8974 34.8683 53.8556 34.8619 53.8146C34.8555 53.7737 34.8402 53.7346 34.817 53.7002C34.739 53.5562 34.61 53.4062 34.578 53.3142C34.546 53.2222 34.459 53.1552 34.459 53.0142C34.459 52.8732 34.47 52.8272 34.438 52.7662C34.4002 52.7141 34.3667 52.6589 34.338 52.6012C34.3064 52.5438 34.2854 52.4811 34.276 52.4162C34.276 52.3532 34.239 52.3442 34.27 52.3012C34.301 52.2582 34.348 52.2552 34.332 52.1772C34.316 52.0992 34.3 52.1422 34.291 52.0772C34.282 52.0122 34.244 52.0422 34.259 51.9772C34.2733 51.9238 34.2927 51.8719 34.317 51.8222C34.3358 51.7929 34.3484 51.76 34.3539 51.7256C34.3594 51.6911 34.3577 51.656 34.349 51.6222C34.3205 51.5205 34.2816 51.422 34.233 51.3282C34.181 51.2412 34.166 51.2522 34.133 51.1802C34.0698 51.0974 34.0136 51.0094 33.965 50.9172C33.9392 50.8494 33.9168 50.7803 33.898 50.7102C33.889 50.6432 33.842 50.1022 33.831 50.0202C33.7899 49.9005 33.7565 49.7782 33.731 49.6542C33.7396 49.5872 33.7345 49.5192 33.716 49.4542C33.699 49.4482 33.669 49.4802 33.658 49.5322C33.647 49.5842 33.647 49.6192 33.626 49.5992C33.59 49.5644 33.562 49.522 33.544 49.4752C33.5413 49.4472 33.5302 49.4207 33.512 49.3992C33.497 49.3822 33.393 49.3562 33.434 49.3102C33.475 49.2642 33.492 49.2382 33.544 49.2552C33.596 49.2722 33.644 49.3102 33.669 49.2702C33.694 49.2302 33.611 49.1922 33.704 49.1202C33.797 49.0482 33.823 49.0592 33.84 49.0202C33.857 48.9812 33.907 48.9742 33.84 48.9202C33.773 48.8662 33.74 48.8652 33.685 48.7922C33.6219 48.7097 33.5663 48.6217 33.519 48.5292C33.5068 48.4922 33.5031 48.4529 33.508 48.4142C33.514 48.3362 33.529 48.2902 33.482 48.2492C33.448 48.2206 33.4119 48.1945 33.374 48.1712C33.374 48.1712 33.404 48.1192 33.374 48.1042C33.344 48.0892 33.311 48.1102 33.311 48.0372C33.3139 47.9688 33.3019 47.9006 33.276 47.8372C33.259 47.8312 33.16 47.8062 33.151 47.8942C33.142 47.9822 33.037 48.0012 33.037 48.0012C33.0296 48.0303 33.0276 48.0604 33.031 48.0902C33.037 48.1402 33.063 48.1902 33.04 48.2232C33.017 48.2562 32.94 48.3012 32.94 48.2432C32.94 48.1852 32.91 48.2172 32.94 48.1142C32.97 48.0112 33.018 47.9752 32.966 47.9492C32.914 47.9232 32.866 47.9402 32.821 47.8822C32.776 47.8242 32.745 47.8012 32.745 47.7692C32.745 47.7372 32.728 47.6692 32.728 47.6252C32.7269 47.6058 32.7217 47.5869 32.7128 47.5696C32.7038 47.5524 32.6913 47.5372 32.676 47.5252C32.661 47.5192 32.609 47.5452 32.609 47.5972C32.607 47.6348 32.5982 47.6718 32.583 47.7062C32.583 47.7062 32.516 47.7152 32.501 47.7152C32.4615 47.7042 32.4227 47.6905 32.385 47.6742C32.3699 47.635 32.349 47.5982 32.323 47.5652C32.2883 47.5484 32.2521 47.5347 32.215 47.5242C32.174 47.5132 32.075 47.5072 32.122 47.4672C32.1544 47.4365 32.1965 47.4181 32.241 47.4152C32.267 47.4152 32.276 47.3952 32.319 47.4262C32.362 47.4572 32.392 47.4932 32.433 47.4672C32.474 47.4412 32.465 47.4362 32.511 47.4262C32.557 47.4162 32.578 47.4262 32.587 47.4092C32.596 47.3922 32.639 47.3592 32.604 47.3592C32.569 47.3592 32.494 47.3372 32.459 47.3532C32.424 47.3692 32.366 47.4082 32.345 47.3792C32.324 47.3502 32.313 47.3532 32.235 47.2552C32.1848 47.2055 32.1459 47.1454 32.121 47.0792C32.0809 47.0135 32.0372 46.9501 31.99 46.8892C31.984 46.8692 31.876 46.7612 31.83 46.6992" stroke="#167FFC" stroke-width="2" stroke-linecap="round" stroke-linejoin="round"/>
<path d="M10.5531 11.1341C10.5195 11.2077 10.4956 11.2854 10.4821 11.3651C10.4751 11.4431 10.4281 11.6811 10.4281 11.7511C10.4281 11.8211 10.4901 11.9451 10.3661 11.9281C10.2421 11.9111 10.1091 11.8891 10.0661 11.8131C10.0231 11.7371 9.80908 11.6131 9.77708 11.5501C9.74508 11.4871 9.50508 11.3101 9.47708 11.2501C9.38862 11.1317 9.28808 11.0228 9.17708 10.9251C9.11403 10.8616 9.04022 10.8098 8.95908 10.7721C8.92208 10.7631 8.82708 10.7171 8.77308 10.7411C8.71908 10.7651 8.68008 10.8801 8.68008 10.9651C8.66211 11.0786 8.63331 11.1901 8.59408 11.2981C8.59408 11.2981 8.54008 11.4751 8.53208 11.5221C8.52408 11.5691 8.42208 11.7681 8.40008 11.7531C8.37808 11.7381 8.25808 11.7921 8.21908 11.7991C8.18008 11.8061 8.13508 11.8141 8.11108 11.7531C8.06966 11.6803 8.04827 11.5979 8.04908 11.5141C8.06408 11.4361 8.03408 11.3661 8.04908 11.3141C8.06408 11.2621 8.09608 11.1751 8.04908 11.1221C7.98996 11.0614 7.9464 10.9873 7.92208 10.9061C7.89008 10.8061 7.86608 10.8601 7.82208 10.7271C7.77808 10.5941 7.74608 10.5811 7.74608 10.5111C7.74584 10.4318 7.72987 10.3533 7.69908 10.2801C7.67508 10.2581 7.51808 10.1171 7.41008 10.2341C7.32626 10.3171 7.25304 10.4102 7.19208 10.5111C7.18508 10.5421 7.13008 10.7051 7.10608 10.7591C7.08208 10.8131 7.02808 10.8831 6.99608 10.8901C6.96408 10.8971 6.69608 10.9991 6.66208 11.0141C6.62874 11.0414 6.60166 11.0755 6.58268 11.1141C6.5637 11.1528 6.55327 11.1951 6.55208 11.2381C6.57548 11.3634 6.57548 11.4919 6.55208 11.6171C6.51308 11.6781 6.53708 11.7801 6.47608 11.8261C6.39136 11.8863 6.29928 11.9354 6.20208 11.9721C6.11688 11.9846 6.0311 11.9926 5.94508 11.9961C5.87059 11.9913 5.79718 11.9758 5.72708 11.9501C5.65177 11.9229 5.57359 11.9045 5.49408 11.8951C5.42281 11.8935 5.35198 11.8835 5.28308 11.8651C5.26108 11.8481 5.15808 11.8171 5.14308 11.7561C5.11715 11.6757 5.10136 11.5924 5.09608 11.5081C5.09608 11.4161 5.05708 11.1461 5.04908 11.0771C5.04108 11.0081 5.01008 10.9611 4.92408 10.8831C4.86885 10.838 4.80883 10.7991 4.74508 10.7671C4.63313 10.6808 4.50215 10.6225 4.36308 10.5971C4.18408 10.5751 4.06308 10.6141 3.98108 10.5971C3.84836 10.5811 3.71475 10.5738 3.58108 10.5751C3.46508 10.5751 3.19108 10.5511 3.06808 10.5511C2.94508 10.5511 2.76808 10.5751 2.74008 10.6601C2.71208 10.7451 2.66908 10.8691 2.64708 10.9541C2.62508 11.0391 2.60808 11.0931 2.60008 11.1241C2.58322 11.1986 2.55159 11.269 2.50708 11.3311C2.46478 11.383 2.4257 11.4374 2.39008 11.4941C2.35108 11.5481 2.30408 11.6031 2.25808 11.6641C2.21208 11.7251 1.98608 11.9121 1.99308 11.9641C2.00008 12.0161 2.62308 12.9991 2.64708 13.0311C2.67108 13.0631 3.00508 13.4471 3.03708 13.5021C3.06908 13.5571 3.27008 13.5561 3.41008 13.7091C3.51638 13.8222 3.61305 13.944 3.69908 14.0731C3.72308 14.1191 3.89908 14.3191 3.91008 14.3501C3.92154 14.4062 3.92889 14.463 3.93208 14.5201C3.93208 14.5591 3.95608 14.7511 3.96408 14.8201C3.97208 14.8891 4.00308 15.0971 4.06408 15.1071C4.13549 15.1244 4.20971 15.1268 4.28208 15.1141C4.36008 15.0901 4.35308 15.1141 4.42408 15.0751C4.45179 15.0634 4.47691 15.0463 4.49802 15.0249C4.51912 15.0034 4.5358 14.978 4.54708 14.9501C4.59169 14.8733 4.63078 14.7935 4.66408 14.7111C4.68608 14.6411 4.64008 14.6171 4.71808 14.5241C4.79608 14.4311 4.86708 14.4241 4.89008 14.4561C4.91308 14.4881 4.88308 14.4711 4.92908 14.5801C4.97508 14.6891 5.03908 14.8501 5.03908 14.8501L5.21808 14.8961C5.27657 14.9014 5.33409 14.9145 5.38908 14.9351C5.41908 14.9571 5.48908 14.9421 5.52908 15.0881C5.55499 15.1838 5.56246 15.2836 5.55108 15.3821C5.5572 15.5097 5.54405 15.6375 5.51208 15.7611C5.48208 15.8221 5.45008 15.9241 5.41908 15.9311C5.38808 15.9381 5.20108 16.0091 5.17108 16.0161C5.092 16.0369 5.01787 16.0733 4.95308 16.1231C4.91408 16.1691 4.85308 16.1861 4.87508 16.2621C4.89708 16.3381 4.86808 16.4561 4.90508 16.4561C4.94208 16.4561 5.01508 16.4251 5.04708 16.4561C5.07837 16.4857 5.10204 16.5224 5.11608 16.5631C5.12859 16.5912 5.13446 16.6217 5.13324 16.6524C5.13203 16.6831 5.12376 16.7131 5.10908 16.7401C5.06463 16.867 5.00733 16.9889 4.93808 17.1041C4.91608 17.1111 4.86008 17.1041 4.84508 17.1431C4.83008 17.1821 4.74508 17.2741 4.79808 17.3431C4.84359 17.3992 4.89639 17.449 4.95508 17.4911C5.00208 17.5301 5.06308 17.5301 5.08708 17.6221C5.0998 17.7003 5.11784 17.7774 5.14108 17.8531C5.16308 17.9071 5.20308 18.0301 5.24108 18.1161C5.27908 18.2021 5.31208 18.2641 5.38108 18.2791C5.46089 18.2972 5.5394 18.3206 5.61608 18.3491C5.65508 18.3641 5.64608 18.3861 5.70908 18.4881C5.77208 18.5901 5.77808 18.6341 5.84108 18.7361C5.90408 18.8381 6.01308 19.0521 6.09108 19.1521C6.20571 19.2773 6.34101 19.3818 6.49108 19.4611C6.62915 19.5255 6.77273 19.5774 6.92008 19.6161C7.05208 19.6381 7.23108 19.6701 7.33908 19.6771C7.44708 19.6841 7.49608 19.7321 7.53908 19.6771C7.58208 19.6221 7.57808 19.5921 7.61708 19.5921C7.66546 19.599 7.70942 19.6241 7.74008 19.6621C7.74866 19.6896 7.75172 19.7185 7.74908 19.7471C7.74908 19.7861 7.73208 19.8251 7.77108 19.8631C7.88679 19.9337 8.00631 19.9978 8.12908 20.0551C8.17608 20.0791 8.34008 20.1941 8.40308 20.2321C8.47645 20.2848 8.53949 20.3506 8.58908 20.4261C8.62108 20.4801 8.61108 20.5411 8.72108 20.5651C8.78111 20.5872 8.84705 20.5872 8.90708 20.5651C9.00008 20.5411 9.03208 20.5581 9.03208 20.4341C9.03208 20.3101 9.01008 20.3251 9.06408 20.2101C9.11808 20.0951 9.11108 20.0621 9.15008 20.0161C9.18908 19.9701 9.22808 19.8461 9.25808 19.8241C9.28808 19.8021 9.23608 19.7931 9.34408 19.7461C9.42571 19.711 9.50916 19.6803 9.59408 19.6541C9.77442 19.5659 9.96214 19.4936 10.1551 19.4381C10.3159 19.3921 10.4665 19.3161 10.5991 19.2141C10.7235 19.1586 10.8546 19.1196 10.9891 19.0981C11.0977 19.1037 11.2051 19.1242 11.3081 19.1591C11.4485 19.2266 11.5824 19.307 11.7081 19.3991C11.7861 19.4601 11.8181 19.4451 11.8961 19.5691C11.9741 19.6931 11.9111 19.6541 12.0211 19.7781C12.1311 19.9021 12.1831 20.0091 12.2611 20.0311C12.3391 20.0531 12.2611 20.0011 12.3931 20.0791C12.5251 20.1571 12.5501 20.1551 12.5721 20.2101C12.6107 20.268 12.6549 20.3219 12.7041 20.3711C12.7665 20.426 12.8334 20.4755 12.9041 20.5191C12.9821 20.5731 12.9361 20.4411 12.9821 20.5731C13.0344 20.7282 13.068 20.889 13.0821 21.0521C13.0751 21.1131 12.9821 21.2521 12.9741 21.3001C12.9646 21.3258 12.9499 21.3493 12.931 21.369C12.9121 21.3888 12.8893 21.4045 12.8641 21.4151C12.8171 21.4391 12.6701 21.3851 12.6071 21.4151C12.5441 21.4451 12.4431 21.3971 12.4211 21.4221C12.3991 21.4471 12.3971 21.4071 12.3431 21.4771C12.2891 21.5471 12.2501 21.5451 12.2351 21.6011C12.2143 21.6421 12.2011 21.6865 12.1961 21.7321C12.1961 21.7861 12.1181 21.8001 12.2181 21.8711C12.3181 21.9421 12.3111 21.9561 12.4181 21.9871C12.4553 22.0058 12.4964 22.0155 12.5381 22.0155C12.5797 22.0155 12.6208 22.0058 12.6581 21.9871C12.7831 21.9411 12.7361 21.8561 12.8581 21.9171C12.9801 21.9781 13.0841 22.1171 13.2011 22.1721C13.2886 22.2224 13.3722 22.2792 13.4511 22.3421C13.5079 22.4092 13.5407 22.4933 13.5441 22.5811C13.5527 22.6487 13.5761 22.7135 13.6125 22.7711C13.649 22.8286 13.6977 22.8775 13.7551 22.9141C13.9059 23.0346 14.0638 23.1458 14.2281 23.2471C14.3061 23.2691 14.4551 23.2301 14.5281 23.2471C14.618 23.2682 14.6979 23.3198 14.7541 23.3931C14.8261 23.4714 14.8752 23.5679 14.8961 23.6721C14.8983 23.7966 14.8852 23.9209 14.8571 24.0421C14.8294 24.121 14.7772 24.189 14.7081 24.2361C14.6134 24.2852 14.5147 24.326 14.4131 24.3581C14.3271 24.3821 14.1461 24.4131 14.1131 24.4581C14.0801 24.5031 13.9811 24.5121 13.9561 24.6281C13.9242 24.7378 13.9327 24.8552 13.9801 24.9591C14.0341 25.0831 13.8801 25.2461 13.8231 25.2921C13.7029 25.3525 13.5861 25.4193 13.4731 25.4921C13.3767 25.5824 13.2905 25.683 13.2161 25.7921C13.1451 25.9071 13.1941 25.9841 13.0591 25.9841C12.9241 25.9841 12.6001 25.9381 12.5391 25.9381C12.4318 25.9083 12.3377 25.8431 12.2721 25.7531C12.2394 25.6993 12.1887 25.6589 12.1291 25.6389C12.0694 25.6189 12.0045 25.6208 11.9461 25.6441C11.8741 25.7008 11.7873 25.7355 11.6961 25.7441C11.6181 25.7441 11.3461 25.6891 11.2961 25.6891C11.2063 25.6629 11.1178 25.6322 11.0311 25.5971C10.9841 25.5901 10.7501 25.5581 10.7311 25.5581C10.7121 25.5581 10.6061 25.5191 10.5741 25.5361C10.5354 25.5609 10.4942 25.5813 10.4511 25.5971C10.4271 25.5971 10.2331 25.5051 10.1941 25.5051C10.1551 25.5051 10.1081 25.5291 10.1161 25.6051C10.1844 25.7583 10.2736 25.9014 10.3811 26.0301C10.4521 26.1221 10.5601 26.2611 10.5361 26.3241C10.5121 26.3871 10.3361 26.5241 10.2811 26.5791C10.1943 26.6428 10.1026 26.6996 10.0071 26.7491C10.0071 26.7491 9.98508 26.6641 9.93808 26.7101C9.8781 26.7633 9.83034 26.8288 9.79808 26.9021C9.77153 26.9716 9.72122 27.0293 9.65608 27.0651C9.59408 27.1041 9.47008 27.1111 9.46208 27.1811C9.45408 27.2511 9.47708 27.3121 9.58708 27.3811C9.69708 27.4501 9.75908 27.4901 9.81308 27.5221C9.86708 27.5541 10.2641 27.7381 10.3131 27.7531C10.4343 27.7716 10.5522 27.8076 10.6631 27.8601C10.7411 27.9231 11.1461 28.4241 11.2021 28.4601C11.2581 28.4961 11.7021 28.9021 11.8471 29.0171C11.9921 29.1321 12.2141 29.2331 12.2931 29.3041C12.3986 29.3762 12.4989 29.4558 12.5931 29.5421C12.7221 29.6522 12.8658 29.7437 13.0201 29.8141C13.0933 29.8398 13.1611 29.8788 13.2201 29.9291C13.2741 29.9831 13.3771 30.1231 13.4531 30.1991C13.5303 30.292 13.6297 30.3638 13.7421 30.4081C13.8514 30.4388 13.9645 30.4543 14.0781 30.4541C14.1867 30.4486 14.2955 30.4486 14.4041 30.4541C14.4901 30.4541 14.4901 30.4431 14.6041 30.5211C14.7181 30.5991 14.8841 30.7301 14.9381 30.7761C14.9795 30.8203 15.0305 30.8545 15.0871 30.8761C15.1282 30.8771 15.1686 30.8874 15.2052 30.9063C15.2417 30.9252 15.2735 30.9521 15.2981 30.9851C15.3521 31.0771 15.4531 31.1161 15.4691 31.1701C15.4798 31.2266 15.4683 31.2849 15.4371 31.3331C15.4131 31.3551 15.3051 31.3091 15.2731 31.3941C15.2425 31.552 15.2268 31.7123 15.2261 31.8731C15.2217 31.9466 15.2326 32.0201 15.2581 32.0891C15.2801 32.1201 15.3361 32.2131 15.3661 32.2591C15.3961 32.3051 15.5381 32.5681 15.5661 32.6311C15.5941 32.6941 15.7231 32.9161 15.7601 32.9621C15.7971 33.0081 15.7691 33.0251 15.8771 33.0401C15.9851 33.0551 16.0341 33.0401 16.1031 33.1101C16.1721 33.1801 16.1661 33.2251 16.2281 33.2881C16.2933 33.3558 16.3665 33.4152 16.4461 33.4651C16.5001 33.4891 16.6461 33.4581 16.6881 33.4651C16.7422 33.462 16.7966 33.465 16.8501 33.4741C16.8932 33.4771 16.935 33.4896 16.9727 33.5107C17.0104 33.5318 17.043 33.561 17.0681 33.5961C17.1081 33.7329 17.1579 33.8665 17.2171 33.9961C17.2561 34.0201 17.3421 34.0351 17.3641 34.1121C17.3762 34.1751 17.4003 34.2352 17.4351 34.2891C17.4743 34.3089 17.5166 34.3221 17.5601 34.3281C17.6071 34.3351 17.5431 34.2191 17.6071 34.3351C17.6711 34.4511 17.5901 34.7921 17.6001 34.9061C17.7384 35.2393 17.9114 35.5571 18.1161 35.8541C18.1965 35.9237 18.2832 35.9856 18.3751 36.0391C18.4916 36.0781 18.5993 36.1396 18.6921 36.2201C18.7651 36.3071 19.9281 37.6101 19.9281 37.6101C19.9281 37.6101 20.4281 38.0831 20.4421 38.0891C20.4561 38.0951 20.6861 38.0891 20.7591 38.0891C20.8321 38.0891 20.8821 38.0981 20.8821 38.1671C20.8821 38.2361 20.8521 38.2341 20.8931 38.3201C20.9341 38.4061 20.9451 38.4201 20.9711 38.4851C20.9971 38.5501 21.2921 39.2371 21.2921 39.2371C21.3573 39.3149 21.4289 39.3872 21.5061 39.4531C21.5681 39.4941 21.6921 39.5531 21.6921 39.5531C21.7577 39.5378 21.8247 39.5291 21.8921 39.5271C21.9801 39.5271 22.0471 39.4961 22.0641 39.5531C22.0732 39.6006 22.0782 39.6488 22.0791 39.6971C22.0851 39.7431 22.0471 39.7491 22.0471 39.8301C22.0177 39.9783 21.9989 40.1283 21.9911 40.2791C22.0061 40.4011 22.0731 40.8241 22.0911 40.8791C22.1091 40.9341 22.1671 41.1181 22.1791 41.1381C22.2067 41.1917 22.2403 41.242 22.2791 41.2881C22.3568 41.3214 22.4317 41.3608 22.5031 41.4061C22.5441 41.4521 22.5701 41.4671 22.5761 41.5341C22.5821 41.6011 22.5441 41.6781 22.5591 41.7341C22.5605 41.8166 22.5918 41.8958 22.6471 41.9571C22.7311 42.0661 22.7051 42.1331 22.8091 42.1641C22.8869 42.199 22.9738 42.2081 23.0571 42.1901C23.0934 42.1785 23.1267 42.159 23.1547 42.1331C23.1827 42.1072 23.2047 42.0755 23.2191 42.0401C23.2401 41.9881 23.2751 41.9051 23.2861 41.8851C23.2874 41.8654 23.2932 41.8461 23.3028 41.8288C23.3125 41.8115 23.3259 41.7966 23.3421 41.7851C23.377 41.762 23.4166 41.7467 23.458 41.7403C23.4995 41.7339 23.5418 41.7366 23.5821 41.7481C23.6441 41.7681 23.6171 41.7851 23.6231 41.8611C23.6291 41.9371 23.6491 42.0741 23.6581 42.1461C23.6671 42.2181 23.6581 42.2131 23.7311 42.2741C23.8041 42.3351 23.8091 42.3201 23.8501 42.4131C23.8799 42.467 23.9134 42.5187 23.9501 42.5681C23.9757 42.6303 24.0167 42.685 24.0691 42.7271C24.1291 42.7496 24.1915 42.765 24.2551 42.7731C24.2961 42.7841 24.3861 42.8301 24.4061 42.8361C24.4261 42.8421 24.6131 42.8621 24.6131 42.8621L24.8631 43.0271C24.8631 43.0271 24.8521 42.9551 24.9151 43.1141C24.9523 43.1989 24.9818 43.287 25.0031 43.3771C25.0031 43.3971 24.9561 43.4771 25.0091 43.5421C25.1033 43.6203 25.208 43.6849 25.3201 43.7341C25.4741 43.7953 25.6235 43.8675 25.7671 43.9501C25.9011 44.0421 25.9371 44.0571 26.0261 44.1151C26.129 44.1664 26.2292 44.2232 26.3261 44.2851C26.3731 44.3311 26.4261 44.3461 26.4361 44.3851C26.4531 44.4181 26.4584 44.4558 26.4511 44.4921C26.4451 44.5791 26.4301 44.7081 26.4211 44.7801C26.4099 44.8527 26.3811 44.9214 26.3371 44.9801C26.3001 45.0151 26.2441 45.1081 26.1541 45.1131C26.0266 45.126 25.9002 45.1484 25.7761 45.1801C25.6621 45.2111 25.5431 45.2321 25.5171 45.2801C25.4911 45.3281 25.5001 45.3631 25.4801 45.4041C25.4601 45.4451 25.4501 45.4671 25.4181 45.4821C25.3861 45.4971 25.3971 45.5431 25.2931 45.5601C25.1891 45.5771 25.1681 45.5341 25.1591 45.6061C25.1501 45.6781 25.1331 45.7061 25.1851 45.7451C25.2555 45.7852 25.3283 45.8209 25.4031 45.8521C25.4761 45.8891 25.5031 45.8581 25.5481 45.9871C25.601 46.0926 25.6442 46.2028 25.6771 46.3161C25.7004 46.3984 25.7478 46.4719 25.8131 46.5271C25.8538 46.5719 25.8918 46.619 25.9271 46.6681C25.9878 46.7511 26.0413 46.8391 26.0871 46.9311C26.1041 46.9831 26.1501 47.0551 26.2031 47.0641C26.2603 47.079 26.319 47.0877 26.3781 47.0901C26.4397 47.0969 26.4996 47.1145 26.5551 47.1421C26.5901 47.1571 26.7061 47.2951 26.7881 47.3641C26.8543 47.4139 26.9308 47.4481 27.0121 47.4641C27.0701 47.4811 27.2211 47.5011 27.2511 47.5641C27.2811 47.6271 27.3181 47.7031 27.3511 47.7861C27.3774 47.8368 27.3985 47.8901 27.4141 47.9451C27.4141 47.9911 27.4031 48.0691 27.4701 48.1061C27.5347 48.1357 27.5974 48.1691 27.6581 48.2061C27.6765 48.2252 27.6909 48.2478 27.7005 48.2725C27.7102 48.2972 27.7148 48.3236 27.7141 48.3501C27.6932 48.4111 27.6532 48.4637 27.6001 48.5001C27.5791 48.5061 27.3501 48.5371 27.3091 48.5871C27.2878 48.6098 27.2712 48.6365 27.2604 48.6657C27.2495 48.6949 27.2447 48.726 27.2461 48.7571C27.2516 48.8364 27.2465 48.9161 27.2311 48.9941L27.2031 49.0541L27.0541 49.1541C26.9611 49.1851 26.7481 49.2821 26.6961 49.2981C26.641 49.3165 26.5912 49.3481 26.5511 49.3901C26.5256 49.4136 26.5055 49.4423 26.4921 49.4742C26.4786 49.5061 26.4722 49.5405 26.4731 49.5751" stroke="#167FFC" stroke-width="2" stroke-linecap="round" stroke-linejoin="round"/>
<path d="M35.4442 54.5582C35.4182 54.5322 35.3442 54.5582 35.3442 54.5582C35.3442 54.5582 35.3182 54.5522 35.3092 54.5932C35.3002 54.6342 35.2572 54.6562 35.3092 54.6712C35.3259 54.6784 35.3444 54.6803 35.3623 54.6767C35.3801 54.6731 35.3965 54.6642 35.4092 54.6512C35.4333 54.6335 35.4531 54.6106 35.4672 54.5842L35.4442 54.5582Z" stroke="#167FFC" stroke-width="2" stroke-linecap="round" stroke-linejoin="round"/>
<path d="M35.7551 56.979C35.7401 56.959 35.6551 56.964 35.6551 56.979C35.6551 56.994 35.6231 57.046 35.6551 57.051C35.6691 57.055 35.684 57.055 35.6981 57.051C35.6981 57.051 35.7601 57.082 35.7541 57.051C35.7515 57.0271 35.7519 57.0029 35.7551 56.979V56.979Z" stroke="#167FFC" stroke-width="2" stroke-linecap="round" stroke-linejoin="round"/>
<path d="M35.515 62.0671C35.504 62.0171 35.524 61.9671 35.431 61.9451C35.338 61.9231 35.358 61.9391 35.286 61.9191C35.214 61.8991 35.126 61.9021 35.157 61.9601C35.1989 62.022 35.2475 62.0791 35.302 62.1301C35.3435 62.1714 35.3883 62.2092 35.436 62.2431C35.4763 62.2774 35.5214 62.3054 35.57 62.3261C35.5776 62.3289 35.5858 62.3299 35.5938 62.3292C35.6019 62.3284 35.6097 62.3259 35.6166 62.3218C35.6236 62.3177 35.6296 62.3121 35.6342 62.3054C35.6387 62.2987 35.6417 62.2911 35.643 62.2831C35.649 62.2531 35.669 62.2371 35.643 62.2071C35.6248 62.1863 35.6091 62.1635 35.596 62.1391C35.5742 62.1099 35.5466 62.0854 35.515 62.0671V62.0671Z" stroke="#167FFC" stroke-width="2" stroke-linecap="round" stroke-linejoin="round"/>
<path d="M21.448 73.8201C21.4673 73.8607 21.4798 73.9043 21.485 73.9491C21.491 73.9801 21.423 73.9901 21.485 74.0041C21.547 74.0181 21.543 74.0471 21.619 74.0041C21.695 73.9611 21.692 73.9281 21.749 73.8911C21.7976 73.8621 21.836 73.8188 21.859 73.7671C21.8863 73.722 21.9034 73.6715 21.909 73.6191C21.915 73.5671 21.92 73.5621 21.847 73.5191C21.774 73.4761 21.747 73.4621 21.679 73.4191C21.6364 73.3881 21.5916 73.3604 21.545 73.3361C21.51 73.3211 21.504 73.3421 21.445 73.3061C21.386 73.2701 21.378 73.2631 21.326 73.2341C21.2781 73.2091 21.2283 73.188 21.177 73.1711C21.104 73.1401 20.922 73.0991 20.869 73.0711C20.816 73.0431 20.662 72.9951 20.604 72.9641C20.5289 72.9249 20.4511 72.8915 20.371 72.8641C20.283 72.8341 20.231 72.8231 20.179 72.8031C20.1364 72.7908 20.0962 72.7715 20.06 72.7461C20.0134 72.7148 19.9626 72.6905 19.909 72.6741C19.851 72.6541 19.836 72.6221 19.758 72.6221C19.68 72.6221 19.613 72.6221 19.592 72.6221C19.551 72.6336 19.5092 72.6423 19.467 72.6481C19.4116 72.6652 19.3539 72.674 19.296 72.6741C19.203 72.6741 19.013 72.6741 18.996 72.6681C18.92 72.6879 18.8452 72.7119 18.772 72.7401C18.7769 72.7539 18.7846 72.7667 18.7945 72.7775C18.8045 72.7883 18.8166 72.797 18.83 72.8031C18.9196 72.8245 19.0122 72.8313 19.104 72.8231C19.2038 72.8092 19.3054 72.8129 19.404 72.8341C19.5012 72.8853 19.5889 72.9529 19.663 73.0341C19.736 73.1061 20.338 73.8941 20.384 73.9571C20.4469 74.0567 20.5457 74.1283 20.66 74.1571C20.8326 74.2403 21.0166 74.2976 21.206 74.3271C21.2376 74.3129 21.2656 74.2918 21.288 74.2653C21.3103 74.2388 21.3264 74.2076 21.335 74.1741C21.356 74.1071 21.361 74.0191 21.382 73.9741C21.3938 73.9397 21.4082 73.9063 21.425 73.8741L21.448 73.8201Z" stroke="#167FFC" stroke-width="2" stroke-linecap="round" stroke-linejoin="round"/>
<path d="M20.6972 75.0982C20.6862 75.0412 20.6712 75.0462 20.6192 74.9982C20.5672 74.9502 20.5612 74.9372 20.5462 74.9262C20.5312 74.9152 20.4622 74.8802 20.4622 74.9262C20.4686 74.9757 20.4887 75.0224 20.5202 75.0612C20.5522 75.1132 20.5352 75.1332 20.5802 75.1392C20.6087 75.1431 20.6376 75.1431 20.6662 75.1392C20.6802 75.1302 20.6972 75.0982 20.6972 75.0982Z" stroke="#167FFC" stroke-width="2" stroke-linecap="round" stroke-linejoin="round"/>
<path d="M20.765 75.3261C20.744 75.2951 20.665 75.2371 20.665 75.2691C20.665 75.3011 20.686 75.3211 20.702 75.3471C20.718 75.3731 20.769 75.3771 20.769 75.3931L20.765 75.3261Z" stroke="#167FFC" stroke-width="2" stroke-linecap="round" stroke-linejoin="round"/>
<path d="M19.221 76.3811C19.227 76.3501 19.121 76.2981 19.092 76.2521C19.0674 76.2208 19.0354 76.1961 18.999 76.1801C18.982 76.1691 18.837 76.0931 18.863 76.1801C18.9034 76.2587 18.9488 76.3345 18.999 76.4071C19.008 76.4421 19.033 76.4621 19.042 76.4881C19.051 76.5141 19.066 76.5711 19.118 76.5451C19.17 76.5191 19.211 76.4991 19.218 76.4671C19.2242 76.4389 19.2253 76.4097 19.221 76.3811V76.3811Z" stroke="#167FFC" stroke-width="2" stroke-linecap="round" stroke-linejoin="round"/>
<path d="M10.8512 74.6651C10.8512 74.6651 10.6702 74.6391 10.6512 74.6651C10.6322 74.6911 10.5432 74.7061 10.6162 74.7481C10.6892 74.7901 10.6662 74.7981 10.7162 74.7941C10.7613 74.7857 10.805 74.7712 10.8462 74.7511C10.8932 74.7361 10.9042 74.7101 10.8932 74.6961C10.8822 74.6821 10.8512 74.6651 10.8512 74.6651Z" stroke="#167FFC" stroke-width="2" stroke-linecap="round" stroke-linejoin="round"/>
<path d="M11.822 73.8782C11.796 73.8872 11.729 73.9502 11.759 73.9702C11.789 73.9902 11.759 74.0112 11.822 74.0052C11.84 74.0063 11.8577 74.0003 11.8714 73.9885C11.885 73.9768 11.8935 73.9601 11.895 73.9422C11.895 73.9292 11.904 73.9592 11.895 73.9292C11.886 73.8992 11.822 73.8782 11.822 73.8782Z" stroke="#167FFC" stroke-width="2" stroke-linecap="round" stroke-linejoin="round"/>
<path d="M10.4091 73.4502C10.3881 73.4652 10.3361 73.5112 10.3741 73.5262C10.4121 73.5412 10.4151 73.5112 10.4361 73.5262C10.4571 73.5412 10.4771 73.5152 10.4771 73.4912C10.4771 73.4672 10.4771 73.4602 10.4561 73.4502C10.4351 73.4402 10.4091 73.4502 10.4091 73.4502Z" stroke="#167FFC" stroke-width="2" stroke-linecap="round" stroke-linejoin="round"/>
<path d="M8.07218 71.9292C8.05637 71.9353 8.04275 71.946 8.03312 71.9599C8.02348 71.9738 8.01827 71.9903 8.01818 72.0072C8.01445 72.0558 8.01445 72.1046 8.01818 72.1532C8.02518 72.1882 7.99618 72.2622 8.01818 72.2812C8.03803 72.3106 8.04721 72.3459 8.04418 72.3812C8.03718 72.4032 8.04418 72.4072 8.04418 72.4422C8.04418 72.4772 8.06818 72.4962 8.07618 72.5162C8.08464 72.5347 8.08902 72.5549 8.08902 72.5752C8.08902 72.5956 8.08464 72.6157 8.07618 72.6342C8.06274 72.6794 8.04067 72.7215 8.01118 72.7582C7.96345 72.8251 7.92415 72.8977 7.89418 72.9742C7.87718 73.0332 7.86218 73.1402 7.85518 73.1742C7.84818 73.2082 7.82018 73.2982 7.82018 73.3202C7.82018 73.3422 7.79818 73.3332 7.82018 73.3722C7.83699 73.4082 7.8452 73.4476 7.84418 73.4872C7.84418 73.4872 7.87818 73.5792 7.81018 73.5682C7.74218 73.5572 7.75418 73.5942 7.71018 73.5292C7.66618 73.4642 7.61018 73.4142 7.61018 73.3902C7.61018 73.3662 7.54818 73.3092 7.56318 73.2312C7.57954 73.1657 7.58893 73.0987 7.59118 73.0312C7.59019 72.9769 7.58005 72.9232 7.56118 72.8722C7.55223 72.8279 7.53601 72.7853 7.51318 72.7462C7.48718 72.6832 7.43818 72.6372 7.40518 72.5632C7.35986 72.4915 7.32168 72.4154 7.29118 72.3362C7.28128 72.2673 7.25709 72.2012 7.22018 72.1422C7.18318 72.0882 7.25218 72.1072 7.14418 72.0742C7.07241 72.0555 7.00193 72.0321 6.93318 72.0042C6.92218 71.9932 6.90118 72.0042 6.90118 71.9542C6.90118 71.9042 6.91218 71.8762 6.90118 71.8652C6.89018 71.8542 6.83918 71.8262 6.85118 71.7952C6.86318 71.7642 6.91818 71.7382 6.91818 71.7382C7.00442 71.7326 7.09094 71.7326 7.17718 71.7382C7.21864 71.7474 7.26179 71.7453 7.30218 71.7322C7.34118 71.7212 7.34918 71.7212 7.37318 71.6752C7.39718 71.6292 7.39518 71.6032 7.41218 71.5942C7.42918 71.5852 7.42718 71.6072 7.45118 71.5942C7.47299 71.5865 7.49185 71.5721 7.50518 71.5532C7.52918 71.5222 7.52418 71.5012 7.56318 71.4752C7.60218 71.4492 7.67318 71.3752 7.70518 71.4082C7.73718 71.4412 7.77018 71.4932 7.80518 71.5282C7.84018 71.5632 7.87818 71.6172 7.93018 71.6832C7.98218 71.7492 8.01018 71.7752 8.03018 71.8142C8.05018 71.8532 8.09418 71.9202 8.07218 71.9292Z" stroke="#167FFC" stroke-width="2" stroke-linecap="round" stroke-linejoin="round"/>
<path d="M22.5931 6.16604C22.5931 9.02104 17.383 17.483 17.383 17.483C17.383 17.483 12.175 9.02104 12.175 6.16604C12.175 4.7844 12.7239 3.45934 13.7009 2.48237C14.6778 1.5054 16.0029 0.956543 17.3845 0.956543C18.7662 0.956543 20.0913 1.5054 21.0682 2.48237C22.0452 3.45934 22.5941 4.7844 22.5941 6.16604H22.5931Z" stroke="#F5B719" stroke-width="2" stroke-linecap="round" stroke-linejoin="round"/>
<path d="M17.3829 8.8781C18.8934 8.8781 20.1179 7.6639 20.1179 6.1661C20.1179 4.66831 18.8934 3.4541 17.3829 3.4541C15.8725 3.4541 14.6479 4.66831 14.6479 6.1661C14.6479 7.6639 15.8725 8.8781 17.3829 8.8781Z" stroke="#F5B719" stroke-linecap="round" stroke-linejoin="round"/>
<path d="M34.6922 33.166C34.6922 36.021 29.4822 44.483 29.4822 44.483C29.4822 44.483 24.2742 36.021 24.2742 33.166C24.2742 31.7844 24.823 30.4593 25.8 29.4824C26.777 28.5054 28.102 27.9565 29.4837 27.9565C30.8653 27.9565 32.1904 28.5054 33.1673 29.4824C34.1443 30.4593 34.6932 31.7844 34.6932 33.166H34.6922Z" stroke="#F5B719" stroke-width="2" stroke-linecap="round" stroke-linejoin="round"/>
<path d="M29.4821 35.8781C30.9926 35.8781 32.2171 34.6639 32.2171 33.1661C32.2171 31.6683 30.9926 30.4541 29.4821 30.4541C27.9716 30.4541 26.7471 31.6683 26.7471 33.1661C26.7471 34.6639 27.9716 35.8781 29.4821 35.8781Z" stroke="#F5B719" stroke-linecap="round" stroke-linejoin="round"/>
<path d="M26.626 56.166C26.626 59.021 21.416 67.483 21.416 67.483C21.416 67.483 16.208 59.021 16.208 56.166C16.208 54.7844 16.7569 53.4593 17.7338 52.4824C18.7108 51.5054 20.0359 50.9565 21.4175 50.9565C22.7992 50.9565 24.1242 51.5054 25.1012 52.4824C26.0782 53.4593 26.627 54.7844 26.627 56.166H26.626Z" stroke="#F5B719" stroke-width="2" stroke-linecap="round" stroke-linejoin="round"/>
<path d="M21.4159 58.8781C22.9264 58.8781 24.1509 57.6639 24.1509 56.1661C24.1509 54.6683 22.9264 53.4541 21.4159 53.4541C19.9054 53.4541 18.6809 54.6683 18.6809 56.1661C18.6809 57.6639 19.9054 58.8781 21.4159 58.8781Z" stroke="#F5B719" stroke-linecap="round" stroke-linejoin="round"/>
</svg>
