<svg width="83" height="53" viewBox="0 0 83 53" fill="none" xmlns="http://www.w3.org/2000/svg">
<path d="M74.029 34.1301V48.6031C74.0266 49.35 73.7277 50.0654 73.1979 50.592C72.6682 51.1186 71.9509 51.4132 71.204 51.411H4.325C3.57806 51.4132 2.86085 51.1186 2.33109 50.592C1.80132 50.0654 1.50238 49.35 1.5 48.6031V8.74205C1.50265 7.99537 1.80174 7.28031 2.3315 6.75412C2.86126 6.22792 3.57832 5.93366 4.325 5.93605H48.398" stroke="#167FFC" stroke-width="3" stroke-linecap="round" stroke-linejoin="round"/>
<path d="M27.1311 20.1941H48.3971" stroke="#167FFC" stroke-linecap="round" stroke-linejoin="round"/>
<path d="M27.1311 37.1541H48.3971" stroke="#167FFC" stroke-linecap="round" stroke-linejoin="round"/>
<path d="M21.635 28.676H53.894" stroke="#167FFC" stroke-width="3" stroke-linecap="round" stroke-linejoin="round"/>
<path d="M58.1381 4.74611C66.8911 4.60211 69.7541 1.41211 69.7541 1.41211" stroke="#F5B719" stroke-width="2" stroke-linecap="round" stroke-linejoin="round"/>
<path d="M81.37 4.74611C72.617 4.60211 69.754 1.41211 69.754 1.41211" stroke="#F5B719" stroke-width="2" stroke-linecap="round" stroke-linejoin="round"/>
<path d="M58.139 4.74609C58.139 4.74609 55.924 23.4641 69.754 27.8531C83.584 23.4641 81.37 4.74609 81.37 4.74609" stroke="#F5B719" stroke-width="2" stroke-linecap="round" stroke-linejoin="round"/>
<path d="M65.8501 14.3472L68.3061 16.2952L73.6571 11.6892" stroke="#F5B719" stroke-width="2" stroke-linecap="round" stroke-linejoin="round"/>
</svg>
