<svg width="24" height="24" viewBox="0 0 24 24" fill="none" xmlns="http://www.w3.org/2000/svg">
<g clip-path="url(#clip0_125_4)">
<path d="M22.2 3H15L12.951 0.438755C12.8392 0.299205 12.7065 0.188612 12.5605 0.113321C12.4145 0.0380291 12.258 -0.000479341 12.1 4.50345e-06H6.6V4.5C6.95601 4.5 7.30402 4.36804 7.60003 4.12081C7.89604 3.87358 8.12675 3.52218 8.26298 3.11104C8.39922 2.69991 8.43487 2.24751 8.36541 1.81105C8.29596 1.37459 8.12453 0.973682 7.87279 0.659014C7.62106 0.344346 7.30033 0.130054 6.95116 0.0432376C6.602 -0.0435791 6.24008 0.000978392 5.91117 0.171276C5.58226 0.341573 5.30114 0.629961 5.10335 0.999971C4.90557 1.36998 4.8 1.805 4.8 2.25V6.00001H1.8V10.5C2.15601 10.5 2.50402 10.368 2.80003 10.1208C3.09603 9.87358 3.32675 9.52218 3.46298 9.11104C3.59922 8.69991 3.63487 8.24751 3.56541 7.81105C3.49596 7.37459 3.32453 6.97368 3.07279 6.65901C2.82106 6.34435 2.50033 6.13005 2.15116 6.04324C1.802 5.95642 1.44008 6.00098 1.11117 6.17128C0.782263 6.34157 0.501141 6.62996 0.303355 6.99997C0.105568 7.36998 0 7.805 0 8.25L0 21.75C0 22.3467 0.189642 22.919 0.527208 23.341C0.864773 23.763 1.32261 24 1.8 24H17.4C17.8774 24 18.3352 23.763 18.6728 23.341C19.0104 22.919 19.2 22.3467 19.2 21.75V18H22.2C22.6774 18 23.1352 17.763 23.4728 17.341C23.8104 16.919 24 16.3467 24 15.75V5.25C24 4.805 23.8944 4.36998 23.6966 3.99997C23.4989 3.62996 23.2177 3.34157 22.8888 3.17128C22.5599 3.00098 22.198 2.95642 21.8488 3.04324C21.4997 3.13005 21.1789 3.34435 20.9272 3.65901C20.6755 3.97368 20.504 4.37459 20.4346 4.81105C20.3651 5.24751 20.4008 5.69991 20.537 6.11104C20.6733 6.52218 20.904 6.87358 21.2 7.12081C21.496 7.36804 21.844 7.5 22.2 7.5V3ZM18 21.75C18 21.9489 17.9368 22.1397 17.8243 22.2803C17.7117 22.421 17.5591 22.5 17.4 22.5H1.8C1.64087 22.5 1.48826 22.421 1.37574 22.2803C1.26321 22.1397 1.2 21.9489 1.2 21.75V8.25C1.2 8.10167 1.23519 7.95666 1.30112 7.83333C1.36705 7.70999 1.46075 7.61386 1.57039 7.5571C1.68003 7.50033 1.80067 7.48548 1.91705 7.51442C2.03344 7.54335 2.14035 7.61479 2.22426 7.71967C2.30818 7.82456 2.36532 7.9582 2.38847 8.10369C2.41162 8.24917 2.39974 8.39997 2.35433 8.53702C2.30892 8.67406 2.23201 8.7912 2.13334 8.87361C2.03467 8.95602 1.91867 9 1.8 9L4.8 7.5V15.75C4.8 16.3467 4.98964 16.919 5.32721 17.341C5.66477 17.763 6.12261 18 6.6 18H18V21.75ZM22.8 15.75C22.8 15.9489 22.7368 16.1397 22.6243 16.2803C22.5117 16.421 22.3591 16.5 22.2 16.5H6.6C6.44087 16.5 6.28826 16.421 6.17574 16.2803C6.06321 16.1397 6 15.9489 6 15.75V2.25C6 2.10167 6.03519 1.95666 6.10112 1.83333C6.16705 1.70999 6.26075 1.61386 6.37039 1.55709C6.48003 1.50033 6.60067 1.48548 6.71705 1.51442C6.83344 1.54335 6.94035 1.61478 7.02426 1.71967C7.10818 1.82456 7.16532 1.9582 7.18847 2.10369C7.21162 2.24917 7.19974 2.39997 7.15433 2.53702C7.10892 2.67406 7.03201 2.7912 6.93334 2.87361C6.83467 2.95602 6.71867 3 6.6 3L12.1 1.5L14.149 4.06125C14.2608 4.2008 14.3935 4.3114 14.5395 4.38669C14.6855 4.46198 14.842 4.50049 15 4.5H22.2V6.00001C22.0813 6.00001 21.9653 5.95602 21.8667 5.87361C21.768 5.7912 21.6911 5.67406 21.6457 5.53702C21.6003 5.39997 21.5884 5.24917 21.6115 5.10369C21.6347 4.9582 21.6918 4.82456 21.7757 4.71967C21.8596 4.61478 21.9666 4.54335 22.0829 4.51442C22.1993 4.48548 22.32 4.50033 22.4296 4.55709C22.5392 4.61386 22.633 4.70999 22.6989 4.83333C22.7648 4.95666 22.8 5.10167 22.8 5.25V15.75Z" fill="#167ffc"/>
</g>
<defs>
<clipPath id="clip0_125_4">
<rect width="24" height="24" fill="white"/>
</clipPath>
</defs>
</svg>
