<svg xmlns="http://www.w3.org/2000/svg" width="82.989" height="73.424" viewBox="0 0 82.989 73.424">
  <g id="Group_143" data-name="Group 143" transform="translate(-132.562 -5.2)">
    <g id="Group_139" data-name="Group 139" transform="translate(165.825 65.183)">
      <g id="Group_138" data-name="Group 138">
        <path id="Path_120" data-name="Path 120" d="M155.14,46.928a6.723,6.723,0,0,1-.252-13.44h.13a6.821,6.821,0,0,1,6.848,6.457,6.739,6.739,0,0,1-6.459,6.981Zm-.1-10.78h-.082a4.062,4.062,0,0,0,.177,8.12V45.6l.084-1.331a4.084,4.084,0,0,0,3.982-4.221A4.136,4.136,0,0,0,155.045,36.148Z" transform="translate(-148.426 -33.488)" fill="#702a81"/>
      </g>
    </g>
    <g id="Group_141" data-name="Group 141" transform="translate(189.216 65.152)">
      <g id="Group_140" data-name="Group 140">
        <path id="Path_121" data-name="Path 121" d="M165.729,46.916a6.724,6.724,0,0,1-.263-13.442,7.156,7.156,0,0,1,4.827,1.785,6.722,6.722,0,0,1-4.305,11.653Zm-.113-10.782h-.077a4.063,4.063,0,0,0,.19,8.122v1.331l.15-1.336a4.059,4.059,0,0,0,2.6-7.039A4.172,4.172,0,0,0,165.616,36.134Z" transform="translate(-159.004 -33.474)" fill="#702a81"/>
      </g>
    </g>
    <g id="Group_142" data-name="Group 142" transform="translate(168.877 14.517)">
      <path id="Path_122" data-name="Path 122" d="M149.806,21.859l1.829-7.839a4.432,4.432,0,0,1,5.188-3.359l14.252,2.78a4.451,4.451,0,0,1,3.554,5.006l-.522,3.611m-23.15,2.848" transform="translate(-149.806 -10.575)" fill="none" stroke="#f5b719" stroke-linecap="round" stroke-linejoin="round" stroke-width="3"/>
    </g>
    <line id="Line_8" data-name="Line 8" x2="27.536" transform="translate(172.547 39.13)" fill="none" stroke="#f5b719" stroke-linecap="round" stroke-linejoin="round" stroke-width="3"/>
    <line id="Line_9" data-name="Line 9" x2="18.357" transform="translate(177.136 48.538)" fill="none" stroke="#f5b719" stroke-linecap="round" stroke-linejoin="round" stroke-width="3"/>
    <path id="Path_123" data-name="Path 123" d="M175.672,19.91,168.9,13.02a2.252,2.252,0,0,0-2.452-.506l-5.157,2.1" transform="translate(32.981 6.089)" fill="none" stroke="#f5b719" stroke-linecap="round" stroke-linejoin="round" stroke-width="3"/>
    <path id="Path_124" data-name="Path 124" d="M134.062,10.847h15.746l13.178,46.584h43.347l7.717-34.871H164.83" transform="translate(0 4.271)" fill="none" stroke="#702a81" stroke-linecap="round" stroke-linejoin="round" stroke-width="3"/>
    <path id="Path_125" data-name="Path 125" d="M152.148,7.321l8.548,8.59,8.23-4.295" transform="translate(21.908 0)" fill="none" stroke="#f5b719" stroke-linecap="round" stroke-linejoin="round" stroke-width="3"/>
  </g>
</svg>
