<svg xmlns="http://www.w3.org/2000/svg" width="99.672" height="65.729" viewBox="0 0 99.672 65.729">
  <g id="Group_93" data-name="Group 93" transform="translate(-1380 -3646)">
    <g id="Group_92" data-name="Group 92">
      <g id="Group_51" data-name="Group 51" transform="translate(1067.059 3419.584)">
        <path id="Path_61" data-name="Path 61" d="M360.286,285.009c-19.7,1.817-40.224-1.045-43.1-16.437-1.406-7.588,2.055-15.634,6.64-20.635v-2.67c-8.26,7.244-12.737,16.411-10.158,27.239,3.294,13.888,20.907,21.753,47.8,19.142,10.645-1.031,24.566-4.454,34.25-9.774v-7.551C386.929,279.56,372.394,283.886,360.286,285.009Zm51.885-39.923c-4.672-22.809-48.958-24.254-77.505-6.877v1.92c28.515-14.66,68.962-14.571,72.644,6.44,1.236,6.95-2.679,14.192-9.674,18.361v5.452C406.05,267.295,414.68,257.313,412.171,245.086Z" transform="translate(0 0)" fill="#fff"/>
        <path id="Path_62" data-name="Path 62" d="M482.859,259.68H477.7v23c0,2.7,1.3,5.04,5.164,5.414Z" transform="translate(-88.733 -17.915)" fill="#fff"/>
        <path id="Path_63" data-name="Path 63" d="M349.586,277.879h-5.173l0,15.026c0,2.705,1.307,5.047,5.176,5.414Z" transform="translate(-16.949 -27.717)" fill="#fff"/>
        <rect id="Rectangle_34" data-name="Rectangle 34" width="5.157" height="4.895" transform="translate(327.464 242.464)" fill="#fff"/>
        <path id="Path_64" data-name="Path 64" d="M415.709,291.643c-4.18,0-5.949-2.905-5.949-5.767V265.925h5.119v5.516h3.855v4.135h-3.855v9.984a1.589,1.589,0,0,0,1.77,1.817h2.085v4.266h-3.026" transform="translate(-52.145 -21.279)" fill="#fff"/>
        <path id="Path_65" data-name="Path 65" d="M437.121,289.182a4.253,4.253,0,0,0,4.537,4.545,5.784,5.784,0,0,0,4.7-1.925l3.163,3.013a10.112,10.112,0,0,1-7.9,3.222c-4.9,0-9.593-2.674-9.593-10.469,0-6.664,4.1-10.431,9.479-10.431,5.467,0,8.609,4.409,8.609,10.2v1.847H437.121m4.161-7.811a3.929,3.929,0,0,0-3.669,2.119,5.284,5.284,0,0,0-.492,2.2h7.889C444.91,283.49,443.912,281.371,441.282,281.371Z" transform="translate(-64.137 -27.317)" fill="#fff"/>
        <path id="Path_66" data-name="Path 66" d="M374.836,282.014c1.5,0,2.125.742,2.125,1.947v14.151h5.12V283.931c0-2.873-1.531-6.046-6.027-6.046l-10.577-.006v20.233H370.6v-16.1Z" transform="translate(-28.295 -27.717)" fill="#fff"/>
        <g id="Group_50" data-name="Group 50" transform="translate(397.636 241.765)">
          <path id="Path_67" data-name="Path 67" d="M498.539,263.789a2.055,2.055,0,1,1,2.063-2.055A2.044,2.044,0,0,1,498.539,263.789Zm0-3.767a1.708,1.708,0,1,0,1.717,1.712A1.726,1.726,0,0,0,498.539,260.023Zm.911,2.943h-.384a.087.087,0,0,1-.078-.052l-.519-.883a.153.153,0,0,0-.073-.04h-.238v.88a.091.091,0,0,1-.087.095h-.346a.094.094,0,0,1-.086-.095v-2.22c0-.13.043-.183.156-.2s.449-.03.63-.03c.64,0,1.016.188,1.016.783v.043a.623.623,0,0,1-.462.656l.541.921a.168.168,0,0,1,.013.065A.073.073,0,0,1,499.45,262.966Zm-.5-1.761c0-.248-.154-.327-.484-.327h-.327v.7c.052,0,.284.011.327.011.33,0,.484-.11.484-.345Z" transform="translate(-496.492 -259.68)" fill="#fff"/>
        </g>
      </g>
    </g>
  </g>
</svg>
