<svg xmlns="http://www.w3.org/2000/svg" width="160" height="29.585" viewBox="0 0 160 29.585">
  <g id="Group_91" data-name="Group 91" transform="translate(-1134 -3664)">
    <g id="Group_49" data-name="Group 49" transform="translate(1086.364 3454.543)">
      <g id="Group_48" data-name="Group 48" transform="translate(84.123 216.496)">
        <path id="Path_52" data-name="Path 52" d="M175.369,228.994v1.025h-.641c-2.4,0-3.074.736-3.074,3.33v12.841c0,2.594.672,3.33,3.074,3.33h.641v1.026H163.52v-1.026h.641c2.4,0,3.074-.736,3.074-3.33v-13.93h-.064l-8.582,18.286H157.6l-8.615-17.966h-.065v13.61c0,2.594.673,3.33,3.074,3.33h.449v1.026h-8.614v-1.026h.447c2.37,0,3.043-.736,3.043-3.33V233.35c0-2.595-.673-3.33-3.043-3.33h-.48v-1.025h8.326l7.461,15.66,7.4-15.66Z" transform="translate(-143.794 -228.609)" fill="#fff"/>
        <path id="Path_53" data-name="Path 53" d="M235.717,252.279c-2.818.96-2.626.865-3.554,1.441a3.349,3.349,0,0,0-1.058,1.057,2.374,2.374,0,0,0-.288,1.152,2.274,2.274,0,0,0,2.049,2.435,5.633,5.633,0,0,0,3.043-1.537v-4.613Zm6.853,6.02a7.806,7.806,0,0,1-1.633,1.826,4.109,4.109,0,0,1-2.593.992,2.279,2.279,0,0,1-2.434-2.338v-.353a13.9,13.9,0,0,1-3.3,2.242,3.947,3.947,0,0,1-1.825.448c-2.209,0-3.618-1.6-3.618-4.068a4.075,4.075,0,0,1,1.152-2.818,11.4,11.4,0,0,1,4.451-2.338l2.882-.96.255-.1v-2.019c0-1.7-.608-2.337-2.273-2.337-1.409,0-2.242.577-2.242,1.6a3.586,3.586,0,0,0,.032.449v.158a1.667,1.667,0,1,1-3.331.1c0-2.114,2.434-3.587,5.861-3.587a7.638,7.638,0,0,1,4.642,1.217,3.254,3.254,0,0,1,1.153,2.722v7.591a5.132,5.132,0,0,0,.1,1.472.6.6,0,0,0,.225.352.506.506,0,0,0,.383.129,2.533,2.533,0,0,0,1.6-1.121Z" transform="translate(-195.044 -238.572)" fill="#fff"/>
        <path id="Path_54" data-name="Path 54" d="M273.936,247.412a7.741,7.741,0,0,1,5.092-2.21,4.185,4.185,0,0,1,4.068,2.5,11.628,11.628,0,0,1,.416,4.033v5.445c0,1.825.385,2.3,1.794,2.3h.289v1.025h-7.91v-1.025h.16c1.441,0,1.825-.48,1.825-2.3v-5.188c0-2.244-.1-2.787-.48-3.4a2.08,2.08,0,0,0-1.7-.864,5.711,5.711,0,0,0-3.555,1.409v8.039c0,1.825.385,2.3,1.794,2.3h.513v1.025h-8.167v-1.025h.191c1.409,0,1.794-.48,1.794-2.3v-6.566a6.8,6.8,0,0,0-.255-2.466,1.235,1.235,0,0,0-1.185-.736,2.091,2.091,0,0,0-.577.064v-1.154l4.547-1.12h1.345Z" transform="translate(-220.171 -238.572)" fill="#fff"/>
        <path id="Path_55" data-name="Path 55" d="M329.08,256.855l.032,1.345c.031,1.056.352,1.5,1.12,1.5a4.928,4.928,0,0,0,.961-.191v1.09l-4.707,1.537h-1.281V259.9a8.034,8.034,0,0,1-5.124,2.242A4.205,4.205,0,0,1,315.887,259a12.913,12.913,0,0,1-.257-3.652v-5.188c0-1.665-.384-2.273-1.538-2.273v-1.026h5.413v9.031c0,2.049.16,2.625.8,3.171a2.246,2.246,0,0,0,1.537.544,4.134,4.134,0,0,0,2.209-.673,5.206,5.206,0,0,0,1.153-.736v-8.039c0-1.792-.384-2.273-1.794-2.273h-.672v-1.026h6.341Z" transform="translate(-248.477 -239.593)" fill="#fff"/>
        <path id="Path_56" data-name="Path 56" d="M364.74,246.6c0,1.761.384,2.3,1.7,2.3h.1v1.025h-7.558v-1.025h.1c1.442,0,1.794-.48,1.794-2.3V233.312a8.827,8.827,0,0,0-.192-2.69,1.226,1.226,0,0,0-1.185-.8H359.2a.56.56,0,0,0-.193.032l-.191-1.058,4.611-.8h1.313Z" transform="translate(-275.97 -227.995)" fill="#fff"/>
        <path id="Path_57" data-name="Path 57" d="M384.6,232.609A2.306,2.306,0,1,1,386.9,230.3a2.3,2.3,0,0,1-2.306,2.306m-4.355,17.324v-1.025h.512c1.409,0,1.794-.481,1.794-2.3v-6.694a6.554,6.554,0,0,0-.257-2.465,1.213,1.213,0,0,0-1.185-.769,1.691,1.691,0,0,0-.673.128l-.255-1.056,4.9-1.121h1.343V246.6c0,1.824.385,2.3,1.795,2.3h.32v1.025Z" transform="translate(-289.102 -227.996)" fill="#fff"/>
        <path id="Path_58" data-name="Path 58" d="M403.871,249.933v-1.025h.64c1.409,0,1.793-.481,1.793-2.3v-9.512h-2.433v-1.826H406.3v-.48c0-3.938,3.011-6.789,7.142-6.789,2.082,0,3.46.929,3.46,2.37a1.743,1.743,0,0,1-1.891,1.794,2.046,2.046,0,0,1-1.664-1.121l-.321-.448a1.4,1.4,0,0,0-1.28-.832,1.474,1.474,0,0,0-1.441,1.313,7.739,7.739,0,0,0-.159,2.05v2.145H413v1.826h-2.848V246.6c0,1.824.383,2.3,1.824,2.3H413v1.025Z" transform="translate(-303.665 -227.996)" fill="#fff"/>
        <path id="Path_59" data-name="Path 59" d="M438.518,250.293v-.257c0-2.08-.992-3.426-2.5-3.426-1.729,0-2.915,1.41-3.106,3.682Zm4.388,5.22a8.778,8.778,0,0,1-2.339,3.779,6.125,6.125,0,0,1-4.386,1.826c-3.94,0-6.725-3.3-6.725-8.006,0-4.74,2.818-7.911,7.013-7.911,3.778,0,6.244,2.531,6.244,6.374v.352h-9.768c.225,3.426,2.21,5.8,4.869,5.8a5.04,5.04,0,0,0,4.323-2.657Z" transform="translate(-319.392 -238.572)" fill="#fff"/>
      </g>
      <path id="Path_60" data-name="Path 60" d="M73.427,232.559l-4.349,4.212v-17.1l4.349-4.211Zm-7.181.052L61.9,236.822v-17.1l4.349-4.211Zm-7.145.008-4.349,4.211v-17.1l4.349-4.212Zm17.614-23.162H47.636v28.976H76.714Z" fill="#fff"/>
    </g>
  </g>
</svg>
