<svg xmlns="http://www.w3.org/2000/svg" width="24" height="24" viewBox="0 0 24 24">
  <path id="Path_87" data-name="Path 87" d="M15.7,5.7l2.049-3.37A1.5,1.5,0,0,0,16.5,0H7.509A1.5,1.5,0,0,0,6.262,2.333L8.3,5.7c-8.737,5.576-8.3,12.69-8.3,13.611A4.93,4.93,0,0,0,5.147,24H18.858A4.93,4.93,0,0,0,24,19.313c0-.9.388-8.063-8.3-13.611ZM7.509,1.5H16.5L14.2,5.25H9.806ZM22.5,19.313A3.441,3.441,0,0,1,18.861,22.5H5.147a3.441,3.441,0,0,1-3.642-3.188v-.158c-.044-2.806.938-8.109,7.918-12.405h5.161c6.964,4.287,7.954,9.607,7.918,12.422ZM13.39,14.566l-2.3-.682a.652.652,0,0,1-.449-.641.636.636,0,0,1,.6-.666H12.68a1.255,1.255,0,0,1,.653.188.418.418,0,0,0,.516-.035l.6-.57a.4.4,0,0,0-.03-.609,2.959,2.959,0,0,0-1.6-.57v-.825a.407.407,0,0,0-.408-.4H11.59a.407.407,0,0,0-.408.4v.818A2.261,2.261,0,0,0,9,13.248a2.287,2.287,0,0,0,1.612,2.191l2.3.682a.652.652,0,0,1,.449.641.637.637,0,0,1-.6.667H11.325a1.253,1.253,0,0,1-.653-.188.418.418,0,0,0-.516.036l-.6.565a.4.4,0,0,0,.03.609,2.963,2.963,0,0,0,1.6.57v.823a.407.407,0,0,0,.408.4h.816a.407.407,0,0,0,.408-.4v-.813a2.285,2.285,0,0,0,.572-4.465Z" transform="translate(-0.002)" fill="#167ffc"/>
</svg>
