<svg width="25" height="18" viewBox="0 0 25 18" fill="none" xmlns="http://www.w3.org/2000/svg">
<path d="M8.34958 17.5454C8.34958 16.9869 8.34958 16.4596 8.34958 15.9323C8.34958 15.4372 8.05176 15.1043 7.61724 15.1043C7.18272 15.1043 6.88783 15.4382 6.88686 15.9343C6.88686 16.4615 6.88686 16.9888 6.88686 17.5327C6.78921 17.5376 6.7111 17.5444 6.63201 17.5444C4.71231 17.5444 2.79196 17.5444 0.870962 17.5444C0.285093 17.5444 0.000946164 17.2671 0.000946164 16.6822C0.000946164 15.8932 0.000946164 15.1039 0.000946164 14.3143C0.000946164 13.7861 0.2392 13.5332 0.77234 13.4765C1.42363 13.4121 1.88842 12.9756 1.94408 12.3741C1.97147 12.0878 1.89657 11.8011 1.73265 11.5648C1.56874 11.3285 1.32642 11.1579 1.04868 11.0833C0.945929 11.0601 0.841397 11.0457 0.736211 11.0403C0.271422 10.9954 0.00192282 10.7093 0.00192282 10.2377C0.00192282 9.43306 0.00192282 8.62782 0.00192282 7.82192C0.00192282 7.27023 0.254823 6.99878 0.804563 6.95776C1.05828 6.94494 1.30147 6.85231 1.49944 6.6931C1.6974 6.53388 1.84003 6.31622 1.90697 6.07115C1.98004 5.82764 1.97193 5.56698 1.88386 5.32849C1.79579 5.08999 1.63254 4.88662 1.41875 4.74904C1.20757 4.6314 0.975333 4.55642 0.735236 4.52836C0.275329 4.46294 0.00485184 4.20125 0.00387539 3.7472C-3.04031e-05 2.90941 -3.04031e-05 2.07129 0.00387539 1.23285C0.00387539 0.771966 0.308527 0.460479 0.764529 0.459502C2.75844 0.459502 4.75202 0.459502 6.74527 0.459502C6.78433 0.459502 6.82339 0.459503 6.88784 0.469267C6.88784 1.03854 6.88002 1.59804 6.88784 2.15657C6.88465 2.28344 6.91489 2.40892 6.97552 2.52041C7.03615 2.6319 7.12504 2.72549 7.23327 2.79177C7.3415 2.85805 7.46525 2.8947 7.59212 2.89804C7.71899 2.90138 7.8445 2.87129 7.95607 2.81079C8.08045 2.74701 8.18359 2.64844 8.25294 2.52708C8.32229 2.40572 8.35485 2.26681 8.34665 2.12728L8.35251 0.516137C8.35632 0.495714 8.36121 0.475506 8.36715 0.455597H24.1417C24.7148 0.455597 24.999 0.736814 24.999 1.30511C24.999 6.43927 24.999 11.5738 24.999 16.7086C24.999 17.2486 24.7061 17.5434 24.1758 17.5434H8.34958V17.5454ZM13.513 12.6134C13.4916 13.2676 14.0598 13.622 14.5988 13.3496C15.2345 13.0283 15.8546 12.6973 16.4756 12.3614C16.5287 12.3272 16.5906 12.309 16.6538 12.309C16.717 12.309 16.7788 12.3272 16.832 12.3614C17.4328 12.6869 18.0366 13.0046 18.6433 13.3144C18.7562 13.3776 18.8802 13.4187 19.0085 13.4355C19.5328 13.4824 19.8648 13.0449 19.7643 12.4522C19.652 11.7873 19.5436 11.1213 19.4176 10.4593C19.4043 10.4018 19.408 10.3418 19.4281 10.2863C19.4482 10.2309 19.4839 10.1824 19.5309 10.1468C20.0347 9.66188 20.536 9.17365 21.0346 8.68217C21.2621 8.45954 21.3568 8.19395 21.2475 7.88441C21.1381 7.57488 20.9135 7.43818 20.605 7.39033C19.9127 7.29269 19.2204 7.19504 18.531 7.08568C18.4758 7.07259 18.4237 7.04856 18.3779 7.01502C18.3322 6.98148 18.2936 6.9391 18.2644 6.89039C17.9471 6.27718 17.6434 5.65714 17.3427 5.03514C17.1982 4.7422 16.9833 4.55473 16.6435 4.55668C16.3037 4.55863 16.0928 4.75197 15.9502 5.0449C15.6554 5.66007 15.3536 6.2723 15.0392 6.87867C15.0122 6.92836 14.9754 6.97211 14.9311 7.00734C14.8868 7.04256 14.8359 7.06853 14.7814 7.08373C14.107 7.19634 13.432 7.29627 12.7563 7.3835C12.4204 7.42646 12.1704 7.56121 12.0542 7.89418C11.938 8.22715 12.0689 8.49274 12.3101 8.72416C12.7504 9.14696 13.1723 9.58832 13.6273 9.99354C13.8558 10.1976 13.9124 10.391 13.8499 10.6878C13.7103 11.344 13.6146 12.0158 13.513 12.6134ZM8.34958 6.3758C8.34958 6.02623 8.35544 5.67764 8.34958 5.32905C8.35113 5.23334 8.33365 5.13828 8.29816 5.04939C8.26266 4.96049 8.20986 4.87953 8.14281 4.81122C8.07577 4.7429 7.99582 4.68859 7.90761 4.65143C7.81939 4.61427 7.72468 4.59501 7.62896 4.59476C7.53117 4.59179 7.4338 4.60885 7.34284 4.64488C7.25188 4.68091 7.16925 4.73517 7.10003 4.8043C7.0308 4.87344 6.97644 4.95599 6.94029 5.04691C6.90413 5.13782 6.88695 5.23516 6.88979 5.33295C6.88263 6.02233 6.88263 6.71203 6.88979 7.40205C6.88759 7.49951 6.90474 7.59645 6.94025 7.68724C6.97576 7.77803 7.02893 7.86088 7.09667 7.93099C7.16442 8.00109 7.2454 8.05707 7.33492 8.09567C7.42444 8.13427 7.52073 8.15473 7.61822 8.15587C7.71588 8.15422 7.81226 8.13328 7.9018 8.09426C7.99135 8.05523 8.0723 7.99889 8.13999 7.92847C8.20769 7.85806 8.26079 7.77495 8.29626 7.68394C8.33173 7.59292 8.34885 7.4958 8.34665 7.39814C8.35446 7.05736 8.34958 6.71658 8.34958 6.3758ZM6.88686 11.6369C6.88686 11.9777 6.88198 12.3204 6.88686 12.6592C6.88369 12.7569 6.90032 12.8541 6.93575 12.9452C6.97118 13.0362 7.02468 13.1191 7.09302 13.1889C7.16136 13.2587 7.24313 13.314 7.33339 13.3513C7.42365 13.3886 7.52054 13.4073 7.61822 13.4062C7.71603 13.4071 7.813 13.3881 7.90325 13.3504C7.9935 13.3127 8.07516 13.257 8.14326 13.1868C8.21137 13.1166 8.26452 13.0333 8.29948 12.9419C8.33444 12.8506 8.35048 12.7531 8.34665 12.6553C8.35251 11.9738 8.35251 11.2903 8.34665 10.6048C8.35016 10.5071 8.33426 10.4096 8.29985 10.3181C8.26543 10.2266 8.2132 10.1428 8.14618 10.0716C8.07915 10.0004 7.99867 9.94317 7.90938 9.90329C7.8201 9.86342 7.72379 9.84165 7.62603 9.83926C7.21494 9.83243 6.89076 10.1664 6.8849 10.6097C6.88295 10.9534 6.88686 11.2961 6.88686 11.6369Z" fill="url(#paint0_linear_1386:590)"/>
<defs>
<linearGradient id="paint0_linear_1386:590" x1="24.999" y1="17.5454" x2="9.07479" y2="-5.74769" gradientUnits="userSpaceOnUse">
<stop stop-color="#2582EF"/>
<stop offset="1" stop-color="#8CC8FF"/>
</linearGradient>
</defs>
</svg>
