<svg xmlns="http://www.w3.org/2000/svg" width="96.009" height="80.117" viewBox="0 0 96.009 80.117">
  <g id="Group_90" data-name="Group 90" transform="translate(-950 -3638)">
    <g id="Group_47" data-name="Group 47" transform="translate(942.08 3628.785)">
      <g id="Group_45" data-name="Group 45" transform="translate(18.409 9.215)">
        <path id="Path_24" data-name="Path 24" d="M15.943,22.072s.663-3,1.974-3.832,1.292.533,1.7,1.188,1.4,1.71,5.116.983,7.52-3.79,11.154-.886,4.915,3.968,4.915,3.968,2.956,1.332-1.119,3.781L35.61,29.722s.605.788-8.385-2.026c0,0-4.227,1.416-4.991,2.713s-.791-.158-.633-.95.3-3.568,2.808-4.345a17.752,17.752,0,0,1,9.949.356c2.788,1.131,2.212-.792,1.952-.945s-2.871-1.612-3.113-2.6-4.547-.584-5.846-.056-4.96,1.578-4.96,1.578S17.916,25.7,15.943,22.072Z" transform="translate(-15.943 -6.521)" fill="#fff"/>
        <path id="Path_25" data-name="Path 25" d="M37.825,18.069s-3.472-2.162-2.605,1.34c0,0-.784,4.963,4.108,4.138S62.665,21.609,65.1,25.495l2.268,2.621,1.523-5.149a3.686,3.686,0,0,0-2.11-2.654c-1.773-.688-15.211-2.629-20.944-.233S39.159,20.251,37.825,18.069Z" transform="translate(-10.062 -6.697)" fill="#fff"/>
        <path id="Path_26" data-name="Path 26" d="M75.247,30.517s.88.107.509-1.717-2.269-5.2-4.882-1.786S65.6,41.747,65.6,41.747s-1.166,4.457.354,7.036c0,0,3.257-17.692,7.639-18.6A3.243,3.243,0,0,1,75.247,30.517Z" transform="translate(-0.814 -4.195)" fill="#fff"/>
        <path id="Path_27" data-name="Path 27" d="M52.494,26.363s-5.144.15-6.506,1.652-4.535-.885-1.4-2.2a11.158,11.158,0,0,1,7.114-.363c.911.263,1.958.579,1.958.579S54.09,26.246,52.494,26.363Z" transform="translate(-7.551 -4.355)" fill="#fff"/>
        <path id="Path_28" data-name="Path 28" d="M55.617,42.28s1.311-.825.412-1.394-1.166.242-1.506.2a1.012,1.012,0,0,1-.956-.626c-.178-.434-.945-.407-1.209-.043a6.064,6.064,0,0,1-2.513,1c-.362-.03-1.632-.1-1.632-.1a1.713,1.713,0,0,0,1.383.941c.98.061,2.334-.749,2.936-.473A5.587,5.587,0,0,0,55.617,42.28Z" transform="translate(-6.026 0.289)" fill="#fff"/>
        <path id="Path_29" data-name="Path 29" d="M54.772,42.842a6.014,6.014,0,0,1-3.424,0c-1.5-.6-1.228.058-1.052.493s2.774,1.429,3.5,1.035S55.738,43.185,54.772,42.842Z" transform="translate(-5.429 1.044)" fill="#fff"/>
        <path id="Path_30" data-name="Path 30" d="M65.4,33.353c.387-1.438,2.092-1.924,1.333.9s-1.28,7.921-7.752,16.666c0,0-2.587,4.108-5.268,3.391s-11.052-2.437-11.9-5.807c0,0-.72-1.736,1.371-.051s7.909,4.475,10.269,3.8,4.759-.038,7.734-7A69.448,69.448,0,0,0,65.4,33.353Z" transform="translate(-8.028 -2.151)" fill="#fff"/>
        <path id="Path_31" data-name="Path 31" d="M37.077,38.645s-.231,2.072-.965.175c0,0-1.523-4.377-1.539-6.113s-.676-5.436,1.093-3.693.7,3.557.7,5.614A13.532,13.532,0,0,0,37.077,38.645Z" transform="translate(-10.259 -3.27)" fill="#fff"/>
        <path id="Path_32" data-name="Path 32" d="M38.788,43.606a7.677,7.677,0,0,0-2.964-3.247,11.084,11.084,0,0,0,.008-3.033,14.917,14.917,0,0,0-1.086-2.962,29.962,29.962,0,0,0-1.469,4.688,10.813,10.813,0,0,0-2.032-.574c-3.624-.622-.892,3.013-.892,3.013a10.088,10.088,0,0,1,2.412-.114,69.146,69.146,0,0,0-1.076,7.977c-.5.22-1.026.459-1.6.741-5.618,2.753-2.3,6.476-2.077,7.456s1.442,1.113,1.683.5-.242-2.2-.092-4.521c.065-.952.863-1.672,1.964-2.31-.11,1.981-.17,4.108-.136,6.432,0,0,.58,4.208,1.683-.8.378-1.706.879-4.285,1.358-7.018a22.3,22.3,0,0,0,2.451-1.221C39.617,46.976,39.5,45.569,38.788,43.606Zm-4.021,4.481c.333-2,.633-3.991.845-5.735a3.22,3.22,0,0,1,1.164,1.879C37.321,46.667,36.726,47.262,34.767,48.087Z" transform="translate(-12.595 -1.487)" fill="#fff"/>
        <path id="Path_33" data-name="Path 33" d="M34.29,30.905a9.263,9.263,0,0,1-3.4,5.317s-2.621,1.031-.482-2.286c1.358-1.188,2.25-1.114,3.072-2.6S34.29,30.905,34.29,30.905Z" transform="translate(-11.756 -2.662)" fill="#fff"/>
        <path id="Path_34" data-name="Path 34" d="M51.129,28.8a7.392,7.392,0,0,1,1.482.263c0-.762.354-.429-1.673-1.03s-4.53-.654-5.309,1.2,1.139,1.3,1.139,1.3a3.74,3.74,0,0,1,1.273-1.162c.18-.1.276.013.162.183a1.257,1.257,0,0,0,.371,1.947,1.288,1.288,0,0,0,1.977-.362,1.975,1.975,0,0,0,.273-1.839C50.735,29.094,50.889,28.78,51.129,28.8Z" transform="translate(-6.877 -3.546)" fill="#fff"/>
        <path id="Path_35" data-name="Path 35" d="M62.318,28.492c.634-.186,1-.548-.4-.96s-5.489,1.039-5.216,8.352-2,5.729-4.088,5.569c-1.184-.122-2.735-1.038-2.068.3a1.355,1.355,0,0,0,1.961.582s1.412.112,3.106.157,2.437-4.228,2.63-7.445a14.09,14.09,0,0,1,.3-3.386,1.43,1.43,0,0,0,1.939.741,1.372,1.372,0,0,0,.6-1.99c-.25-.561-.278-.732-.729-.9A2.83,2.83,0,0,1,62.318,28.492Z" transform="translate(-5.358 -3.605)" fill="#fff"/>
        <path id="Path_36" data-name="Path 36" d="M62.446,48.995s.5-5.791,3.472-2.475c0,0,1.173,1.437.3,1.549s-1.605-.259-2.343,2.111-1.388,4.833-2.8,6.782a25.961,25.961,0,0,0-2.358,4.028s-1.527,1.375-1.059-1.228,1.5-5.333,3.76-6.27S62.446,48.995,62.446,48.995Z" transform="translate(-3.151 1.934)" fill="#fff"/>
        <path id="Path_37" data-name="Path 37" d="M67.26,51.993s-3.42,2.556-3.059,4.42-2.7-1.175-1.841-2.52S66.578,50.955,67.26,51.993Z" transform="translate(-1.725 3.829)" fill="#fff"/>
        <path id="Path_38" data-name="Path 38" d="M66.737,49.521s-1.294,1.672-1.752,1.615a1.208,1.208,0,0,1-.45-1.885c.59-.969,1.868-.667,2.141-.813s.205.595.205.595Z" transform="translate(-1.087 2.833)" fill="#fff"/>
        <path id="Path_39" data-name="Path 39" d="M61.444,15.877s.035,3.591-2.59,1.214l-.613-3s-.06-1.92.924-.716S61.444,15.877,61.444,15.877Z" transform="translate(-2.945 -8.058)" fill="#fff"/>
        <path id="Path_40" data-name="Path 40" d="M56.485,16.826s1.752,1.822,1.638-1.416-2.089-2.753-3.608-3.662a16.812,16.812,0,0,1-2.592-1.91s-3.5-1.609-.98,1.214S56.358,14.73,56.485,16.826Z" transform="translate(-5.468 -9.164)" fill="#fff"/>
        <path id="Path_41" data-name="Path 41" d="M54.973,17.715s-.009,1.9-1.885.66-4.557-4.015-5.326-4.242-5.807-1.733-6.394-2.318-3.03-3.659.047-2.221A6.454,6.454,0,0,0,43.4,10.1c.939-.335,1.5-.7,3.834,1.97,1.221,1.275,2.063,1.523,3.34,1.065s2.476.021,3.581,2.646S54.973,17.715,54.973,17.715Z" transform="translate(-8.583 -9.215)" fill="#fff"/>
      </g>
      <g id="Group_46" data-name="Group 46" transform="translate(7.92 77.658)">
        <path id="Path_42" data-name="Path 42" d="M7.92,73.048V61.569h3.509a12.117,12.117,0,0,1,2.6.173,2.858,2.858,0,0,1,1.56,1.123,3.709,3.709,0,0,1,.629,2.235,3.95,3.95,0,0,1-.362,1.779,3.113,3.113,0,0,1-2.052,1.675,11.863,11.863,0,0,1-2.273.163H10.108v4.331Zm2.188-9.536v3.258h1.2a5.3,5.3,0,0,0,1.731-.183,1.436,1.436,0,0,0,.682-.562,1.61,1.61,0,0,0,.248-.893,1.543,1.543,0,0,0-.349-1.035,1.48,1.48,0,0,0-.879-.506,9.482,9.482,0,0,0-1.578-.078Z" transform="translate(-7.92 -61.569)" fill="#fff"/>
        <path id="Path_43" data-name="Path 43" d="M15.65,73.048V61.569h4.6a7.4,7.4,0,0,1,2.524.311,2.531,2.531,0,0,1,1.263,1.1,3.45,3.45,0,0,1,.472,1.808,3.18,3.18,0,0,1-.716,2.136,3.393,3.393,0,0,1-2.143,1.059,5.041,5.041,0,0,1,1.169.962,13.159,13.159,0,0,1,1.247,1.863l1.323,2.241H22.777L21.2,70.55a16.381,16.381,0,0,0-1.154-1.686,1.648,1.648,0,0,0-.662-.477,3.31,3.31,0,0,0-1.1-.131h-.444v4.793Zm2.188-6.625h1.617a8.048,8.048,0,0,0,1.966-.14,1.2,1.2,0,0,0,.617-.484,1.6,1.6,0,0,0,.22-.863A1.43,1.43,0,0,0,21.967,64a1.319,1.319,0,0,0-.825-.447q-.267-.039-1.6-.039H17.838Z" transform="translate(-5.544 -61.569)" fill="#fff"/>
        <path id="Path_44" data-name="Path 44" d="M24,61.569h2.186v6.216a13.583,13.583,0,0,0,.084,1.917,1.9,1.9,0,0,0,.669,1.136,2.255,2.255,0,0,0,1.447.425,2.119,2.119,0,0,0,1.4-.4,1.606,1.606,0,0,0,.566-.99,13.463,13.463,0,0,0,.1-1.952v-6.35h2.187V67.6a16.357,16.357,0,0,1-.176,2.921A3.117,3.117,0,0,1,30.531,72.9a5.231,5.231,0,0,1-2.085.348,5.707,5.707,0,0,1-2.353-.379,3.356,3.356,0,0,1-1.268-.987,3.231,3.231,0,0,1-.613-1.273A14.748,14.748,0,0,1,24,67.694Z" transform="translate(-2.979 -61.569)" fill="#fff"/>
        <path id="Path_45" data-name="Path 45" d="M32.366,61.569h4a7.455,7.455,0,0,1,2.066.22,3.607,3.607,0,0,1,1.632,1.058A5.088,5.088,0,0,1,41.1,64.705a8.9,8.9,0,0,1,.354,2.711,7.927,7.927,0,0,1-.332,2.443,5.1,5.1,0,0,1-1.161,2.03,3.806,3.806,0,0,1-1.537.915,6.27,6.27,0,0,1-1.937.243H32.366Zm2.19,1.944v7.6h1.633A5.516,5.516,0,0,0,37.513,71a1.971,1.971,0,0,0,.882-.477,2.448,2.448,0,0,0,.571-1.11,7.81,7.81,0,0,0,.224-2.1,7.187,7.187,0,0,0-.224-2.043,2.633,2.633,0,0,0-.62-1.111,2.016,2.016,0,0,0-1.011-.541,9.441,9.441,0,0,0-1.8-.109Z" transform="translate(-0.407 -61.569)" fill="#fff"/>
        <path id="Path_46" data-name="Path 46" d="M40.734,73.048V61.569H48.77v1.944H42.924v2.541h5.442v1.936H42.924v3.122h6.053v1.936Z" transform="translate(2.164 -61.569)" fill="#fff"/>
        <path id="Path_47" data-name="Path 47" d="M48.477,73.048V61.569H50.6l4.437,7.666V61.569h2.032V73.048H54.88l-4.37-7.487v7.487Z" transform="translate(4.544 -61.569)" fill="#fff"/>
        <path id="Path_48" data-name="Path 48" d="M59.445,73.048V63.513H56.229V61.569h8.613v1.944H61.635v9.536Z" transform="translate(6.926 -61.569)" fill="#fff"/>
        <path id="Path_49" data-name="Path 49" d="M63.847,73.048V61.569h2.188V73.048Z" transform="translate(9.267 -61.569)" fill="#fff"/>
        <path id="Path_50" data-name="Path 50" d="M77.149,73.048H74.766l-.944-2.608H69.489L68.6,73.048H66.272L70.5,61.569h2.313Zm-4.03-4.543-1.493-4.259L70.16,68.506Z" transform="translate(10.012 -61.569)" fill="#fff"/>
        <path id="Path_51" data-name="Path 51" d="M75.525,73.027V61.64h2.187v9.451h5.441v1.936Z" transform="translate(12.856 -61.547)" fill="#fff"/>
      </g>
    </g>
  </g>
</svg>
