<svg xmlns="http://www.w3.org/2000/svg" width="16" height="14" viewBox="0 0 16 14">
  <path id="Path_69" data-name="Path 69" d="M14.5,39H12V37a2,2,0,0,1,2-2h.25a.748.748,0,0,0,.75-.75v-1.5a.748.748,0,0,0-.75-.75H14a5,5,0,0,0-5,5v7.5A1.5,1.5,0,0,0,10.5,46h4A1.5,1.5,0,0,0,16,44.5v-4A1.5,1.5,0,0,0,14.5,39Zm-9,0H3V37a2,2,0,0,1,2-2h.25A.748.748,0,0,0,6,34.25v-1.5A.748.748,0,0,0,5.25,32H5a5,5,0,0,0-5,5v7.5A1.5,1.5,0,0,0,1.5,46h4A1.5,1.5,0,0,0,7,44.5v-4A1.5,1.5,0,0,0,5.5,39Z" transform="translate(0 -32)" fill="#167ffc"/>
</svg>
