<svg width="25" height="18" viewBox="0 0 25 18" fill="none" xmlns="http://www.w3.org/2000/svg">
<g clip-path="url(#clip0_1386:592)">
<path d="M7.91737 13.5837C7.91737 13.7222 7.92466 13.8607 7.91737 14.0003C7.91737 14.1108 7.87347 14.2168 7.79534 14.2949C7.7172 14.3731 7.61122 14.417 7.50072 14.417C7.4464 14.4181 7.39241 14.4083 7.34191 14.3883C7.2914 14.3683 7.2454 14.3384 7.2066 14.3004C7.1678 14.2623 7.13697 14.2169 7.11593 14.1668C7.09489 14.1168 7.08406 14.063 7.08407 14.0086C7.07366 13.7243 7.07262 13.4389 7.08407 13.1545C7.08444 13.0997 7.09587 13.0455 7.11769 12.9952C7.1395 12.9449 7.17125 12.8995 7.21104 12.8617C7.25082 12.824 7.29782 12.7947 7.3492 12.7755C7.40059 12.7564 7.45532 12.7478 7.5101 12.7504C7.61609 12.7511 7.71769 12.7929 7.79361 12.8668C7.86952 12.9408 7.91387 13.0413 7.91737 13.1472C7.92883 13.2931 7.91737 13.4399 7.91737 13.5868V13.5837Z" fill="url(#paint0_linear_1386:592)"/>
<path d="M17.5003 13.5962C17.5003 13.7347 17.5076 13.8732 17.5003 14.0128C17.497 14.1211 17.4517 14.2239 17.3739 14.2994C17.2961 14.3748 17.192 14.417 17.0836 14.417C16.9783 14.4175 16.8769 14.3769 16.8012 14.3037C16.7255 14.2305 16.6814 14.1306 16.6784 14.0253C16.6649 13.7326 16.6649 13.4378 16.6784 13.1451C16.6808 13.0405 16.7238 12.9408 16.7982 12.8672C16.8726 12.7936 16.9727 12.7517 17.0774 12.7504C17.1859 12.7503 17.2902 12.7926 17.368 12.8683C17.4458 12.944 17.491 13.0471 17.494 13.1556C17.5076 13.3024 17.5003 13.4493 17.5003 13.5962Z" fill="url(#paint1_linear_1386:592)"/>
<path fill-rule="evenodd" clip-rule="evenodd" d="M12.5266 0.667542H23.9845C24.6938 0.667542 25 0.971696 25 1.67687V16.3377C25 17.0283 24.6876 17.3335 23.997 17.3335H1.00314C0.313586 17.3335 0.00109863 17.021 0.00109863 16.3367V1.64979C0.00109863 0.975862 0.313586 0.667542 0.990641 0.667542H12.5266ZM8.3497 1.92582V11.065H10.8142V1.92478L8.3497 1.92582ZM3.31554 11.0723V1.93103H1.68228V11.0723H3.31554ZM21.6856 1.92999V11.0723H23.3189V1.92999H21.6856ZM5.85293 1.92478V11.0661H7.47786V1.92478H5.85293ZM14.9796 11.0702V1.93832H13.3464V11.0702H14.9796ZM19.1753 11.064H20.8127V1.93207H19.1784L19.1753 11.064ZM4.98005 11.0702V1.93832H4.17696V11.0702H4.98005ZM12.4797 11.0702V1.93103H11.6819V11.0723L12.4797 11.0702ZM16.6462 11.0702V1.93832H15.8463V11.0702H16.6462ZM18.3128 11.0702V1.93832H17.5108V11.0702H18.3128ZM8.75073 13.592C8.75073 13.5399 8.75131 13.4878 8.75189 13.4358V13.4357C8.75304 13.3316 8.7542 13.2274 8.75073 13.1233C8.73939 12.7994 8.60271 12.4926 8.36951 12.2676C8.13632 12.0425 7.82485 11.9169 7.50078 11.9171C7.17497 11.917 6.86199 12.0441 6.62851 12.2713C6.39504 12.4986 6.25952 12.808 6.25083 13.1337C6.2425 13.4368 6.24146 13.7399 6.25083 14.043C6.26175 14.3635 6.39541 14.6675 6.62418 14.8922C6.85295 15.1169 7.15933 15.2451 7.47995 15.2503C7.805 15.2561 8.11952 15.135 8.35677 14.9127C8.59402 14.6904 8.73534 14.3844 8.75073 14.0597V13.592ZM18.3534 13.6097H18.3326C18.3326 13.5522 18.3335 13.4945 18.3345 13.4367V13.4366V13.4366V13.4365C18.3363 13.3209 18.3382 13.2049 18.3326 13.0889C18.3042 12.7784 18.1607 12.4898 17.9305 12.2796C17.7002 12.0695 17.3997 11.9529 17.0879 11.9529C16.7761 11.9529 16.4756 12.0695 16.2453 12.2796C16.015 12.4898 15.8716 12.7784 15.8431 13.0889C15.8286 13.4181 15.8286 13.7482 15.8431 14.0774C15.8601 14.3749 15.9827 14.6566 16.189 14.8716C16.3952 15.0867 16.6716 15.221 16.9681 15.2503C17.2599 15.279 17.5524 15.2026 17.7929 15.0347C18.0333 14.8668 18.2059 14.6186 18.2795 14.3347C18.3213 14.0951 18.346 13.8528 18.3534 13.6097ZM9.18613 11.9171V12.7577H10.1507C9.79131 13.5649 9.57778 14.3732 9.59236 15.2367H10.3215C10.3678 15.0529 10.412 14.8711 10.4557 14.6909L10.4557 14.6907L10.4557 14.6907C10.5634 14.2471 10.6686 13.8138 10.7975 13.3878C10.852 13.2071 10.9416 13.037 11.0315 12.8662C11.0878 12.7594 11.1442 12.6522 11.1923 12.542C11.335 12.2191 11.1631 11.9275 10.8173 11.9171C10.4605 11.9122 10.1041 11.9138 9.74175 11.9154L9.74119 11.9154C9.55797 11.9163 9.37322 11.9171 9.18613 11.9171ZM20.0003 15.2367C20.0003 14.2764 20.3034 13.4191 20.7492 12.6035C20.7748 12.5583 20.7954 12.5104 20.8106 12.4608C20.8846 12.2181 20.745 11.94 20.4981 11.9337C20.0883 11.9174 19.6779 11.9206 19.2674 11.9238L19.2671 11.9239C19.1008 11.9251 18.9344 11.9264 18.768 11.9264V12.7597H19.7419C19.371 13.5333 19.1747 14.3789 19.167 15.2367H20.0003ZM5.83419 15.244V12.3118C5.8402 12.218 5.80886 12.1256 5.747 12.0548C5.68515 11.9839 5.59779 11.9404 5.50399 11.9337C5.19383 11.9168 4.88261 11.9202 4.5711 11.9236C4.44323 11.925 4.3153 11.9264 4.18738 11.9264V12.7504H5.02068V15.244H5.83419ZM13.3339 15.244V12.3087C13.339 12.2147 13.3067 12.1225 13.244 12.0523C13.1814 11.982 13.0935 11.9394 12.9995 11.9337C12.688 11.9174 12.3754 11.9206 12.0644 11.9239H12.0643L12.0641 11.9239C11.9385 11.9252 11.8131 11.9264 11.6881 11.9264V12.7597H12.5214V15.243L13.3339 15.244ZM13.7672 11.9171V12.7556H14.5921V15.2326H15.4171V12.3285C15.421 12.2778 15.4144 12.2267 15.3977 12.1786C15.3811 12.1305 15.3548 12.0863 15.3205 12.0487C15.2861 12.0112 15.2445 11.981 15.198 11.9602C15.1516 11.9393 15.1014 11.9282 15.0505 11.9275C14.7306 11.9119 14.413 11.9138 14.0917 11.9158H14.0916H14.0914H14.0913C13.9838 11.9164 13.8758 11.9171 13.7672 11.9171ZM3.31004 12.3589V15.291H2.49654V12.7974H1.66324V11.9735C1.79116 11.9735 1.91908 11.972 2.04695 11.9706C2.35847 11.9672 2.66968 11.9638 2.97985 11.9808C3.07365 11.9874 3.161 12.0309 3.22286 12.1018C3.28472 12.1726 3.31606 12.265 3.31004 12.3589ZM23.39 15.291V12.3589C23.396 12.265 23.3647 12.1726 23.3028 12.1018C23.241 12.0309 23.1536 11.9874 23.0598 11.9808C22.7496 11.9638 22.4384 11.9672 22.1269 11.9706C21.999 11.972 21.8711 11.9735 21.7432 11.9735V12.7974H22.5765V15.291H23.39Z" fill="url(#paint2_linear_1386:592)"/>
</g>
<defs>
<linearGradient id="paint0_linear_1386:592" x1="7.92246" y1="14.417" x2="6.5764" y2="13.7335" gradientUnits="userSpaceOnUse">
<stop stop-color="#4F15C4"/>
<stop offset="1" stop-color="#9452FF"/>
</linearGradient>
<linearGradient id="paint1_linear_1386:592" x1="17.5035" y1="14.417" x2="16.1684" y2="13.7478" gradientUnits="userSpaceOnUse">
<stop stop-color="#4F15C4"/>
<stop offset="1" stop-color="#9452FF"/>
</linearGradient>
<linearGradient id="paint2_linear_1386:592" x1="25" y1="17.3335" x2="9.61606" y2="-5.74244" gradientUnits="userSpaceOnUse">
<stop stop-color="#4F15C4"/>
<stop offset="1" stop-color="#9452FF"/>
</linearGradient>
<clipPath id="clip0_1386:592">
<rect width="25" height="16.667" fill="white" transform="translate(0 0.666504)"/>
</clipPath>
</defs>
</svg>
