<svg width="23" height="26" viewBox="0 0 23 26" fill="none" xmlns="http://www.w3.org/2000/svg">
<path d="M11.4923 25.4868C9.03389 25.4868 6.5738 25.4482 4.11371 25.5036C2.77215 25.5338 1.91019 24.7607 1.54965 23.7009C1.38343 23.2269 1.2775 22.7339 1.23438 22.2335C1.08513 20.1994 0.986193 18.1619 0.85036 16.1277C0.699435 13.884 0.526709 11.6436 0.365721 9.4015C0.345598 9.12312 0.330505 8.84307 0.330505 8.56302C0.330505 7.6474 0.743036 7.22146 1.65362 7.22146C3.09245 7.21307 4.53127 7.19966 5.9701 7.22146C6.40778 7.22984 6.56038 7.11917 6.61237 6.66471C6.73664 5.42785 7.04174 4.21592 7.51792 3.06765C8.20044 1.47958 9.41456 0.667935 11.1032 0.527072C13.1475 0.359376 14.3213 1.04022 15.2554 2.8748C15.9027 4.14425 16.3722 5.46066 16.4292 6.89949C16.4376 7.20804 16.6187 7.20804 16.8451 7.20804H21.0375C21.2468 7.20241 21.4561 7.20857 21.6647 7.22649C22.3774 7.30866 22.701 7.64741 22.6709 8.35843C22.5524 10.6726 22.4182 12.9868 22.2684 15.301C22.1208 17.5202 21.966 19.7371 21.8039 21.9518C21.764 22.7781 21.5394 23.5849 21.1465 24.3129C20.9627 24.6774 20.6783 24.9816 20.327 25.1897C19.9758 25.3977 19.5723 25.5008 19.1644 25.4868C16.6064 25.4868 14.0491 25.4868 11.4923 25.4868ZM11.4487 7.20804C12.4968 7.20804 13.5432 7.20804 14.593 7.20804C14.8177 7.20804 14.9804 7.17618 14.9502 6.88942C14.811 5.53109 14.5578 4.2063 13.7512 3.06262C12.5672 1.37896 10.466 1.33872 9.25357 3.01567C8.42348 4.15599 8.14343 5.49252 8.04616 6.87265C8.02604 7.17115 8.18367 7.20804 8.43186 7.20804C9.43636 7.20804 10.4425 7.20804 11.4487 7.20804ZM11.7556 22.0709C12.2453 21.9786 12.7618 21.9401 13.2246 21.7824C14.318 21.4152 15.1413 20.7159 15.3946 19.5487C15.6327 18.457 15.1363 17.5984 14.3381 16.8857C13.6354 16.2636 12.7836 15.9282 11.93 15.576C11.224 15.2859 10.4878 15.0143 9.87404 14.5799C8.89135 13.889 8.92489 12.7118 9.84889 11.9454C10.1494 11.6814 10.5071 11.4905 10.8937 11.3878C11.2804 11.2851 11.6856 11.2734 12.0776 11.3535C12.7349 11.4876 13.3537 11.8079 14.001 12.0058C14.1805 12.0595 14.4018 11.9706 14.603 11.9488C14.5639 11.749 14.5124 11.5519 14.4488 11.3585C14.4186 11.2797 14.3096 11.2243 14.2257 11.1757C12.9378 10.3943 11.5745 10.1377 10.1574 10.7615C9.28878 11.1422 8.56937 11.719 8.36478 12.7168C8.13504 13.8303 8.45702 14.7644 9.46654 15.3312C10.3251 15.8108 11.2391 16.1965 12.1379 16.599C12.8087 16.9025 13.5013 17.1775 14.0144 17.7426C14.9636 18.784 14.6601 20.2581 13.3738 20.8165C12.3475 21.2693 11.2944 21.2089 10.2698 20.8534C9.71138 20.6589 9.19487 20.3386 8.66831 20.0585C8.42012 19.926 8.18535 19.7902 7.96902 20.082C7.7527 20.3738 7.98915 20.5616 8.17864 20.7528C8.18907 20.7626 8.20028 20.7716 8.21218 20.7796C9.27201 21.5225 10.4258 22.0055 11.7556 22.0725V22.0709Z" fill="url(#paint0_linear_1386:600)"/>
<defs>
<linearGradient id="paint0_linear_1386:600" x1="22.6728" y1="25.5044" x2="-2.17183" y2="3.30272" gradientUnits="userSpaceOnUse">
<stop stop-color="#EF4E66"/>
<stop offset="1" stop-color="#FF9C72"/>
</linearGradient>
</defs>
</svg>
