<svg xmlns="http://www.w3.org/2000/svg" width="32" height="32" viewBox="0 0 32 32">
  <path id="Path_71" data-name="Path 71" d="M30.342,51.133A15.549,15.549,0,0,0,30.678,48,14.662,14.662,0,0,0,16.011,33.336a15.1,15.1,0,0,0-3.129.336,7.991,7.991,0,0,0-11.217,11.2A15.549,15.549,0,0,0,1.329,48,14.662,14.662,0,0,0,16,62.671a15.1,15.1,0,0,0,3.129-.336A7.992,7.992,0,0,0,32,56a7.881,7.881,0,0,0-1.658-4.865Zm-13.9,6.537c-4.687,0-8.609-2.086-8.609-4.644A2.007,2.007,0,0,1,9.938,50.84c2.229,0,2.436,3.208,6.294,3.208,1.836,0,3.022-.814,3.022-1.879,0-1.336-1.143-1.543-3-2-4.465-1.1-8.416-1.572-8.416-6.23,0-4.23,4.187-5.794,7.795-5.794,3.937,0,7.916,1.565,7.916,3.958a2.152,2.152,0,0,1-2.165,2.272c-2.022,0-2.086-2.393-5.358-2.393-1.836,0-3,.5-3,1.608,0,1.415,1.486,1.557,4.937,2.358,2.958.664,6.48,1.915,6.48,5.544,0,4.222-4.079,6.18-8,6.18Z" transform="translate(0 -32)" fill="#fff"/>
</svg>
