<svg width="61" height="60" viewBox="0 0 61 60" fill="none" xmlns="http://www.w3.org/2000/svg">
<g clip-path="url(#clip0_821_20464)">
<path d="M60.5 30C60.5 46.5688 47.0688 60 30.5 60C13.9312 60 0.5 46.5688 0.5 30C0.5 13.4312 13.9312 0 30.5 0C47.0688 0 60.5 13.4312 60.5 30Z" fill="#60DAA8"/>
<path d="M28.6663 46.1257C27.7316 46.1257 26.7918 45.8268 25.9998 45.2156L11.8577 34.3067C9.94698 32.8331 9.59267 30.0893 11.0667 28.1786C12.5402 26.2683 15.284 25.914 17.1947 27.3876L28.1362 35.8283L43.2323 19.1208C44.8501 17.3305 47.6127 17.1904 49.4035 18.8086C51.1938 20.4259 51.3339 23.189 49.7157 24.9793L31.91 44.6855C31.0513 45.6359 29.8629 46.1257 28.6663 46.1257Z" fill="white"/>
</g>
<defs>
<clipPath id="clip0_821_20464">
<rect width="60" height="60" fill="white" transform="translate(0.5)"/>
</clipPath>
</defs>
</svg>
