<svg width="21" height="20" viewBox="0 0 21 20" fill="none" xmlns="http://www.w3.org/2000/svg">
<path fill-rule="evenodd" clip-rule="evenodd" d="M10.8364 20C16.3593 20 20.8364 15.5228 20.8364 10C20.8364 4.47715 16.3593 0 10.8364 0C5.31358 0 0.836426 4.47715 0.836426 10C0.836426 15.5228 5.31358 20 10.8364 20ZM16.3433 5.77509L16.6926 6.12721C16.8855 6.32166 16.8842 6.63567 16.6898 6.82855L9.23082 14.2277C9.03637 14.4206 8.72236 14.4193 8.52948 14.2248L4.98028 10.647C4.78736 10.4525 4.78864 10.1385 4.98309 9.94563L5.33521 9.59636C5.52966 9.40344 5.84367 9.40472 6.03655 9.59917L8.88722 12.4729L15.642 5.77228C15.8364 5.57936 16.1504 5.58064 16.3433 5.77509Z" fill="#167FFC"/>
</svg>
