<svg xmlns="http://www.w3.org/2000/svg" xmlns:xlink="http://www.w3.org/1999/xlink" width="82" height="66" viewBox="0 0 82 66">
  <defs>
    <filter id="Path_10" x="0" y="0" width="82" height="66" filterUnits="userSpaceOnUse">
      <feOffset dx="2" dy="2" input="SourceAlpha"/>
      <feGaussianBlur result="blur"/>
      <feFlood flood-color="#f7b801" flood-opacity="0.702"/>
      <feComposite operator="in" in2="blur"/>
      <feComposite in="SourceGraphic"/>
    </filter>
  </defs>
  <g id="Group_85" data-name="Group 85" transform="translate(-1103 -1215)">
    <g transform="matrix(1, 0, 0, 1, 1103, 1215)" filter="url(#Path_10)">
      <path id="Path_10-2" data-name="Path 10" d="M78,44H76.485a4,4,0,0,1-2.829-6.829L74.729,36.1A2,2,0,1,0,71.9,33.271l-1.071,1.072A4,4,0,0,1,64,31.515V30a2,2,0,1,0-4,0v1.515a4,4,0,0,1-6.829,2.829L52.1,33.271A2,2,0,0,0,49.271,36.1l1.073,1.071A4,4,0,0,1,47.515,44H46a2,2,0,0,0,0,4h1.515a4,4,0,0,1,2.829,6.829L49.271,55.9A2,2,0,0,0,52.1,58.729l1.071-1.073A4,4,0,0,1,60,60.485V62a2,2,0,1,0,4,0V60.485a4,4,0,0,1,6.829-2.829L71.9,58.729A2,2,0,1,0,74.729,55.9l-1.072-1.071A4,4,0,0,1,76.485,48H78a2,2,0,0,0,0-4ZM60,48a4,4,0,1,1,4-4A4,4,0,0,1,60,48ZM43.314,26.666h2.02a2.666,2.666,0,0,0,0-5.333h-2.02a5.334,5.334,0,0,1-3.771-9.1l1.429-1.43A2.666,2.666,0,1,0,37.2,7.029L35.771,8.457a5.333,5.333,0,0,1-9.105-3.771V2.666a2.666,2.666,0,0,0-5.333,0v2.02a5.334,5.334,0,0,1-9.1,3.771L10.8,7.029A2.666,2.666,0,1,0,7.029,10.8l1.429,1.43a5.333,5.333,0,0,1-3.771,9.1H2.666a2.666,2.666,0,1,0,0,5.332h2.02a5.334,5.334,0,0,1,3.771,9.1L7.029,37.2A2.667,2.667,0,0,0,10.8,40.971l1.429-1.429a5.333,5.333,0,0,1,9.1,3.771v2.02a2.666,2.666,0,0,0,5.332,0v-2.02a5.334,5.334,0,0,1,9.1-3.771L37.2,40.971A2.667,2.667,0,1,0,40.971,37.2l-1.429-1.429A5.333,5.333,0,0,1,43.314,26.666ZM20,24a4,4,0,1,1,4-4A4,4,0,0,1,20,24Zm10,4a2,2,0,1,1,2-2A2,2,0,0,1,30,28Z" fill="#711984"/>
    </g>
  </g>
</svg>
