<svg width="24" height="24" viewBox="0 0 24 24" fill="none" xmlns="http://www.w3.org/2000/svg">
<g clip-path="url(#clip0_125_2)">
<path d="M23.3678 6.37412L22.3348 5.21181C22.1345 4.98602 21.8965 4.80688 21.6346 4.68466C21.3727 4.56244 21.0919 4.49953 20.8083 4.49953C20.5248 4.49953 20.244 4.56244 19.982 4.68466C19.7201 4.80688 19.4822 4.98602 19.2818 5.21181L15.9999 8.89452V6.18847C15.9989 5.59078 15.7874 5.01789 15.4119 4.59522L11.9119 0.657103C11.5385 0.238074 11.0332 0.00190915 10.5059 0L1.99998 0C1.47012 0.00207579 0.96249 0.239832 0.587819 0.661406C0.213149 1.08298 0.00184484 1.65416 0 2.25035L0 21.7496C0 22.3465 0.210712 22.9189 0.585781 23.3409C0.960851 23.7629 1.46955 24 1.99998 24H13.9999C14.5303 24 15.039 23.7629 15.4141 23.3409C15.7891 22.9189 15.9999 22.3465 15.9999 21.7496V17.9781C16.2677 17.766 16.5211 17.5317 16.7579 17.2771L23.3678 9.80816C23.7726 9.3526 24 8.73478 24 8.09058C24 7.44638 23.7726 6.82856 23.3678 6.373V6.37412ZM10.6679 1.52799C10.7847 1.5606 10.8912 1.62872 10.9759 1.72489L14.4759 5.66301C14.5614 5.75825 14.6219 5.87815 14.6509 6.00956H10.6679V1.52799ZM14.6679 21.7541C14.6671 21.953 14.5964 22.1434 14.4712 22.2838C14.3461 22.4242 14.1766 22.5032 13.9999 22.5035H1.99998C1.82325 22.5029 1.6539 22.4237 1.52893 22.283C1.40396 22.1424 1.33352 21.9519 1.33299 21.753V2.25035C1.3343 2.05176 1.40499 1.86173 1.52979 1.7213C1.6546 1.58087 1.82349 1.50133 1.99998 1.49986H9.33492V6.37975C9.33492 6.67816 9.44027 6.96435 9.62781 7.17537C9.81534 7.38638 10.0697 7.50492 10.3349 7.50492H14.6679V10.3865L12.6469 12.6481C11.3866 14.0661 10.6756 15.9873 10.6689 17.9927C10.5865 17.9873 10.507 17.9572 10.4384 17.9056C10.3698 17.8539 10.3148 17.7826 10.2789 17.699C10.1492 17.4374 9.97136 17.21 9.75728 17.0319C9.54321 16.8539 9.29782 16.7292 9.03752 16.6664C8.77723 16.6036 8.50801 16.604 8.24785 16.6675C7.9877 16.7311 7.7426 16.8565 7.52893 17.0352L6.94994 15.0774C6.88418 14.8522 6.75694 14.6562 6.58635 14.5173C6.41576 14.3783 6.21054 14.3035 5.99995 14.3035C5.78935 14.3035 5.58413 14.3783 5.41354 14.5173C5.24296 14.6562 5.11571 14.8522 5.04996 15.0774L4.28996 17.6394C4.2603 17.7446 4.2017 17.8365 4.12262 17.9018C4.04354 17.9671 3.94807 18.0025 3.84997 18.0028H3.33297C3.16067 18.0103 2.99765 18.0926 2.87811 18.2324C2.75857 18.3723 2.6918 18.5587 2.6918 18.7527C2.6918 18.9468 2.75857 19.1332 2.87811 19.273C2.99765 19.4129 3.16067 19.4952 3.33297 19.5027H3.84997C4.22809 19.5026 4.59658 19.3685 4.90316 19.1195C5.20974 18.8705 5.43884 18.5191 5.55795 18.1153L5.99995 16.6233L6.69994 18.9862C6.74176 19.1269 6.81969 19.2505 6.92389 19.3413C7.02809 19.4322 7.15389 19.4863 7.28539 19.4968C7.4169 19.5073 7.54821 19.4736 7.66275 19.4002C7.77729 19.3267 7.86992 19.2168 7.92893 19.0841L8.24793 18.3651C8.2872 18.2762 8.34806 18.2017 8.42343 18.1501C8.49881 18.0985 8.58563 18.072 8.67384 18.0737C8.76205 18.0753 8.84804 18.1051 8.92185 18.1594C8.99567 18.2138 9.05429 18.2906 9.09092 18.3809C9.23723 18.7117 9.46149 18.991 9.73923 19.1882C10.017 19.3855 10.3375 19.4931 10.6659 19.4993H11.9999C12.9182 19.4932 13.8258 19.2761 14.6669 18.8613L14.6679 21.7541ZM15.8129 16.2194C15.3131 16.7848 14.719 17.2334 14.0646 17.5395C13.4102 17.8455 12.7086 18.003 11.9999 18.0028V18.0028C11.9999 17.2054 12.1401 16.4158 12.4122 15.6795C12.6844 14.9432 13.0833 14.2747 13.5859 13.7125L18.6088 8.09226L20.8088 10.5677L15.8089 16.2205L15.8129 16.2194ZM22.4258 8.74824L21.5428 9.74177L19.3428 7.26639L20.2258 6.27286C20.3024 6.18661 20.3934 6.1182 20.4935 6.07152C20.5936 6.02484 20.7009 6.00082 20.8093 6.00082C20.9177 6.00082 21.025 6.02484 21.1251 6.07152C21.2252 6.1182 21.3162 6.18661 21.3928 6.27286L22.4258 7.43516C22.5804 7.6094 22.6672 7.84553 22.6672 8.0917C22.6672 8.33788 22.5804 8.574 22.4258 8.74824V8.74824Z" fill="#167ffc"/>
</g>
<defs>
<clipPath id="clip0_125_2">
<rect width="24" height="24" fill="white"/>
</clipPath>
</defs>
</svg>
