<svg xmlns="http://www.w3.org/2000/svg" width="32" height="22.5" viewBox="0 0 32 22.5">
  <path id="Path_72" data-name="Path 72" d="M46.264,67.52a4.021,4.021,0,0,0-2.829-2.847C40.94,64,30.933,64,30.933,64s-10.007,0-12.5.673A4.021,4.021,0,0,0,15.6,67.52a45.272,45.272,0,0,0,0,15.5,3.961,3.961,0,0,0,2.829,2.8c2.5.673,12.5.673,12.5.673s10.007,0,12.5-.673a3.961,3.961,0,0,0,2.829-2.8,45.272,45.272,0,0,0,0-15.5Zm-18.6,12.51V70.515l8.364,4.758L27.66,80.031Z" transform="translate(-14.933 -64)" fill="#fff"/>
</svg>
