<svg width="24" height="25" viewBox="0 0 24 25" fill="none" xmlns="http://www.w3.org/2000/svg">
<g clip-path="url(#clip0_3242_20576)">
<path d="M23 12.1299C23 18.205 18.0751 23.1299 12 23.1299C8.79743 23.1299 5.91453 21.7614 3.90445 19.5771C3.37645 19.0038 2.90906 18.3738 2.51127 17.6981C1.5509 16.0647 1 14.1615 1 12.1299C1 6.05474 5.92486 1.12988 12 1.12988C14.0321 1.12988 15.9353 1.68078 17.5682 2.6416C18.244 3.03894 18.8734 3.50633 19.4468 4.03478C21.6311 6.04396 23 8.92731 23 12.1299Z" fill="#F0CD00"/>
<path d="M22.9999 12.1301C22.9999 18.0683 18.2951 22.9074 12.4094 23.1224C6.5237 22.9074 1.81885 18.0683 1.81885 12.1301C1.81885 6.19186 6.5237 1.35276 12.4094 1.1377C18.2951 1.35276 22.9999 6.19186 22.9999 12.1301Z" fill="#FFDE50"/>
<path d="M19.4467 4.03479L3.90441 19.5771C3.37641 19.0038 2.90903 18.3739 2.51123 17.6981L17.5682 2.6416C18.2439 3.03895 18.8734 3.50634 19.4467 4.03479Z" fill="#FFEA94"/>
<path d="M22.2413 8.10871L7.97814 22.3719C6.96838 21.975 6.03136 21.4331 5.19312 20.7717L20.6416 5.32324C21.303 6.16149 21.8449 7.09851 22.2413 8.10871Z" fill="#FFEA94"/>
<path d="M20.5477 12.1297C20.5477 16.8503 16.7206 20.6774 12.0001 20.6774C10.3559 20.6774 8.82039 20.2131 7.51701 19.4086C6.94905 19.0584 6.42554 18.6431 5.9559 18.1734C5.61064 17.8286 5.29456 17.4537 5.01215 17.0537C4.62333 16.5028 4.29782 15.9038 4.04684 15.2676C3.67509 14.327 3.46586 13.3042 3.45329 12.2348C3.45239 12.1997 3.45239 12.1647 3.45239 12.1297C3.45239 7.40913 7.27905 3.58203 12.0001 3.58203C12.0351 3.58203 12.0706 3.58203 12.1056 3.58293C13.175 3.5955 14.1974 3.80517 15.138 4.17648C15.7742 4.42791 16.3731 4.75297 16.924 5.14179C17.3241 5.42464 17.6985 5.74028 18.0438 6.08554C18.5134 6.55473 18.9287 7.07868 19.2789 7.64664C20.0835 8.95003 20.5477 10.4855 20.5477 12.1297Z" fill="#FAA300"/>
<path d="M18.0438 6.08554L5.9559 18.1734C5.61064 17.8286 5.29456 17.4537 5.01215 17.0537C4.62333 16.5028 4.29782 15.9038 4.04684 15.2676C3.67509 14.327 3.46586 13.3042 3.45329 12.2348C3.45239 12.1997 3.45239 12.1647 3.45239 12.1297C3.45239 7.40913 7.27905 3.58203 12.0001 3.58203C12.0351 3.58203 12.0706 3.58203 12.1056 3.58293C13.175 3.5955 14.1974 3.80517 15.138 4.17648C15.7742 4.42791 16.3731 4.75297 16.924 5.14179C17.3241 5.42464 17.6985 5.74028 18.0438 6.08554Z" fill="#FFBD00"/>
<path d="M20.5474 12.1297C20.5474 16.8503 16.7203 20.6774 11.9997 20.6774C11.8377 20.6774 11.6769 20.6729 11.5171 20.6639C16.0132 20.4138 19.5817 16.6882 19.5817 12.1297C19.5817 7.57122 16.0132 3.84558 11.5171 3.5955C11.6769 3.58652 11.8377 3.58203 11.9997 3.58203C16.7203 3.58203 20.5474 7.40913 20.5474 12.1297Z" fill="#F68E00"/>
<path fill-rule="evenodd" clip-rule="evenodd" d="M16.0585 9.62007C16.0455 9.88398 16.0322 10.1531 16.0322 10.421V10.5863C16.0322 11.1279 15.6017 11.569 15.0641 11.5858H15.3627C15.6389 11.5858 15.8627 11.8097 15.8627 12.0858V13.2444C15.8627 15.0645 15.0499 16.7542 13.4395 17.6541L11.7507 18.7896L9.35629 17.9572C6.73769 16.2272 6.73769 15.0645 6.73769 13.2444V12.0858C6.73769 11.8172 6.94946 11.5981 7.21514 11.5863H7.07812C6.52584 11.5863 6.07812 11.1386 6.07812 10.5863V10.421C6.07812 8.23106 7.47469 6.82201 9.39494 6.82201H10.6781L10.764 6.54719C11.0093 5.76926 11.5593 5.11035 12.4306 5.11035H12.6564C12.8993 5.11035 13.0962 5.30725 13.0962 5.55013C13.0962 5.79302 12.8993 5.98992 12.6564 5.98992H12.4306C12.0053 5.98992 11.6593 6.14734 11.6593 6.60984V6.82201H13.8621C16.1964 6.82201 16.1315 8.13868 16.0585 9.62007Z" fill="#F68E00"/>
<path fill-rule="evenodd" clip-rule="evenodd" d="M14.1465 7.32553C15.7199 7.32553 17 8.60563 17 10.1791V10.2142C17 10.7664 16.5523 11.2142 16 11.2142H8C7.44772 11.2142 7 10.7664 7 10.2142V10.1791C7 8.60561 8.28008 7.32553 9.85353 7.32553H11.6094V6.98823C11.6094 6.14662 12.2941 5.46191 13.1357 5.46191C13.296 5.46191 13.426 5.59187 13.426 5.75218V5.95292C13.426 6.11323 13.296 6.24318 13.1357 6.24318C12.7249 6.24318 12.3906 6.57741 12.3906 6.98823V7.32553H14.1465ZM10.1044 17.7192C8.61212 16.8704 7.68509 15.2766 7.68509 13.5598V12.4954C7.68509 12.2193 7.90895 11.9954 8.18509 11.9954H15.8148C16.0909 11.9954 16.3148 12.2193 16.3148 12.4954V13.5598C16.3148 15.2766 15.3878 16.8704 13.8955 17.7192L12 18.7974L10.1044 17.7192Z" fill="#FFE67B"/>
</g>
<defs>
<clipPath id="clip0_3242_20576">
<rect width="22" height="22" fill="white" transform="translate(1 1.12988)"/>
</clipPath>
</defs>
</svg>
